G04 #@! TF.GenerationSoftware,KiCad,Pcbnew,(5.1.5)-3*
G04 #@! TF.CreationDate,2020-07-15T05:41:28-07:00*
G04 #@! TF.ProjectId,pcb,7063622e-6b69-4636-9164-5f7063625858,rev?*
G04 #@! TF.SameCoordinates,Original*
G04 #@! TF.FileFunction,Soldermask,Bot*
G04 #@! TF.FilePolarity,Negative*
%FSLAX46Y46*%
G04 Gerber Fmt 4.6, Leading zero omitted, Abs format (unit mm)*
G04 Created by KiCad (PCBNEW (5.1.5)-3) date 2020-07-15 05:41:28*
%MOMM*%
%LPD*%
G04 APERTURE LIST*
%ADD10C,0.100000*%
G04 APERTURE END LIST*
D10*
G36*
X260209512Y-114165927D02*
G01*
X260358812Y-114195624D01*
X260522784Y-114263544D01*
X260670354Y-114362147D01*
X260795853Y-114487646D01*
X260894456Y-114635216D01*
X260962376Y-114799188D01*
X260997000Y-114973259D01*
X260997000Y-115150741D01*
X260962376Y-115324812D01*
X260894456Y-115488784D01*
X260795853Y-115636354D01*
X260670354Y-115761853D01*
X260522784Y-115860456D01*
X260358812Y-115928376D01*
X260209512Y-115958073D01*
X260184742Y-115963000D01*
X260007258Y-115963000D01*
X259982488Y-115958073D01*
X259833188Y-115928376D01*
X259669216Y-115860456D01*
X259521646Y-115761853D01*
X259396147Y-115636354D01*
X259297544Y-115488784D01*
X259229624Y-115324812D01*
X259195000Y-115150741D01*
X259195000Y-114973259D01*
X259229624Y-114799188D01*
X259297544Y-114635216D01*
X259396147Y-114487646D01*
X259521646Y-114362147D01*
X259669216Y-114263544D01*
X259833188Y-114195624D01*
X259982488Y-114165927D01*
X260007258Y-114161000D01*
X260184742Y-114161000D01*
X260209512Y-114165927D01*
G37*
G36*
X258457000Y-115963000D02*
G01*
X256655000Y-115963000D01*
X256655000Y-114161000D01*
X258457000Y-114161000D01*
X258457000Y-115963000D01*
G37*
G36*
X265289512Y-114165927D02*
G01*
X265438812Y-114195624D01*
X265602784Y-114263544D01*
X265750354Y-114362147D01*
X265875853Y-114487646D01*
X265974456Y-114635216D01*
X266042376Y-114799188D01*
X266077000Y-114973259D01*
X266077000Y-115150741D01*
X266042376Y-115324812D01*
X265974456Y-115488784D01*
X265875853Y-115636354D01*
X265750354Y-115761853D01*
X265602784Y-115860456D01*
X265438812Y-115928376D01*
X265289512Y-115958073D01*
X265264742Y-115963000D01*
X265087258Y-115963000D01*
X265062488Y-115958073D01*
X264913188Y-115928376D01*
X264749216Y-115860456D01*
X264601646Y-115761853D01*
X264476147Y-115636354D01*
X264377544Y-115488784D01*
X264309624Y-115324812D01*
X264275000Y-115150741D01*
X264275000Y-114973259D01*
X264309624Y-114799188D01*
X264377544Y-114635216D01*
X264476147Y-114487646D01*
X264601646Y-114362147D01*
X264749216Y-114263544D01*
X264913188Y-114195624D01*
X265062488Y-114165927D01*
X265087258Y-114161000D01*
X265264742Y-114161000D01*
X265289512Y-114165927D01*
G37*
G36*
X262749512Y-114165927D02*
G01*
X262898812Y-114195624D01*
X263062784Y-114263544D01*
X263210354Y-114362147D01*
X263335853Y-114487646D01*
X263434456Y-114635216D01*
X263502376Y-114799188D01*
X263537000Y-114973259D01*
X263537000Y-115150741D01*
X263502376Y-115324812D01*
X263434456Y-115488784D01*
X263335853Y-115636354D01*
X263210354Y-115761853D01*
X263062784Y-115860456D01*
X262898812Y-115928376D01*
X262749512Y-115958073D01*
X262724742Y-115963000D01*
X262547258Y-115963000D01*
X262522488Y-115958073D01*
X262373188Y-115928376D01*
X262209216Y-115860456D01*
X262061646Y-115761853D01*
X261936147Y-115636354D01*
X261837544Y-115488784D01*
X261769624Y-115324812D01*
X261735000Y-115150741D01*
X261735000Y-114973259D01*
X261769624Y-114799188D01*
X261837544Y-114635216D01*
X261936147Y-114487646D01*
X262061646Y-114362147D01*
X262209216Y-114263544D01*
X262373188Y-114195624D01*
X262522488Y-114165927D01*
X262547258Y-114161000D01*
X262724742Y-114161000D01*
X262749512Y-114165927D01*
G37*
G36*
X269857799Y-110559954D02*
G01*
X269870050Y-110560556D01*
X269888469Y-110560556D01*
X269910749Y-110562750D01*
X269994833Y-110579476D01*
X270016260Y-110585976D01*
X270095458Y-110618780D01*
X270100903Y-110621691D01*
X270100909Y-110621693D01*
X270109769Y-110626429D01*
X270109773Y-110626432D01*
X270115214Y-110629340D01*
X270186499Y-110676971D01*
X270203804Y-110691172D01*
X270264428Y-110751796D01*
X270278629Y-110769101D01*
X270326260Y-110840386D01*
X270329168Y-110845827D01*
X270329171Y-110845831D01*
X270333907Y-110854691D01*
X270333909Y-110854697D01*
X270336820Y-110860142D01*
X270369624Y-110939340D01*
X270376124Y-110960767D01*
X270392850Y-111044851D01*
X270395044Y-111067131D01*
X270395044Y-111085550D01*
X270395646Y-111097801D01*
X270397452Y-111116139D01*
X270397452Y-111603860D01*
X270395863Y-111619999D01*
X270392948Y-111629608D01*
X270388210Y-111638472D01*
X270381837Y-111646237D01*
X270369394Y-111656448D01*
X270359025Y-111663378D01*
X270341698Y-111680705D01*
X270328085Y-111701080D01*
X270318709Y-111723720D01*
X270313929Y-111747753D01*
X270313930Y-111772257D01*
X270318712Y-111796290D01*
X270328090Y-111818929D01*
X270341705Y-111839302D01*
X270359032Y-111856629D01*
X270369402Y-111863558D01*
X270381837Y-111873763D01*
X270388210Y-111881528D01*
X270392948Y-111890392D01*
X270395863Y-111900001D01*
X270397452Y-111916140D01*
X270397452Y-112403862D01*
X270395646Y-112422199D01*
X270395044Y-112434450D01*
X270395044Y-112452869D01*
X270392850Y-112475149D01*
X270376124Y-112559233D01*
X270369624Y-112580660D01*
X270336820Y-112659858D01*
X270333909Y-112665303D01*
X270333907Y-112665309D01*
X270329171Y-112674169D01*
X270329168Y-112674173D01*
X270326260Y-112679614D01*
X270278629Y-112750899D01*
X270264428Y-112768204D01*
X270203804Y-112828828D01*
X270186499Y-112843029D01*
X270115214Y-112890660D01*
X270109773Y-112893568D01*
X270109769Y-112893571D01*
X270100909Y-112898307D01*
X270100903Y-112898309D01*
X270095458Y-112901220D01*
X270016260Y-112934024D01*
X269994833Y-112940524D01*
X269910749Y-112957250D01*
X269888469Y-112959444D01*
X269870050Y-112959444D01*
X269857799Y-112960046D01*
X269839462Y-112961852D01*
X269351738Y-112961852D01*
X269333401Y-112960046D01*
X269321150Y-112959444D01*
X269302731Y-112959444D01*
X269280451Y-112957250D01*
X269196367Y-112940524D01*
X269174940Y-112934024D01*
X269095742Y-112901220D01*
X269090297Y-112898309D01*
X269090291Y-112898307D01*
X269081431Y-112893571D01*
X269081427Y-112893568D01*
X269075986Y-112890660D01*
X269004701Y-112843029D01*
X268987396Y-112828828D01*
X268926772Y-112768204D01*
X268912571Y-112750899D01*
X268864940Y-112679614D01*
X268862032Y-112674173D01*
X268862029Y-112674169D01*
X268857293Y-112665309D01*
X268857291Y-112665303D01*
X268854380Y-112659858D01*
X268821576Y-112580660D01*
X268815076Y-112559233D01*
X268798350Y-112475149D01*
X268796156Y-112452869D01*
X268796156Y-112434450D01*
X268795554Y-112422199D01*
X268793748Y-112403862D01*
X268793748Y-111916140D01*
X268795337Y-111900001D01*
X268798252Y-111890392D01*
X268802990Y-111881528D01*
X268809363Y-111873763D01*
X268821806Y-111863552D01*
X268832175Y-111856622D01*
X268849502Y-111839295D01*
X268863115Y-111818920D01*
X268872491Y-111796280D01*
X268877271Y-111772247D01*
X268877270Y-111747743D01*
X268872488Y-111723710D01*
X268863110Y-111701071D01*
X268849495Y-111680698D01*
X268832168Y-111663371D01*
X268821798Y-111656442D01*
X268809363Y-111646237D01*
X268802990Y-111638472D01*
X268798252Y-111629608D01*
X268795337Y-111619999D01*
X268793748Y-111603860D01*
X268793748Y-111116139D01*
X268795554Y-111097801D01*
X268796156Y-111085550D01*
X268796156Y-111067131D01*
X268798350Y-111044851D01*
X268815076Y-110960767D01*
X268821576Y-110939340D01*
X268854380Y-110860142D01*
X268857291Y-110854697D01*
X268857293Y-110854691D01*
X268862029Y-110845831D01*
X268862032Y-110845827D01*
X268864940Y-110840386D01*
X268912571Y-110769101D01*
X268926772Y-110751796D01*
X268987396Y-110691172D01*
X269004701Y-110676971D01*
X269075986Y-110629340D01*
X269081427Y-110626432D01*
X269081431Y-110626429D01*
X269090291Y-110621693D01*
X269090297Y-110621691D01*
X269095742Y-110618780D01*
X269174940Y-110585976D01*
X269196367Y-110579476D01*
X269280451Y-110562750D01*
X269302731Y-110560556D01*
X269321150Y-110560556D01*
X269333401Y-110559954D01*
X269351739Y-110558148D01*
X269839461Y-110558148D01*
X269857799Y-110559954D01*
G37*
G36*
X28243511Y-106771815D02*
G01*
X28286461Y-106776045D01*
X28347612Y-106794595D01*
X28369122Y-106801120D01*
X28445295Y-106841836D01*
X28512067Y-106896633D01*
X28566864Y-106963405D01*
X28607580Y-107039578D01*
X28607581Y-107039582D01*
X28632655Y-107122239D01*
X28641121Y-107208200D01*
X28632655Y-107294161D01*
X28614105Y-107355312D01*
X28607580Y-107376822D01*
X28566864Y-107452995D01*
X28512067Y-107519767D01*
X28445295Y-107574564D01*
X28369122Y-107615280D01*
X28347612Y-107621805D01*
X28286461Y-107640355D01*
X28243511Y-107644585D01*
X28222037Y-107646700D01*
X27403963Y-107646700D01*
X27382489Y-107644585D01*
X27339539Y-107640355D01*
X27278388Y-107621805D01*
X27256878Y-107615280D01*
X27180705Y-107574564D01*
X27113933Y-107519767D01*
X27059136Y-107452995D01*
X27018420Y-107376822D01*
X27011895Y-107355312D01*
X26993345Y-107294161D01*
X26984879Y-107208200D01*
X26993345Y-107122239D01*
X27018419Y-107039582D01*
X27018420Y-107039578D01*
X27059136Y-106963405D01*
X27113933Y-106896633D01*
X27180705Y-106841836D01*
X27256878Y-106801120D01*
X27278388Y-106794595D01*
X27339539Y-106776045D01*
X27382489Y-106771815D01*
X27403963Y-106769700D01*
X28222037Y-106769700D01*
X28243511Y-106771815D01*
G37*
G36*
X278523000Y-107581000D02*
G01*
X276721000Y-107581000D01*
X276721000Y-105779000D01*
X278523000Y-105779000D01*
X278523000Y-107581000D01*
G37*
G36*
X30586710Y-105512640D02*
G01*
X30657585Y-105534140D01*
X30722904Y-105569054D01*
X30780159Y-105616041D01*
X30827146Y-105673296D01*
X30862060Y-105738615D01*
X30883560Y-105809490D01*
X30889000Y-105864728D01*
X30889000Y-106551672D01*
X30883560Y-106606910D01*
X30862060Y-106677785D01*
X30827146Y-106743104D01*
X30780159Y-106800359D01*
X30722906Y-106847345D01*
X30657583Y-106882260D01*
X30586709Y-106903760D01*
X30513000Y-106911019D01*
X30439290Y-106903760D01*
X30368415Y-106882260D01*
X30303096Y-106847346D01*
X30245841Y-106800359D01*
X30198855Y-106743106D01*
X30163940Y-106677783D01*
X30142440Y-106606909D01*
X30137000Y-106551671D01*
X30137001Y-105864728D01*
X30142441Y-105809490D01*
X30163941Y-105738615D01*
X30198855Y-105673296D01*
X30245842Y-105616041D01*
X30303097Y-105569054D01*
X30368416Y-105534140D01*
X30439291Y-105512640D01*
X30513000Y-105505381D01*
X30586710Y-105512640D01*
G37*
G36*
X30586710Y-100512640D02*
G01*
X30657585Y-100534140D01*
X30722904Y-100569054D01*
X30780159Y-100616041D01*
X30827146Y-100673296D01*
X30862060Y-100738615D01*
X30883560Y-100809490D01*
X30889000Y-100864728D01*
X30889000Y-101551672D01*
X30883560Y-101606910D01*
X30862060Y-101677785D01*
X30827146Y-101743104D01*
X30780159Y-101800359D01*
X30722906Y-101847345D01*
X30657583Y-101882260D01*
X30586709Y-101903760D01*
X30513000Y-101911019D01*
X30439290Y-101903760D01*
X30368415Y-101882260D01*
X30303096Y-101847346D01*
X30245841Y-101800359D01*
X30198855Y-101743106D01*
X30163940Y-101677783D01*
X30142440Y-101606909D01*
X30137000Y-101551671D01*
X30137001Y-100864728D01*
X30142441Y-100809490D01*
X30163941Y-100738615D01*
X30198855Y-100673296D01*
X30245842Y-100616041D01*
X30303097Y-100569054D01*
X30368416Y-100534140D01*
X30439291Y-100512640D01*
X30513000Y-100505381D01*
X30586710Y-100512640D01*
G37*
G36*
X28243511Y-99771815D02*
G01*
X28286461Y-99776045D01*
X28347612Y-99794595D01*
X28369122Y-99801120D01*
X28445295Y-99841836D01*
X28512067Y-99896633D01*
X28566864Y-99963405D01*
X28607580Y-100039578D01*
X28607581Y-100039582D01*
X28632655Y-100122239D01*
X28641121Y-100208200D01*
X28632655Y-100294161D01*
X28614105Y-100355312D01*
X28607580Y-100376822D01*
X28566864Y-100452995D01*
X28512067Y-100519767D01*
X28445295Y-100574564D01*
X28369122Y-100615280D01*
X28347612Y-100621805D01*
X28286461Y-100640355D01*
X28243511Y-100644585D01*
X28222037Y-100646700D01*
X27403963Y-100646700D01*
X27382489Y-100644585D01*
X27339539Y-100640355D01*
X27278388Y-100621805D01*
X27256878Y-100615280D01*
X27180705Y-100574564D01*
X27113933Y-100519767D01*
X27059136Y-100452995D01*
X27018420Y-100376822D01*
X27011895Y-100355312D01*
X26993345Y-100294161D01*
X26984879Y-100208200D01*
X26993345Y-100122239D01*
X27018419Y-100039582D01*
X27018420Y-100039578D01*
X27059136Y-99963405D01*
X27113933Y-99896633D01*
X27180705Y-99841836D01*
X27256878Y-99801120D01*
X27278388Y-99794595D01*
X27339539Y-99776045D01*
X27382489Y-99771815D01*
X27403963Y-99769700D01*
X28222037Y-99769700D01*
X28243511Y-99771815D01*
G37*
G36*
X278523000Y-98691000D02*
G01*
X276721000Y-98691000D01*
X276721000Y-96889000D01*
X278523000Y-96889000D01*
X278523000Y-98691000D01*
G37*
G36*
X272667487Y-95268996D02*
G01*
X272835868Y-95338742D01*
X272904255Y-95367069D01*
X273117339Y-95509447D01*
X273298553Y-95690661D01*
X273387884Y-95824354D01*
X273440932Y-95903747D01*
X273539004Y-96140513D01*
X273589000Y-96391861D01*
X273589000Y-96648139D01*
X273539004Y-96899487D01*
X273440932Y-97136253D01*
X273440931Y-97136255D01*
X273298553Y-97349339D01*
X273117339Y-97530553D01*
X272904255Y-97672931D01*
X272904254Y-97672932D01*
X272904253Y-97672932D01*
X272667487Y-97771004D01*
X272416139Y-97821000D01*
X272159861Y-97821000D01*
X271908513Y-97771004D01*
X271671747Y-97672932D01*
X271671746Y-97672932D01*
X271671745Y-97672931D01*
X271458661Y-97530553D01*
X271277447Y-97349339D01*
X271135069Y-97136255D01*
X271135068Y-97136253D01*
X271036996Y-96899487D01*
X270987000Y-96648139D01*
X270987000Y-96391861D01*
X271036996Y-96140513D01*
X271135068Y-95903747D01*
X271188117Y-95824354D01*
X271277447Y-95690661D01*
X271458661Y-95509447D01*
X271671745Y-95367069D01*
X271740132Y-95338742D01*
X271908513Y-95268996D01*
X272159861Y-95219000D01*
X272416139Y-95219000D01*
X272667487Y-95268996D01*
G37*
G36*
X32891487Y-95268996D02*
G01*
X33059868Y-95338742D01*
X33128255Y-95367069D01*
X33341339Y-95509447D01*
X33522553Y-95690661D01*
X33611884Y-95824354D01*
X33664932Y-95903747D01*
X33763004Y-96140513D01*
X33813000Y-96391861D01*
X33813000Y-96648139D01*
X33763004Y-96899487D01*
X33664932Y-97136253D01*
X33664931Y-97136255D01*
X33522553Y-97349339D01*
X33341339Y-97530553D01*
X33128255Y-97672931D01*
X33128254Y-97672932D01*
X33128253Y-97672932D01*
X32891487Y-97771004D01*
X32640139Y-97821000D01*
X32383861Y-97821000D01*
X32132513Y-97771004D01*
X31895747Y-97672932D01*
X31895746Y-97672932D01*
X31895745Y-97672931D01*
X31682661Y-97530553D01*
X31501447Y-97349339D01*
X31359069Y-97136255D01*
X31359068Y-97136253D01*
X31260996Y-96899487D01*
X31211000Y-96648139D01*
X31211000Y-96391861D01*
X31260996Y-96140513D01*
X31359068Y-95903747D01*
X31412117Y-95824354D01*
X31501447Y-95690661D01*
X31682661Y-95509447D01*
X31895745Y-95367069D01*
X31964132Y-95338742D01*
X32132513Y-95268996D01*
X32383861Y-95219000D01*
X32640139Y-95219000D01*
X32891487Y-95268996D01*
G37*
G36*
X277735512Y-94353927D02*
G01*
X277884812Y-94383624D01*
X278048784Y-94451544D01*
X278196354Y-94550147D01*
X278321853Y-94675646D01*
X278420456Y-94823216D01*
X278488376Y-94987188D01*
X278523000Y-95161259D01*
X278523000Y-95338741D01*
X278488376Y-95512812D01*
X278420456Y-95676784D01*
X278321853Y-95824354D01*
X278196354Y-95949853D01*
X278048784Y-96048456D01*
X277884812Y-96116376D01*
X277735512Y-96146073D01*
X277710742Y-96151000D01*
X277533258Y-96151000D01*
X277508488Y-96146073D01*
X277359188Y-96116376D01*
X277195216Y-96048456D01*
X277047646Y-95949853D01*
X276922147Y-95824354D01*
X276823544Y-95676784D01*
X276755624Y-95512812D01*
X276721000Y-95338741D01*
X276721000Y-95161259D01*
X276755624Y-94987188D01*
X276823544Y-94823216D01*
X276922147Y-94675646D01*
X277047646Y-94550147D01*
X277195216Y-94451544D01*
X277359188Y-94383624D01*
X277508488Y-94353927D01*
X277533258Y-94349000D01*
X277710742Y-94349000D01*
X277735512Y-94353927D01*
G37*
G36*
X269857799Y-90239954D02*
G01*
X269870050Y-90240556D01*
X269888469Y-90240556D01*
X269910749Y-90242750D01*
X269994833Y-90259476D01*
X270016260Y-90265976D01*
X270095458Y-90298780D01*
X270100903Y-90301691D01*
X270100909Y-90301693D01*
X270109769Y-90306429D01*
X270109773Y-90306432D01*
X270115214Y-90309340D01*
X270186499Y-90356971D01*
X270203804Y-90371172D01*
X270264428Y-90431796D01*
X270278629Y-90449101D01*
X270326260Y-90520386D01*
X270329168Y-90525827D01*
X270329171Y-90525831D01*
X270333907Y-90534691D01*
X270333909Y-90534697D01*
X270336820Y-90540142D01*
X270369624Y-90619340D01*
X270376124Y-90640767D01*
X270392850Y-90724851D01*
X270395044Y-90747131D01*
X270395044Y-90765550D01*
X270395646Y-90777801D01*
X270397452Y-90796139D01*
X270397452Y-91283860D01*
X270395863Y-91299999D01*
X270392948Y-91309608D01*
X270388210Y-91318472D01*
X270381837Y-91326237D01*
X270369394Y-91336448D01*
X270359025Y-91343378D01*
X270341698Y-91360705D01*
X270328085Y-91381080D01*
X270318709Y-91403720D01*
X270313929Y-91427753D01*
X270313930Y-91452257D01*
X270318712Y-91476290D01*
X270328090Y-91498929D01*
X270341705Y-91519302D01*
X270359032Y-91536629D01*
X270369402Y-91543558D01*
X270381837Y-91553763D01*
X270388210Y-91561528D01*
X270392948Y-91570392D01*
X270395863Y-91580001D01*
X270397452Y-91596140D01*
X270397452Y-92083862D01*
X270395646Y-92102199D01*
X270395044Y-92114450D01*
X270395044Y-92132869D01*
X270392850Y-92155149D01*
X270376124Y-92239233D01*
X270369624Y-92260660D01*
X270336820Y-92339858D01*
X270333909Y-92345303D01*
X270333907Y-92345309D01*
X270329171Y-92354169D01*
X270329168Y-92354173D01*
X270326260Y-92359614D01*
X270278629Y-92430899D01*
X270264428Y-92448204D01*
X270203804Y-92508828D01*
X270186499Y-92523029D01*
X270115214Y-92570660D01*
X270109773Y-92573568D01*
X270109769Y-92573571D01*
X270100909Y-92578307D01*
X270100903Y-92578309D01*
X270095458Y-92581220D01*
X270016260Y-92614024D01*
X269994833Y-92620524D01*
X269910749Y-92637250D01*
X269888469Y-92639444D01*
X269870050Y-92639444D01*
X269857799Y-92640046D01*
X269839462Y-92641852D01*
X269351738Y-92641852D01*
X269333401Y-92640046D01*
X269321150Y-92639444D01*
X269302731Y-92639444D01*
X269280451Y-92637250D01*
X269196367Y-92620524D01*
X269174940Y-92614024D01*
X269095742Y-92581220D01*
X269090297Y-92578309D01*
X269090291Y-92578307D01*
X269081431Y-92573571D01*
X269081427Y-92573568D01*
X269075986Y-92570660D01*
X269004701Y-92523029D01*
X268987396Y-92508828D01*
X268926772Y-92448204D01*
X268912571Y-92430899D01*
X268864940Y-92359614D01*
X268862032Y-92354173D01*
X268862029Y-92354169D01*
X268857293Y-92345309D01*
X268857291Y-92345303D01*
X268854380Y-92339858D01*
X268821576Y-92260660D01*
X268815076Y-92239233D01*
X268798350Y-92155149D01*
X268796156Y-92132869D01*
X268796156Y-92114450D01*
X268795554Y-92102199D01*
X268793748Y-92083862D01*
X268793748Y-91596140D01*
X268795337Y-91580001D01*
X268798252Y-91570392D01*
X268802990Y-91561528D01*
X268809363Y-91553763D01*
X268821806Y-91543552D01*
X268832175Y-91536622D01*
X268849502Y-91519295D01*
X268863115Y-91498920D01*
X268872491Y-91476280D01*
X268877271Y-91452247D01*
X268877270Y-91427743D01*
X268872488Y-91403710D01*
X268863110Y-91381071D01*
X268849495Y-91360698D01*
X268832168Y-91343371D01*
X268821798Y-91336442D01*
X268809363Y-91326237D01*
X268802990Y-91318472D01*
X268798252Y-91309608D01*
X268795337Y-91299999D01*
X268793748Y-91283860D01*
X268793748Y-90796139D01*
X268795554Y-90777801D01*
X268796156Y-90765550D01*
X268796156Y-90747131D01*
X268798350Y-90724851D01*
X268815076Y-90640767D01*
X268821576Y-90619340D01*
X268854380Y-90540142D01*
X268857291Y-90534697D01*
X268857293Y-90534691D01*
X268862029Y-90525831D01*
X268862032Y-90525827D01*
X268864940Y-90520386D01*
X268912571Y-90449101D01*
X268926772Y-90431796D01*
X268987396Y-90371172D01*
X269004701Y-90356971D01*
X269075986Y-90309340D01*
X269081427Y-90306432D01*
X269081431Y-90306429D01*
X269090291Y-90301693D01*
X269090297Y-90301691D01*
X269095742Y-90298780D01*
X269174940Y-90265976D01*
X269196367Y-90259476D01*
X269280451Y-90242750D01*
X269302731Y-90240556D01*
X269321150Y-90240556D01*
X269333401Y-90239954D01*
X269351739Y-90238148D01*
X269839461Y-90238148D01*
X269857799Y-90239954D01*
G37*
G36*
X48526000Y-87642000D02*
G01*
X46724000Y-87642000D01*
X46724000Y-85840000D01*
X48526000Y-85840000D01*
X48526000Y-87642000D01*
G37*
G36*
X278523000Y-87261000D02*
G01*
X276721000Y-87261000D01*
X276721000Y-85459000D01*
X278523000Y-85459000D01*
X278523000Y-87261000D01*
G37*
G36*
X258457000Y-78498000D02*
G01*
X256655000Y-78498000D01*
X256655000Y-76696000D01*
X258457000Y-76696000D01*
X258457000Y-78498000D01*
G37*
G36*
X260209512Y-76700927D02*
G01*
X260358812Y-76730624D01*
X260522784Y-76798544D01*
X260670354Y-76897147D01*
X260795853Y-77022646D01*
X260894456Y-77170216D01*
X260962376Y-77334188D01*
X260997000Y-77508259D01*
X260997000Y-77685741D01*
X260962376Y-77859812D01*
X260894456Y-78023784D01*
X260795853Y-78171354D01*
X260670354Y-78296853D01*
X260522784Y-78395456D01*
X260358812Y-78463376D01*
X260209512Y-78493073D01*
X260184742Y-78498000D01*
X260007258Y-78498000D01*
X259982488Y-78493073D01*
X259833188Y-78463376D01*
X259669216Y-78395456D01*
X259521646Y-78296853D01*
X259396147Y-78171354D01*
X259297544Y-78023784D01*
X259229624Y-77859812D01*
X259195000Y-77685741D01*
X259195000Y-77508259D01*
X259229624Y-77334188D01*
X259297544Y-77170216D01*
X259396147Y-77022646D01*
X259521646Y-76897147D01*
X259669216Y-76798544D01*
X259833188Y-76730624D01*
X259982488Y-76700927D01*
X260007258Y-76696000D01*
X260184742Y-76696000D01*
X260209512Y-76700927D01*
G37*
G36*
X262749512Y-76700927D02*
G01*
X262898812Y-76730624D01*
X263062784Y-76798544D01*
X263210354Y-76897147D01*
X263335853Y-77022646D01*
X263434456Y-77170216D01*
X263502376Y-77334188D01*
X263537000Y-77508259D01*
X263537000Y-77685741D01*
X263502376Y-77859812D01*
X263434456Y-78023784D01*
X263335853Y-78171354D01*
X263210354Y-78296853D01*
X263062784Y-78395456D01*
X262898812Y-78463376D01*
X262749512Y-78493073D01*
X262724742Y-78498000D01*
X262547258Y-78498000D01*
X262522488Y-78493073D01*
X262373188Y-78463376D01*
X262209216Y-78395456D01*
X262061646Y-78296853D01*
X261936147Y-78171354D01*
X261837544Y-78023784D01*
X261769624Y-77859812D01*
X261735000Y-77685741D01*
X261735000Y-77508259D01*
X261769624Y-77334188D01*
X261837544Y-77170216D01*
X261936147Y-77022646D01*
X262061646Y-76897147D01*
X262209216Y-76798544D01*
X262373188Y-76730624D01*
X262522488Y-76700927D01*
X262547258Y-76696000D01*
X262724742Y-76696000D01*
X262749512Y-76700927D01*
G37*
G36*
X265289512Y-76700927D02*
G01*
X265438812Y-76730624D01*
X265602784Y-76798544D01*
X265750354Y-76897147D01*
X265875853Y-77022646D01*
X265974456Y-77170216D01*
X266042376Y-77334188D01*
X266077000Y-77508259D01*
X266077000Y-77685741D01*
X266042376Y-77859812D01*
X265974456Y-78023784D01*
X265875853Y-78171354D01*
X265750354Y-78296853D01*
X265602784Y-78395456D01*
X265438812Y-78463376D01*
X265289512Y-78493073D01*
X265264742Y-78498000D01*
X265087258Y-78498000D01*
X265062488Y-78493073D01*
X264913188Y-78463376D01*
X264749216Y-78395456D01*
X264601646Y-78296853D01*
X264476147Y-78171354D01*
X264377544Y-78023784D01*
X264309624Y-77859812D01*
X264275000Y-77685741D01*
X264275000Y-77508259D01*
X264309624Y-77334188D01*
X264377544Y-77170216D01*
X264476147Y-77022646D01*
X264601646Y-76897147D01*
X264749216Y-76798544D01*
X264913188Y-76730624D01*
X265062488Y-76700927D01*
X265087258Y-76696000D01*
X265264742Y-76696000D01*
X265289512Y-76700927D01*
G37*
M02*
