G04 #@! TF.GenerationSoftware,KiCad,Pcbnew,(5.1.5)-3*
G04 #@! TF.CreationDate,2020-07-15T05:41:28-07:00*
G04 #@! TF.ProjectId,pcb,7063622e-6b69-4636-9164-5f7063625858,rev?*
G04 #@! TF.SameCoordinates,Original*
G04 #@! TF.FileFunction,Soldermask,Top*
G04 #@! TF.FilePolarity,Negative*
%FSLAX46Y46*%
G04 Gerber Fmt 4.6, Leading zero omitted, Abs format (unit mm)*
G04 Created by KiCad (PCBNEW (5.1.5)-3) date 2020-07-15 05:41:28*
%MOMM*%
%LPD*%
G04 APERTURE LIST*
%ADD10C,0.000100*%
%ADD11C,0.100000*%
G04 APERTURE END LIST*
D10*
G36*
X26938000Y-107308200D02*
G01*
X26938000Y-105908200D01*
X28688000Y-105908200D01*
X28688000Y-107308200D01*
X28687315Y-107334368D01*
X28685261Y-107360464D01*
X28681844Y-107386417D01*
X28677074Y-107412156D01*
X28670963Y-107437610D01*
X28663528Y-107462708D01*
X28654790Y-107487384D01*
X28644773Y-107511568D01*
X28633503Y-107535195D01*
X28621013Y-107558200D01*
X28607335Y-107580520D01*
X28592508Y-107602093D01*
X28576573Y-107622860D01*
X28559572Y-107642765D01*
X28541553Y-107661753D01*
X28522565Y-107679772D01*
X28502660Y-107696773D01*
X28481893Y-107712708D01*
X28460320Y-107727535D01*
X28438000Y-107741213D01*
X28414995Y-107753703D01*
X28391368Y-107764973D01*
X28367184Y-107774990D01*
X28342508Y-107783728D01*
X28317410Y-107791163D01*
X28291956Y-107797274D01*
X28266217Y-107802044D01*
X28240264Y-107805461D01*
X28214168Y-107807515D01*
X28188000Y-107808200D01*
X27438000Y-107808200D01*
X27411832Y-107807515D01*
X27385736Y-107805461D01*
X27359783Y-107802044D01*
X27334044Y-107797274D01*
X27308590Y-107791163D01*
X27283492Y-107783728D01*
X27258816Y-107774990D01*
X27234632Y-107764973D01*
X27211005Y-107753703D01*
X27188000Y-107741213D01*
X27165680Y-107727535D01*
X27144107Y-107712708D01*
X27123340Y-107696773D01*
X27103435Y-107679772D01*
X27084447Y-107661753D01*
X27066428Y-107642765D01*
X27049427Y-107622860D01*
X27033492Y-107602093D01*
X27018665Y-107580520D01*
X27004987Y-107558200D01*
X26992497Y-107535195D01*
X26981227Y-107511568D01*
X26971210Y-107487384D01*
X26962472Y-107462708D01*
X26955037Y-107437610D01*
X26948926Y-107412156D01*
X26944156Y-107386417D01*
X26940739Y-107360464D01*
X26938685Y-107334368D01*
X26938000Y-107308200D01*
G37*
X26938000Y-107308200D02*
X26938000Y-105908200D01*
X28688000Y-105908200D01*
X28688000Y-107308200D01*
X28687315Y-107334368D01*
X28685261Y-107360464D01*
X28681844Y-107386417D01*
X28677074Y-107412156D01*
X28670963Y-107437610D01*
X28663528Y-107462708D01*
X28654790Y-107487384D01*
X28644773Y-107511568D01*
X28633503Y-107535195D01*
X28621013Y-107558200D01*
X28607335Y-107580520D01*
X28592508Y-107602093D01*
X28576573Y-107622860D01*
X28559572Y-107642765D01*
X28541553Y-107661753D01*
X28522565Y-107679772D01*
X28502660Y-107696773D01*
X28481893Y-107712708D01*
X28460320Y-107727535D01*
X28438000Y-107741213D01*
X28414995Y-107753703D01*
X28391368Y-107764973D01*
X28367184Y-107774990D01*
X28342508Y-107783728D01*
X28317410Y-107791163D01*
X28291956Y-107797274D01*
X28266217Y-107802044D01*
X28240264Y-107805461D01*
X28214168Y-107807515D01*
X28188000Y-107808200D01*
X27438000Y-107808200D01*
X27411832Y-107807515D01*
X27385736Y-107805461D01*
X27359783Y-107802044D01*
X27334044Y-107797274D01*
X27308590Y-107791163D01*
X27283492Y-107783728D01*
X27258816Y-107774990D01*
X27234632Y-107764973D01*
X27211005Y-107753703D01*
X27188000Y-107741213D01*
X27165680Y-107727535D01*
X27144107Y-107712708D01*
X27123340Y-107696773D01*
X27103435Y-107679772D01*
X27084447Y-107661753D01*
X27066428Y-107642765D01*
X27049427Y-107622860D01*
X27033492Y-107602093D01*
X27018665Y-107580520D01*
X27004987Y-107558200D01*
X26992497Y-107535195D01*
X26981227Y-107511568D01*
X26971210Y-107487384D01*
X26962472Y-107462708D01*
X26955037Y-107437610D01*
X26948926Y-107412156D01*
X26944156Y-107386417D01*
X26940739Y-107360464D01*
X26938685Y-107334368D01*
X26938000Y-107308200D01*
G36*
X28688000Y-100108200D02*
G01*
X28688000Y-101508200D01*
X26938000Y-101508200D01*
X26938000Y-100108200D01*
X26938685Y-100082032D01*
X26940739Y-100055936D01*
X26944156Y-100029983D01*
X26948926Y-100004244D01*
X26955037Y-99978790D01*
X26962472Y-99953692D01*
X26971210Y-99929016D01*
X26981227Y-99904832D01*
X26992497Y-99881205D01*
X27004987Y-99858200D01*
X27018665Y-99835880D01*
X27033492Y-99814307D01*
X27049427Y-99793540D01*
X27066428Y-99773635D01*
X27084447Y-99754647D01*
X27103435Y-99736628D01*
X27123340Y-99719627D01*
X27144107Y-99703692D01*
X27165680Y-99688865D01*
X27188000Y-99675187D01*
X27211005Y-99662697D01*
X27234632Y-99651427D01*
X27258816Y-99641410D01*
X27283492Y-99632672D01*
X27308590Y-99625237D01*
X27334044Y-99619126D01*
X27359783Y-99614356D01*
X27385736Y-99610939D01*
X27411832Y-99608885D01*
X27438000Y-99608200D01*
X28188000Y-99608200D01*
X28214168Y-99608885D01*
X28240264Y-99610939D01*
X28266217Y-99614356D01*
X28291956Y-99619126D01*
X28317410Y-99625237D01*
X28342508Y-99632672D01*
X28367184Y-99641410D01*
X28391368Y-99651427D01*
X28414995Y-99662697D01*
X28438000Y-99675187D01*
X28460320Y-99688865D01*
X28481893Y-99703692D01*
X28502660Y-99719627D01*
X28522565Y-99736628D01*
X28541553Y-99754647D01*
X28559572Y-99773635D01*
X28576573Y-99793540D01*
X28592508Y-99814307D01*
X28607335Y-99835880D01*
X28621013Y-99858200D01*
X28633503Y-99881205D01*
X28644773Y-99904832D01*
X28654790Y-99929016D01*
X28663528Y-99953692D01*
X28670963Y-99978790D01*
X28677074Y-100004244D01*
X28681844Y-100029983D01*
X28685261Y-100055936D01*
X28687315Y-100082032D01*
X28688000Y-100108200D01*
G37*
X28688000Y-100108200D02*
X28688000Y-101508200D01*
X26938000Y-101508200D01*
X26938000Y-100108200D01*
X26938685Y-100082032D01*
X26940739Y-100055936D01*
X26944156Y-100029983D01*
X26948926Y-100004244D01*
X26955037Y-99978790D01*
X26962472Y-99953692D01*
X26971210Y-99929016D01*
X26981227Y-99904832D01*
X26992497Y-99881205D01*
X27004987Y-99858200D01*
X27018665Y-99835880D01*
X27033492Y-99814307D01*
X27049427Y-99793540D01*
X27066428Y-99773635D01*
X27084447Y-99754647D01*
X27103435Y-99736628D01*
X27123340Y-99719627D01*
X27144107Y-99703692D01*
X27165680Y-99688865D01*
X27188000Y-99675187D01*
X27211005Y-99662697D01*
X27234632Y-99651427D01*
X27258816Y-99641410D01*
X27283492Y-99632672D01*
X27308590Y-99625237D01*
X27334044Y-99619126D01*
X27359783Y-99614356D01*
X27385736Y-99610939D01*
X27411832Y-99608885D01*
X27438000Y-99608200D01*
X28188000Y-99608200D01*
X28214168Y-99608885D01*
X28240264Y-99610939D01*
X28266217Y-99614356D01*
X28291956Y-99619126D01*
X28317410Y-99625237D01*
X28342508Y-99632672D01*
X28367184Y-99641410D01*
X28391368Y-99651427D01*
X28414995Y-99662697D01*
X28438000Y-99675187D01*
X28460320Y-99688865D01*
X28481893Y-99703692D01*
X28502660Y-99719627D01*
X28522565Y-99736628D01*
X28541553Y-99754647D01*
X28559572Y-99773635D01*
X28576573Y-99793540D01*
X28592508Y-99814307D01*
X28607335Y-99835880D01*
X28621013Y-99858200D01*
X28633503Y-99881205D01*
X28644773Y-99904832D01*
X28654790Y-99929016D01*
X28663528Y-99953692D01*
X28670963Y-99978790D01*
X28677074Y-100004244D01*
X28681844Y-100029983D01*
X28685261Y-100055936D01*
X28687315Y-100082032D01*
X28688000Y-100108200D01*
D11*
G36*
X33190000Y-116419000D02*
G01*
X32088000Y-116419000D01*
X32088000Y-113167000D01*
X33190000Y-113167000D01*
X33190000Y-116419000D01*
G37*
G36*
X35730000Y-116419000D02*
G01*
X34628000Y-116419000D01*
X34628000Y-113167000D01*
X35730000Y-113167000D01*
X35730000Y-116419000D01*
G37*
G36*
X38270000Y-116419000D02*
G01*
X37168000Y-116419000D01*
X37168000Y-113167000D01*
X38270000Y-113167000D01*
X38270000Y-116419000D01*
G37*
G36*
X269822890Y-114341619D02*
G01*
X269887289Y-114354429D01*
X270069278Y-114429811D01*
X270233063Y-114539249D01*
X270372351Y-114678537D01*
X270481789Y-114842322D01*
X270557171Y-115024311D01*
X270557171Y-115024312D01*
X270595600Y-115217507D01*
X270595600Y-115414493D01*
X270569981Y-115543290D01*
X270557171Y-115607689D01*
X270481789Y-115789678D01*
X270372351Y-115953463D01*
X270233063Y-116092751D01*
X270069278Y-116202189D01*
X269887289Y-116277571D01*
X269822890Y-116290381D01*
X269694093Y-116316000D01*
X269497107Y-116316000D01*
X269368310Y-116290381D01*
X269303911Y-116277571D01*
X269121922Y-116202189D01*
X268958137Y-116092751D01*
X268818849Y-115953463D01*
X268709411Y-115789678D01*
X268634029Y-115607689D01*
X268621219Y-115543290D01*
X268595600Y-115414493D01*
X268595600Y-115217507D01*
X268634029Y-115024312D01*
X268634029Y-115024311D01*
X268709411Y-114842322D01*
X268818849Y-114678537D01*
X268958137Y-114539249D01*
X269121922Y-114429811D01*
X269303911Y-114354429D01*
X269368310Y-114341619D01*
X269497107Y-114316000D01*
X269694093Y-114316000D01*
X269822890Y-114341619D01*
G37*
G36*
X265289512Y-114165927D02*
G01*
X265438812Y-114195624D01*
X265602784Y-114263544D01*
X265750354Y-114362147D01*
X265875853Y-114487646D01*
X265974456Y-114635216D01*
X266042376Y-114799188D01*
X266077000Y-114973259D01*
X266077000Y-115150741D01*
X266042376Y-115324812D01*
X265974456Y-115488784D01*
X265875853Y-115636354D01*
X265750354Y-115761853D01*
X265602784Y-115860456D01*
X265438812Y-115928376D01*
X265289512Y-115958073D01*
X265264742Y-115963000D01*
X265087258Y-115963000D01*
X265062488Y-115958073D01*
X264913188Y-115928376D01*
X264749216Y-115860456D01*
X264601646Y-115761853D01*
X264476147Y-115636354D01*
X264377544Y-115488784D01*
X264309624Y-115324812D01*
X264275000Y-115150741D01*
X264275000Y-114973259D01*
X264309624Y-114799188D01*
X264377544Y-114635216D01*
X264476147Y-114487646D01*
X264601646Y-114362147D01*
X264749216Y-114263544D01*
X264913188Y-114195624D01*
X265062488Y-114165927D01*
X265087258Y-114161000D01*
X265264742Y-114161000D01*
X265289512Y-114165927D01*
G37*
G36*
X260209512Y-114165927D02*
G01*
X260358812Y-114195624D01*
X260522784Y-114263544D01*
X260670354Y-114362147D01*
X260795853Y-114487646D01*
X260894456Y-114635216D01*
X260962376Y-114799188D01*
X260997000Y-114973259D01*
X260997000Y-115150741D01*
X260962376Y-115324812D01*
X260894456Y-115488784D01*
X260795853Y-115636354D01*
X260670354Y-115761853D01*
X260522784Y-115860456D01*
X260358812Y-115928376D01*
X260209512Y-115958073D01*
X260184742Y-115963000D01*
X260007258Y-115963000D01*
X259982488Y-115958073D01*
X259833188Y-115928376D01*
X259669216Y-115860456D01*
X259521646Y-115761853D01*
X259396147Y-115636354D01*
X259297544Y-115488784D01*
X259229624Y-115324812D01*
X259195000Y-115150741D01*
X259195000Y-114973259D01*
X259229624Y-114799188D01*
X259297544Y-114635216D01*
X259396147Y-114487646D01*
X259521646Y-114362147D01*
X259669216Y-114263544D01*
X259833188Y-114195624D01*
X259982488Y-114165927D01*
X260007258Y-114161000D01*
X260184742Y-114161000D01*
X260209512Y-114165927D01*
G37*
G36*
X258368600Y-114036001D02*
G01*
X258371002Y-114060387D01*
X258378115Y-114083836D01*
X258389666Y-114105447D01*
X258405211Y-114124389D01*
X258424153Y-114139934D01*
X258445764Y-114151485D01*
X258457000Y-114154893D01*
X258457000Y-115963000D01*
X256655000Y-115963000D01*
X256655000Y-114159680D01*
X256665987Y-114158598D01*
X256689436Y-114151485D01*
X256711047Y-114139934D01*
X256729989Y-114124389D01*
X256745534Y-114105447D01*
X256757085Y-114083836D01*
X256764198Y-114060387D01*
X256766600Y-114036001D01*
X256766600Y-112923300D01*
X258368600Y-112923300D01*
X258368600Y-114036001D01*
G37*
G36*
X263120600Y-114025300D02*
G01*
X263116023Y-114025300D01*
X263091637Y-114027702D01*
X263068188Y-114034815D01*
X263046577Y-114046366D01*
X263027635Y-114061911D01*
X263012090Y-114080853D01*
X263000539Y-114102464D01*
X262993426Y-114125913D01*
X262991024Y-114150299D01*
X262993426Y-114174685D01*
X263000539Y-114198134D01*
X263012090Y-114219745D01*
X263027635Y-114238687D01*
X263046577Y-114254232D01*
X263057918Y-114260294D01*
X263062779Y-114263542D01*
X263062784Y-114263544D01*
X263210354Y-114362147D01*
X263335853Y-114487646D01*
X263434456Y-114635216D01*
X263502376Y-114799188D01*
X263537000Y-114973259D01*
X263537000Y-115150741D01*
X263502376Y-115324812D01*
X263434456Y-115488784D01*
X263335853Y-115636354D01*
X263210354Y-115761853D01*
X263062784Y-115860456D01*
X262898812Y-115928376D01*
X262749512Y-115958073D01*
X262724742Y-115963000D01*
X262547258Y-115963000D01*
X262522488Y-115958073D01*
X262373188Y-115928376D01*
X262209216Y-115860456D01*
X262061646Y-115761853D01*
X261936147Y-115636354D01*
X261837544Y-115488784D01*
X261769624Y-115324812D01*
X261735000Y-115150741D01*
X261735000Y-114973259D01*
X261769624Y-114799188D01*
X261837544Y-114635216D01*
X261936147Y-114487646D01*
X262061646Y-114362147D01*
X262209216Y-114263544D01*
X262209220Y-114263542D01*
X262214086Y-114260291D01*
X262225425Y-114254230D01*
X262244366Y-114238685D01*
X262259911Y-114219743D01*
X262271462Y-114198132D01*
X262278575Y-114174683D01*
X262280976Y-114150296D01*
X262278574Y-114125910D01*
X262271460Y-114102462D01*
X262259908Y-114080851D01*
X262244363Y-114061910D01*
X262225421Y-114046365D01*
X262203810Y-114034814D01*
X262180361Y-114027701D01*
X262155977Y-114025300D01*
X261518600Y-114025300D01*
X261518600Y-112923300D01*
X263120600Y-112923300D01*
X263120600Y-114025300D01*
G37*
G36*
X29818290Y-113452619D02*
G01*
X29882689Y-113465429D01*
X30064678Y-113540811D01*
X30228463Y-113650249D01*
X30367751Y-113789537D01*
X30477189Y-113953322D01*
X30552571Y-114135311D01*
X30555552Y-114150296D01*
X30591000Y-114328507D01*
X30591000Y-114525493D01*
X30569175Y-114635216D01*
X30552571Y-114718689D01*
X30477189Y-114900678D01*
X30367751Y-115064463D01*
X30228463Y-115203751D01*
X30064678Y-115313189D01*
X29882689Y-115388571D01*
X29818290Y-115401381D01*
X29689493Y-115427000D01*
X29492507Y-115427000D01*
X29363710Y-115401381D01*
X29299311Y-115388571D01*
X29117322Y-115313189D01*
X28953537Y-115203751D01*
X28814249Y-115064463D01*
X28704811Y-114900678D01*
X28629429Y-114718689D01*
X28612825Y-114635216D01*
X28591000Y-114525493D01*
X28591000Y-114328507D01*
X28626448Y-114150296D01*
X28629429Y-114135311D01*
X28704811Y-113953322D01*
X28814249Y-113789537D01*
X28953537Y-113650249D01*
X29117322Y-113540811D01*
X29299311Y-113465429D01*
X29363710Y-113452619D01*
X29492507Y-113427000D01*
X29689493Y-113427000D01*
X29818290Y-113452619D01*
G37*
G36*
X229412600Y-114025300D02*
G01*
X227810600Y-114025300D01*
X227810600Y-112923300D01*
X229412600Y-112923300D01*
X229412600Y-114025300D01*
G37*
G36*
X224512600Y-114025300D02*
G01*
X222910600Y-114025300D01*
X222910600Y-112923300D01*
X224512600Y-112923300D01*
X224512600Y-114025300D01*
G37*
G36*
X219760600Y-114025300D02*
G01*
X218158600Y-114025300D01*
X218158600Y-112923300D01*
X219760600Y-112923300D01*
X219760600Y-114025300D01*
G37*
G36*
X214860600Y-114025300D02*
G01*
X213258600Y-114025300D01*
X213258600Y-112923300D01*
X214860600Y-112923300D01*
X214860600Y-114025300D01*
G37*
G36*
X210108600Y-114025300D02*
G01*
X208506600Y-114025300D01*
X208506600Y-112923300D01*
X210108600Y-112923300D01*
X210108600Y-114025300D01*
G37*
G36*
X205208600Y-114025300D02*
G01*
X203606600Y-114025300D01*
X203606600Y-112923300D01*
X205208600Y-112923300D01*
X205208600Y-114025300D01*
G37*
G36*
X200456600Y-114025300D02*
G01*
X198854600Y-114025300D01*
X198854600Y-112923300D01*
X200456600Y-112923300D01*
X200456600Y-114025300D01*
G37*
G36*
X195556600Y-114025300D02*
G01*
X193954600Y-114025300D01*
X193954600Y-112923300D01*
X195556600Y-112923300D01*
X195556600Y-114025300D01*
G37*
G36*
X190804600Y-114025300D02*
G01*
X189202600Y-114025300D01*
X189202600Y-112923300D01*
X190804600Y-112923300D01*
X190804600Y-114025300D01*
G37*
G36*
X185904600Y-114025300D02*
G01*
X184302600Y-114025300D01*
X184302600Y-112923300D01*
X185904600Y-112923300D01*
X185904600Y-114025300D01*
G37*
G36*
X243816600Y-114025300D02*
G01*
X242214600Y-114025300D01*
X242214600Y-112923300D01*
X243816600Y-112923300D01*
X243816600Y-114025300D01*
G37*
G36*
X176252600Y-114025300D02*
G01*
X174650600Y-114025300D01*
X174650600Y-112923300D01*
X176252600Y-112923300D01*
X176252600Y-114025300D01*
G37*
G36*
X171500600Y-114025300D02*
G01*
X169898600Y-114025300D01*
X169898600Y-112923300D01*
X171500600Y-112923300D01*
X171500600Y-114025300D01*
G37*
G36*
X166600600Y-114025300D02*
G01*
X164998600Y-114025300D01*
X164998600Y-112923300D01*
X166600600Y-112923300D01*
X166600600Y-114025300D01*
G37*
G36*
X161848600Y-114025300D02*
G01*
X160246600Y-114025300D01*
X160246600Y-112923300D01*
X161848600Y-112923300D01*
X161848600Y-114025300D01*
G37*
G36*
X156948600Y-114025300D02*
G01*
X155346600Y-114025300D01*
X155346600Y-112923300D01*
X156948600Y-112923300D01*
X156948600Y-114025300D01*
G37*
G36*
X41124600Y-114025300D02*
G01*
X39522600Y-114025300D01*
X39522600Y-112923300D01*
X41124600Y-112923300D01*
X41124600Y-114025300D01*
G37*
G36*
X46024600Y-114025300D02*
G01*
X44422600Y-114025300D01*
X44422600Y-112923300D01*
X46024600Y-112923300D01*
X46024600Y-114025300D01*
G37*
G36*
X55676600Y-114025300D02*
G01*
X54074600Y-114025300D01*
X54074600Y-112923300D01*
X55676600Y-112923300D01*
X55676600Y-114025300D01*
G37*
G36*
X50776600Y-114025300D02*
G01*
X49174600Y-114025300D01*
X49174600Y-112923300D01*
X50776600Y-112923300D01*
X50776600Y-114025300D01*
G37*
G36*
X65328600Y-114025300D02*
G01*
X63726600Y-114025300D01*
X63726600Y-112923300D01*
X65328600Y-112923300D01*
X65328600Y-114025300D01*
G37*
G36*
X60428600Y-114025300D02*
G01*
X58826600Y-114025300D01*
X58826600Y-112923300D01*
X60428600Y-112923300D01*
X60428600Y-114025300D01*
G37*
G36*
X74980600Y-114025300D02*
G01*
X73378600Y-114025300D01*
X73378600Y-112923300D01*
X74980600Y-112923300D01*
X74980600Y-114025300D01*
G37*
G36*
X253468600Y-114025300D02*
G01*
X251866600Y-114025300D01*
X251866600Y-112923300D01*
X253468600Y-112923300D01*
X253468600Y-114025300D01*
G37*
G36*
X239064600Y-114025300D02*
G01*
X237462600Y-114025300D01*
X237462600Y-112923300D01*
X239064600Y-112923300D01*
X239064600Y-114025300D01*
G37*
G36*
X142544600Y-114025300D02*
G01*
X140942600Y-114025300D01*
X140942600Y-112923300D01*
X142544600Y-112923300D01*
X142544600Y-114025300D01*
G37*
G36*
X84632600Y-114025300D02*
G01*
X83030600Y-114025300D01*
X83030600Y-112923300D01*
X84632600Y-112923300D01*
X84632600Y-114025300D01*
G37*
G36*
X79732600Y-114025300D02*
G01*
X78130600Y-114025300D01*
X78130600Y-112923300D01*
X79732600Y-112923300D01*
X79732600Y-114025300D01*
G37*
G36*
X94284600Y-114025300D02*
G01*
X92682600Y-114025300D01*
X92682600Y-112923300D01*
X94284600Y-112923300D01*
X94284600Y-114025300D01*
G37*
G36*
X89384600Y-114025300D02*
G01*
X87782600Y-114025300D01*
X87782600Y-112923300D01*
X89384600Y-112923300D01*
X89384600Y-114025300D01*
G37*
G36*
X103936600Y-114025300D02*
G01*
X102334600Y-114025300D01*
X102334600Y-112923300D01*
X103936600Y-112923300D01*
X103936600Y-114025300D01*
G37*
G36*
X99036600Y-114025300D02*
G01*
X97434600Y-114025300D01*
X97434600Y-112923300D01*
X99036600Y-112923300D01*
X99036600Y-114025300D01*
G37*
G36*
X113588600Y-114025300D02*
G01*
X111986600Y-114025300D01*
X111986600Y-112923300D01*
X113588600Y-112923300D01*
X113588600Y-114025300D01*
G37*
G36*
X108688600Y-114025300D02*
G01*
X107086600Y-114025300D01*
X107086600Y-112923300D01*
X108688600Y-112923300D01*
X108688600Y-114025300D01*
G37*
G36*
X123240600Y-114025300D02*
G01*
X121638600Y-114025300D01*
X121638600Y-112923300D01*
X123240600Y-112923300D01*
X123240600Y-114025300D01*
G37*
G36*
X118340600Y-114025300D02*
G01*
X116738600Y-114025300D01*
X116738600Y-112923300D01*
X118340600Y-112923300D01*
X118340600Y-114025300D01*
G37*
G36*
X132892600Y-114025300D02*
G01*
X131290600Y-114025300D01*
X131290600Y-112923300D01*
X132892600Y-112923300D01*
X132892600Y-114025300D01*
G37*
G36*
X127992600Y-114025300D02*
G01*
X126390600Y-114025300D01*
X126390600Y-112923300D01*
X127992600Y-112923300D01*
X127992600Y-114025300D01*
G37*
G36*
X70080600Y-114025300D02*
G01*
X68478600Y-114025300D01*
X68478600Y-112923300D01*
X70080600Y-112923300D01*
X70080600Y-114025300D01*
G37*
G36*
X137644600Y-114025300D02*
G01*
X136042600Y-114025300D01*
X136042600Y-112923300D01*
X137644600Y-112923300D01*
X137644600Y-114025300D01*
G37*
G36*
X152196600Y-114025300D02*
G01*
X150594600Y-114025300D01*
X150594600Y-112923300D01*
X152196600Y-112923300D01*
X152196600Y-114025300D01*
G37*
G36*
X147296600Y-114025300D02*
G01*
X145694600Y-114025300D01*
X145694600Y-112923300D01*
X147296600Y-112923300D01*
X147296600Y-114025300D01*
G37*
G36*
X248716600Y-114025300D02*
G01*
X247114600Y-114025300D01*
X247114600Y-112923300D01*
X248716600Y-112923300D01*
X248716600Y-114025300D01*
G37*
G36*
X268020600Y-114025300D02*
G01*
X266418600Y-114025300D01*
X266418600Y-112923300D01*
X268020600Y-112923300D01*
X268020600Y-114025300D01*
G37*
G36*
X272772600Y-114025300D02*
G01*
X271170600Y-114025300D01*
X271170600Y-112923300D01*
X272772600Y-112923300D01*
X272772600Y-114025300D01*
G37*
G36*
X277672600Y-114025300D02*
G01*
X276070600Y-114025300D01*
X276070600Y-112923300D01*
X277672600Y-112923300D01*
X277672600Y-114025300D01*
G37*
G36*
X181152600Y-114025300D02*
G01*
X179550600Y-114025300D01*
X179550600Y-112923300D01*
X181152600Y-112923300D01*
X181152600Y-114025300D01*
G37*
G36*
X234164600Y-114025300D02*
G01*
X232562600Y-114025300D01*
X232562600Y-112923300D01*
X234164600Y-112923300D01*
X234164600Y-114025300D01*
G37*
G36*
X154381468Y-112339065D02*
G01*
X154420138Y-112350796D01*
X154455777Y-112369846D01*
X154487017Y-112395483D01*
X154512654Y-112426723D01*
X154531704Y-112462362D01*
X154543435Y-112501032D01*
X154548000Y-112547388D01*
X154548000Y-113198612D01*
X154543435Y-113244968D01*
X154531704Y-113283638D01*
X154512654Y-113319277D01*
X154487017Y-113350517D01*
X154455777Y-113376154D01*
X154420138Y-113395204D01*
X154381468Y-113406935D01*
X154335112Y-113411500D01*
X153258888Y-113411500D01*
X153212532Y-113406935D01*
X153173862Y-113395204D01*
X153138223Y-113376154D01*
X153106983Y-113350517D01*
X153081346Y-113319277D01*
X153062296Y-113283638D01*
X153050565Y-113244968D01*
X153046000Y-113198612D01*
X153046000Y-112547388D01*
X153050565Y-112501032D01*
X153062296Y-112462362D01*
X153081346Y-112426723D01*
X153106983Y-112395483D01*
X153138223Y-112369846D01*
X153173862Y-112350796D01*
X153212532Y-112339065D01*
X153258888Y-112334500D01*
X154335112Y-112334500D01*
X154381468Y-112339065D01*
G37*
G36*
X30571000Y-112014000D02*
G01*
X29269000Y-112014000D01*
X29269000Y-110712000D01*
X30571000Y-110712000D01*
X30571000Y-112014000D01*
G37*
G36*
X154381468Y-110464065D02*
G01*
X154420138Y-110475796D01*
X154455777Y-110494846D01*
X154487017Y-110520483D01*
X154512654Y-110551723D01*
X154531704Y-110587362D01*
X154543435Y-110626032D01*
X154548000Y-110672388D01*
X154548000Y-111323612D01*
X154543435Y-111369968D01*
X154531704Y-111408638D01*
X154512654Y-111444277D01*
X154487017Y-111475517D01*
X154455777Y-111501154D01*
X154420138Y-111520204D01*
X154381468Y-111531935D01*
X154335112Y-111536500D01*
X153258888Y-111536500D01*
X153212532Y-111531935D01*
X153173862Y-111520204D01*
X153138223Y-111501154D01*
X153106983Y-111475517D01*
X153081346Y-111444277D01*
X153062296Y-111408638D01*
X153050565Y-111369968D01*
X153046000Y-111323612D01*
X153046000Y-110672388D01*
X153050565Y-110626032D01*
X153062296Y-110587362D01*
X153081346Y-110551723D01*
X153106983Y-110520483D01*
X153138223Y-110494846D01*
X153173862Y-110475796D01*
X153212532Y-110464065D01*
X153258888Y-110459500D01*
X154335112Y-110459500D01*
X154381468Y-110464065D01*
G37*
G36*
X35730000Y-111369000D02*
G01*
X34628000Y-111369000D01*
X34628000Y-108117000D01*
X35730000Y-108117000D01*
X35730000Y-111369000D01*
G37*
G36*
X38270000Y-111369000D02*
G01*
X37168000Y-111369000D01*
X37168000Y-108117000D01*
X38270000Y-108117000D01*
X38270000Y-111369000D01*
G37*
G36*
X33190000Y-111369000D02*
G01*
X32088000Y-111369000D01*
X32088000Y-108117000D01*
X33190000Y-108117000D01*
X33190000Y-111369000D01*
G37*
G36*
X27471000Y-111214000D02*
G01*
X25869000Y-111214000D01*
X25869000Y-109512000D01*
X27471000Y-109512000D01*
X27471000Y-111214000D01*
G37*
G36*
X60428600Y-110825300D02*
G01*
X58826600Y-110825300D01*
X58826600Y-109723300D01*
X60428600Y-109723300D01*
X60428600Y-110825300D01*
G37*
G36*
X74980600Y-110825300D02*
G01*
X73378600Y-110825300D01*
X73378600Y-109723300D01*
X74980600Y-109723300D01*
X74980600Y-110825300D01*
G37*
G36*
X152196600Y-110825300D02*
G01*
X150594600Y-110825300D01*
X150594600Y-109723300D01*
X152196600Y-109723300D01*
X152196600Y-110825300D01*
G37*
G36*
X248716600Y-110825300D02*
G01*
X247114600Y-110825300D01*
X247114600Y-109723300D01*
X248716600Y-109723300D01*
X248716600Y-110825300D01*
G37*
G36*
X214860600Y-110825300D02*
G01*
X213258600Y-110825300D01*
X213258600Y-109723300D01*
X214860600Y-109723300D01*
X214860600Y-110825300D01*
G37*
G36*
X219760600Y-110825300D02*
G01*
X218158600Y-110825300D01*
X218158600Y-109723300D01*
X219760600Y-109723300D01*
X219760600Y-110825300D01*
G37*
G36*
X224512600Y-110825300D02*
G01*
X222910600Y-110825300D01*
X222910600Y-109723300D01*
X224512600Y-109723300D01*
X224512600Y-110825300D01*
G37*
G36*
X229412600Y-110825300D02*
G01*
X227810600Y-110825300D01*
X227810600Y-109723300D01*
X229412600Y-109723300D01*
X229412600Y-110825300D01*
G37*
G36*
X234164600Y-110825300D02*
G01*
X232562600Y-110825300D01*
X232562600Y-109723300D01*
X234164600Y-109723300D01*
X234164600Y-110825300D01*
G37*
G36*
X239064600Y-110825300D02*
G01*
X237462600Y-110825300D01*
X237462600Y-109723300D01*
X239064600Y-109723300D01*
X239064600Y-110825300D01*
G37*
G36*
X243816600Y-110825300D02*
G01*
X242214600Y-110825300D01*
X242214600Y-109723300D01*
X243816600Y-109723300D01*
X243816600Y-110825300D01*
G37*
G36*
X89384600Y-110825300D02*
G01*
X87782600Y-110825300D01*
X87782600Y-109723300D01*
X89384600Y-109723300D01*
X89384600Y-110825300D01*
G37*
G36*
X263120600Y-110825300D02*
G01*
X261518600Y-110825300D01*
X261518600Y-109723300D01*
X263120600Y-109723300D01*
X263120600Y-110825300D01*
G37*
G36*
X268020600Y-110825300D02*
G01*
X266418600Y-110825300D01*
X266418600Y-109723300D01*
X268020600Y-109723300D01*
X268020600Y-110825300D01*
G37*
G36*
X272772600Y-110825300D02*
G01*
X271170600Y-110825300D01*
X271170600Y-109723300D01*
X272772600Y-109723300D01*
X272772600Y-110825300D01*
G37*
G36*
X277672600Y-110825300D02*
G01*
X276070600Y-110825300D01*
X276070600Y-109723300D01*
X277672600Y-109723300D01*
X277672600Y-110825300D01*
G37*
G36*
X210108600Y-110825300D02*
G01*
X208506600Y-110825300D01*
X208506600Y-109723300D01*
X210108600Y-109723300D01*
X210108600Y-110825300D01*
G37*
G36*
X70080600Y-110825300D02*
G01*
X68478600Y-110825300D01*
X68478600Y-109723300D01*
X70080600Y-109723300D01*
X70080600Y-110825300D01*
G37*
G36*
X205208600Y-110825300D02*
G01*
X203606600Y-110825300D01*
X203606600Y-109723300D01*
X205208600Y-109723300D01*
X205208600Y-110825300D01*
G37*
G36*
X79732600Y-110825300D02*
G01*
X78130600Y-110825300D01*
X78130600Y-109723300D01*
X79732600Y-109723300D01*
X79732600Y-110825300D01*
G37*
G36*
X195556600Y-110825300D02*
G01*
X193954600Y-110825300D01*
X193954600Y-109723300D01*
X195556600Y-109723300D01*
X195556600Y-110825300D01*
G37*
G36*
X84632600Y-110825300D02*
G01*
X83030600Y-110825300D01*
X83030600Y-109723300D01*
X84632600Y-109723300D01*
X84632600Y-110825300D01*
G37*
G36*
X190804600Y-110825300D02*
G01*
X189202600Y-110825300D01*
X189202600Y-109723300D01*
X190804600Y-109723300D01*
X190804600Y-110825300D01*
G37*
G36*
X253468600Y-110825300D02*
G01*
X251866600Y-110825300D01*
X251866600Y-109723300D01*
X253468600Y-109723300D01*
X253468600Y-110825300D01*
G37*
G36*
X258368600Y-110825300D02*
G01*
X256766600Y-110825300D01*
X256766600Y-109723300D01*
X258368600Y-109723300D01*
X258368600Y-110825300D01*
G37*
G36*
X65328600Y-110825300D02*
G01*
X63726600Y-110825300D01*
X63726600Y-109723300D01*
X65328600Y-109723300D01*
X65328600Y-110825300D01*
G37*
G36*
X108688600Y-110825300D02*
G01*
X107086600Y-110825300D01*
X107086600Y-109723300D01*
X108688600Y-109723300D01*
X108688600Y-110825300D01*
G37*
G36*
X156948600Y-110825300D02*
G01*
X155346600Y-110825300D01*
X155346600Y-109723300D01*
X156948600Y-109723300D01*
X156948600Y-110825300D01*
G37*
G36*
X118340600Y-110825300D02*
G01*
X116738600Y-110825300D01*
X116738600Y-109723300D01*
X118340600Y-109723300D01*
X118340600Y-110825300D01*
G37*
G36*
X161848600Y-110825300D02*
G01*
X160246600Y-110825300D01*
X160246600Y-109723300D01*
X161848600Y-109723300D01*
X161848600Y-110825300D01*
G37*
G36*
X113588600Y-110825300D02*
G01*
X111986600Y-110825300D01*
X111986600Y-109723300D01*
X113588600Y-109723300D01*
X113588600Y-110825300D01*
G37*
G36*
X166600600Y-110825300D02*
G01*
X164998600Y-110825300D01*
X164998600Y-109723300D01*
X166600600Y-109723300D01*
X166600600Y-110825300D01*
G37*
G36*
X185904600Y-110825300D02*
G01*
X184302600Y-110825300D01*
X184302600Y-109723300D01*
X185904600Y-109723300D01*
X185904600Y-110825300D01*
G37*
G36*
X171500600Y-110825300D02*
G01*
X169898600Y-110825300D01*
X169898600Y-109723300D01*
X171500600Y-109723300D01*
X171500600Y-110825300D01*
G37*
G36*
X103936600Y-110825300D02*
G01*
X102334600Y-110825300D01*
X102334600Y-109723300D01*
X103936600Y-109723300D01*
X103936600Y-110825300D01*
G37*
G36*
X176252600Y-110825300D02*
G01*
X174650600Y-110825300D01*
X174650600Y-109723300D01*
X176252600Y-109723300D01*
X176252600Y-110825300D01*
G37*
G36*
X99036600Y-110825300D02*
G01*
X97434600Y-110825300D01*
X97434600Y-109723300D01*
X99036600Y-109723300D01*
X99036600Y-110825300D01*
G37*
G36*
X181152600Y-110825300D02*
G01*
X179550600Y-110825300D01*
X179550600Y-109723300D01*
X181152600Y-109723300D01*
X181152600Y-110825300D01*
G37*
G36*
X200456600Y-110825300D02*
G01*
X198854600Y-110825300D01*
X198854600Y-109723300D01*
X200456600Y-109723300D01*
X200456600Y-110825300D01*
G37*
G36*
X147296600Y-110825300D02*
G01*
X145694600Y-110825300D01*
X145694600Y-109723300D01*
X147296600Y-109723300D01*
X147296600Y-110825300D01*
G37*
G36*
X142544600Y-110825300D02*
G01*
X140942600Y-110825300D01*
X140942600Y-109723300D01*
X142544600Y-109723300D01*
X142544600Y-110825300D01*
G37*
G36*
X50776600Y-110825300D02*
G01*
X49174600Y-110825300D01*
X49174600Y-109723300D01*
X50776600Y-109723300D01*
X50776600Y-110825300D01*
G37*
G36*
X137644600Y-110825300D02*
G01*
X136042600Y-110825300D01*
X136042600Y-109723300D01*
X137644600Y-109723300D01*
X137644600Y-110825300D01*
G37*
G36*
X55676600Y-110825300D02*
G01*
X54074600Y-110825300D01*
X54074600Y-109723300D01*
X55676600Y-109723300D01*
X55676600Y-110825300D01*
G37*
G36*
X132892600Y-110825300D02*
G01*
X131290600Y-110825300D01*
X131290600Y-109723300D01*
X132892600Y-109723300D01*
X132892600Y-110825300D01*
G37*
G36*
X127992600Y-110825300D02*
G01*
X126390600Y-110825300D01*
X126390600Y-109723300D01*
X127992600Y-109723300D01*
X127992600Y-110825300D01*
G37*
G36*
X46024600Y-110825300D02*
G01*
X44422600Y-110825300D01*
X44422600Y-109723300D01*
X46024600Y-109723300D01*
X46024600Y-110825300D01*
G37*
G36*
X123240600Y-110825300D02*
G01*
X121638600Y-110825300D01*
X121638600Y-109723300D01*
X123240600Y-109723300D01*
X123240600Y-110825300D01*
G37*
G36*
X41124600Y-110825300D02*
G01*
X39522600Y-110825300D01*
X39522600Y-109723300D01*
X41124600Y-109723300D01*
X41124600Y-110825300D01*
G37*
G36*
X94284600Y-110825300D02*
G01*
X92682600Y-110825300D01*
X92682600Y-109723300D01*
X94284600Y-109723300D01*
X94284600Y-110825300D01*
G37*
G36*
X30571000Y-110014000D02*
G01*
X29269000Y-110014000D01*
X29269000Y-108712000D01*
X30571000Y-108712000D01*
X30571000Y-110014000D01*
G37*
G36*
X35483000Y-107747000D02*
G01*
X34621000Y-107747000D01*
X34621000Y-106375000D01*
X35483000Y-106375000D01*
X35483000Y-107747000D01*
G37*
G36*
X36753000Y-107747000D02*
G01*
X35891000Y-107747000D01*
X35891000Y-106375000D01*
X36753000Y-106375000D01*
X36753000Y-107747000D01*
G37*
G36*
X38023000Y-107747000D02*
G01*
X37161000Y-107747000D01*
X37161000Y-106375000D01*
X38023000Y-106375000D01*
X38023000Y-107747000D01*
G37*
G36*
X34213000Y-107747000D02*
G01*
X33351000Y-107747000D01*
X33351000Y-106375000D01*
X34213000Y-106375000D01*
X34213000Y-107747000D01*
G37*
G36*
X28243511Y-106771815D02*
G01*
X28286461Y-106776045D01*
X28347612Y-106794595D01*
X28369122Y-106801120D01*
X28445295Y-106841836D01*
X28512067Y-106896633D01*
X28566864Y-106963405D01*
X28607580Y-107039578D01*
X28607581Y-107039582D01*
X28632655Y-107122239D01*
X28641121Y-107208200D01*
X28632655Y-107294161D01*
X28614105Y-107355312D01*
X28607580Y-107376822D01*
X28566864Y-107452995D01*
X28512067Y-107519767D01*
X28445295Y-107574564D01*
X28369122Y-107615280D01*
X28347612Y-107621805D01*
X28286461Y-107640355D01*
X28243511Y-107644585D01*
X28222037Y-107646700D01*
X27403963Y-107646700D01*
X27382489Y-107644585D01*
X27339539Y-107640355D01*
X27278388Y-107621805D01*
X27256878Y-107615280D01*
X27180705Y-107574564D01*
X27113933Y-107519767D01*
X27059136Y-107452995D01*
X27018420Y-107376822D01*
X27011895Y-107355312D01*
X26993345Y-107294161D01*
X26984879Y-107208200D01*
X26993345Y-107122239D01*
X27018419Y-107039582D01*
X27018420Y-107039578D01*
X27059136Y-106963405D01*
X27113933Y-106896633D01*
X27180705Y-106841836D01*
X27256878Y-106801120D01*
X27278388Y-106794595D01*
X27339539Y-106776045D01*
X27382489Y-106771815D01*
X27403963Y-106769700D01*
X28222037Y-106769700D01*
X28243511Y-106771815D01*
G37*
G36*
X278523000Y-107581000D02*
G01*
X276721000Y-107581000D01*
X276721000Y-105779000D01*
X278523000Y-105779000D01*
X278523000Y-107581000D01*
G37*
G36*
X30533512Y-105506796D02*
G01*
X30545646Y-105508596D01*
X30586710Y-105512640D01*
X30657585Y-105534140D01*
X30722904Y-105569054D01*
X30780159Y-105616041D01*
X30827146Y-105673296D01*
X30862060Y-105738615D01*
X30883560Y-105809490D01*
X30889000Y-105864728D01*
X30889000Y-106551672D01*
X30883560Y-106606910D01*
X30862060Y-106677785D01*
X30827146Y-106743104D01*
X30780159Y-106800359D01*
X30722906Y-106847345D01*
X30657583Y-106882260D01*
X30586709Y-106903760D01*
X30513000Y-106911019D01*
X30439290Y-106903760D01*
X30368415Y-106882260D01*
X30303096Y-106847346D01*
X30245841Y-106800359D01*
X30198855Y-106743106D01*
X30163940Y-106677783D01*
X30142440Y-106606909D01*
X30137000Y-106551671D01*
X30137001Y-105864728D01*
X30142441Y-105809490D01*
X30163941Y-105738615D01*
X30198855Y-105673296D01*
X30245842Y-105616041D01*
X30303097Y-105569054D01*
X30368416Y-105534140D01*
X30439291Y-105512640D01*
X30480355Y-105508596D01*
X30504388Y-105503816D01*
X30512547Y-105500436D01*
X30533512Y-105506796D01*
G37*
G36*
X28639000Y-105509200D02*
G01*
X26987000Y-105509200D01*
X26987000Y-103907200D01*
X28639000Y-103907200D01*
X28639000Y-105509200D01*
G37*
G36*
X30521612Y-102151818D02*
G01*
X30545645Y-102156598D01*
X30557897Y-102157200D01*
X31239000Y-102157200D01*
X31239000Y-105259200D01*
X30557898Y-105259200D01*
X30533512Y-105261602D01*
X30512547Y-105267962D01*
X30504388Y-105264582D01*
X30480355Y-105259802D01*
X30468103Y-105259200D01*
X29787000Y-105259200D01*
X29787000Y-102157200D01*
X30468102Y-102157200D01*
X30492488Y-102154798D01*
X30513453Y-102148438D01*
X30521612Y-102151818D01*
G37*
G36*
X272772600Y-103789100D02*
G01*
X271170600Y-103789100D01*
X271170600Y-102687100D01*
X272772600Y-102687100D01*
X272772600Y-103789100D01*
G37*
G36*
X210108600Y-103789100D02*
G01*
X208506600Y-103789100D01*
X208506600Y-102687100D01*
X210108600Y-102687100D01*
X210108600Y-103789100D01*
G37*
G36*
X268020600Y-103789100D02*
G01*
X266418600Y-103789100D01*
X266418600Y-102687100D01*
X268020600Y-102687100D01*
X268020600Y-103789100D01*
G37*
G36*
X263120600Y-103789100D02*
G01*
X261518600Y-103789100D01*
X261518600Y-102687100D01*
X263120600Y-102687100D01*
X263120600Y-103789100D01*
G37*
G36*
X253468600Y-103789100D02*
G01*
X251866600Y-103789100D01*
X251866600Y-102687100D01*
X253468600Y-102687100D01*
X253468600Y-103789100D01*
G37*
G36*
X248716600Y-103789100D02*
G01*
X247114600Y-103789100D01*
X247114600Y-102687100D01*
X248716600Y-102687100D01*
X248716600Y-103789100D01*
G37*
G36*
X243816600Y-103789100D02*
G01*
X242214600Y-103789100D01*
X242214600Y-102687100D01*
X243816600Y-102687100D01*
X243816600Y-103789100D01*
G37*
G36*
X239064600Y-103789100D02*
G01*
X237462600Y-103789100D01*
X237462600Y-102687100D01*
X239064600Y-102687100D01*
X239064600Y-103789100D01*
G37*
G36*
X234164600Y-103789100D02*
G01*
X232562600Y-103789100D01*
X232562600Y-102687100D01*
X234164600Y-102687100D01*
X234164600Y-103789100D01*
G37*
G36*
X176252600Y-103789100D02*
G01*
X174650600Y-103789100D01*
X174650600Y-102687100D01*
X176252600Y-102687100D01*
X176252600Y-103789100D01*
G37*
G36*
X229412600Y-103789100D02*
G01*
X227810600Y-103789100D01*
X227810600Y-102687100D01*
X229412600Y-102687100D01*
X229412600Y-103789100D01*
G37*
G36*
X224512600Y-103789100D02*
G01*
X222910600Y-103789100D01*
X222910600Y-102687100D01*
X224512600Y-102687100D01*
X224512600Y-103789100D01*
G37*
G36*
X219760600Y-103789100D02*
G01*
X218158600Y-103789100D01*
X218158600Y-102687100D01*
X219760600Y-102687100D01*
X219760600Y-103789100D01*
G37*
G36*
X214860600Y-103789100D02*
G01*
X213258600Y-103789100D01*
X213258600Y-102687100D01*
X214860600Y-102687100D01*
X214860600Y-103789100D01*
G37*
G36*
X205208600Y-103789100D02*
G01*
X203606600Y-103789100D01*
X203606600Y-102687100D01*
X205208600Y-102687100D01*
X205208600Y-103789100D01*
G37*
G36*
X200456600Y-103789100D02*
G01*
X198854600Y-103789100D01*
X198854600Y-102687100D01*
X200456600Y-102687100D01*
X200456600Y-103789100D01*
G37*
G36*
X195556600Y-103789100D02*
G01*
X193954600Y-103789100D01*
X193954600Y-102687100D01*
X195556600Y-102687100D01*
X195556600Y-103789100D01*
G37*
G36*
X190804600Y-103789100D02*
G01*
X189202600Y-103789100D01*
X189202600Y-102687100D01*
X190804600Y-102687100D01*
X190804600Y-103789100D01*
G37*
G36*
X185904600Y-103789100D02*
G01*
X184302600Y-103789100D01*
X184302600Y-102687100D01*
X185904600Y-102687100D01*
X185904600Y-103789100D01*
G37*
G36*
X181152600Y-103789100D02*
G01*
X179550600Y-103789100D01*
X179550600Y-102687100D01*
X181152600Y-102687100D01*
X181152600Y-103789100D01*
G37*
G36*
X55676600Y-103789100D02*
G01*
X54074600Y-103789100D01*
X54074600Y-102687100D01*
X55676600Y-102687100D01*
X55676600Y-103789100D01*
G37*
G36*
X60428600Y-103789100D02*
G01*
X58826600Y-103789100D01*
X58826600Y-102687100D01*
X60428600Y-102687100D01*
X60428600Y-103789100D01*
G37*
G36*
X50776600Y-103789100D02*
G01*
X49174600Y-103789100D01*
X49174600Y-102687100D01*
X50776600Y-102687100D01*
X50776600Y-103789100D01*
G37*
G36*
X46024600Y-103789100D02*
G01*
X44422600Y-103789100D01*
X44422600Y-102687100D01*
X46024600Y-102687100D01*
X46024600Y-103789100D01*
G37*
G36*
X41124600Y-103789100D02*
G01*
X39522600Y-103789100D01*
X39522600Y-102687100D01*
X41124600Y-102687100D01*
X41124600Y-103789100D01*
G37*
G36*
X123240600Y-103789100D02*
G01*
X121638600Y-103789100D01*
X121638600Y-102687100D01*
X123240600Y-102687100D01*
X123240600Y-103789100D01*
G37*
G36*
X277672600Y-103789100D02*
G01*
X276070600Y-103789100D01*
X276070600Y-102687100D01*
X277672600Y-102687100D01*
X277672600Y-103789100D01*
G37*
G36*
X65328600Y-103789100D02*
G01*
X63726600Y-103789100D01*
X63726600Y-102687100D01*
X65328600Y-102687100D01*
X65328600Y-103789100D01*
G37*
G36*
X171500600Y-103789100D02*
G01*
X169898600Y-103789100D01*
X169898600Y-102687100D01*
X171500600Y-102687100D01*
X171500600Y-103789100D01*
G37*
G36*
X166600600Y-103789100D02*
G01*
X164998600Y-103789100D01*
X164998600Y-102687100D01*
X166600600Y-102687100D01*
X166600600Y-103789100D01*
G37*
G36*
X161848600Y-103789100D02*
G01*
X160246600Y-103789100D01*
X160246600Y-102687100D01*
X161848600Y-102687100D01*
X161848600Y-103789100D01*
G37*
G36*
X156948600Y-103789100D02*
G01*
X155346600Y-103789100D01*
X155346600Y-102687100D01*
X156948600Y-102687100D01*
X156948600Y-103789100D01*
G37*
G36*
X152196600Y-103789100D02*
G01*
X150594600Y-103789100D01*
X150594600Y-102687100D01*
X152196600Y-102687100D01*
X152196600Y-103789100D01*
G37*
G36*
X147296600Y-103789100D02*
G01*
X145694600Y-103789100D01*
X145694600Y-102687100D01*
X147296600Y-102687100D01*
X147296600Y-103789100D01*
G37*
G36*
X142544600Y-103789100D02*
G01*
X140942600Y-103789100D01*
X140942600Y-102687100D01*
X142544600Y-102687100D01*
X142544600Y-103789100D01*
G37*
G36*
X137644600Y-103789100D02*
G01*
X136042600Y-103789100D01*
X136042600Y-102687100D01*
X137644600Y-102687100D01*
X137644600Y-103789100D01*
G37*
G36*
X132892600Y-103789100D02*
G01*
X131290600Y-103789100D01*
X131290600Y-102687100D01*
X132892600Y-102687100D01*
X132892600Y-103789100D01*
G37*
G36*
X127992600Y-103789100D02*
G01*
X126390600Y-103789100D01*
X126390600Y-102687100D01*
X127992600Y-102687100D01*
X127992600Y-103789100D01*
G37*
G36*
X118340600Y-103789100D02*
G01*
X116738600Y-103789100D01*
X116738600Y-102687100D01*
X118340600Y-102687100D01*
X118340600Y-103789100D01*
G37*
G36*
X113588600Y-103789100D02*
G01*
X111986600Y-103789100D01*
X111986600Y-102687100D01*
X113588600Y-102687100D01*
X113588600Y-103789100D01*
G37*
G36*
X108688600Y-103789100D02*
G01*
X107086600Y-103789100D01*
X107086600Y-102687100D01*
X108688600Y-102687100D01*
X108688600Y-103789100D01*
G37*
G36*
X103936600Y-103789100D02*
G01*
X102334600Y-103789100D01*
X102334600Y-102687100D01*
X103936600Y-102687100D01*
X103936600Y-103789100D01*
G37*
G36*
X99036600Y-103789100D02*
G01*
X97434600Y-103789100D01*
X97434600Y-102687100D01*
X99036600Y-102687100D01*
X99036600Y-103789100D01*
G37*
G36*
X94284600Y-103789100D02*
G01*
X92682600Y-103789100D01*
X92682600Y-102687100D01*
X94284600Y-102687100D01*
X94284600Y-103789100D01*
G37*
G36*
X89384600Y-103789100D02*
G01*
X87782600Y-103789100D01*
X87782600Y-102687100D01*
X89384600Y-102687100D01*
X89384600Y-103789100D01*
G37*
G36*
X84632600Y-103789100D02*
G01*
X83030600Y-103789100D01*
X83030600Y-102687100D01*
X84632600Y-102687100D01*
X84632600Y-103789100D01*
G37*
G36*
X79732600Y-103789100D02*
G01*
X78130600Y-103789100D01*
X78130600Y-102687100D01*
X79732600Y-102687100D01*
X79732600Y-103789100D01*
G37*
G36*
X74980600Y-103789100D02*
G01*
X73378600Y-103789100D01*
X73378600Y-102687100D01*
X74980600Y-102687100D01*
X74980600Y-103789100D01*
G37*
G36*
X70080600Y-103789100D02*
G01*
X68478600Y-103789100D01*
X68478600Y-102687100D01*
X70080600Y-102687100D01*
X70080600Y-103789100D01*
G37*
G36*
X258368600Y-103789100D02*
G01*
X256766600Y-103789100D01*
X256766600Y-102687100D01*
X258368600Y-102687100D01*
X258368600Y-103789100D01*
G37*
G36*
X28639000Y-103509200D02*
G01*
X26987000Y-103509200D01*
X26987000Y-101907200D01*
X28639000Y-101907200D01*
X28639000Y-103509200D01*
G37*
G36*
X154381468Y-102209065D02*
G01*
X154420138Y-102220796D01*
X154455777Y-102239846D01*
X154487017Y-102265483D01*
X154512654Y-102296723D01*
X154531704Y-102332362D01*
X154543435Y-102371032D01*
X154548000Y-102417388D01*
X154548000Y-103068612D01*
X154543435Y-103114968D01*
X154531704Y-103153638D01*
X154512654Y-103189277D01*
X154487017Y-103220517D01*
X154455777Y-103246154D01*
X154420138Y-103265204D01*
X154381468Y-103276935D01*
X154335112Y-103281500D01*
X153258888Y-103281500D01*
X153212532Y-103276935D01*
X153173862Y-103265204D01*
X153138223Y-103246154D01*
X153106983Y-103220517D01*
X153081346Y-103189277D01*
X153062296Y-103153638D01*
X153050565Y-103114968D01*
X153046000Y-103068612D01*
X153046000Y-102417388D01*
X153050565Y-102371032D01*
X153062296Y-102332362D01*
X153081346Y-102296723D01*
X153106983Y-102265483D01*
X153138223Y-102239846D01*
X153173862Y-102220796D01*
X153212532Y-102209065D01*
X153258888Y-102204500D01*
X154335112Y-102204500D01*
X154381468Y-102209065D01*
G37*
G36*
X30586710Y-100512640D02*
G01*
X30657585Y-100534140D01*
X30722904Y-100569054D01*
X30780159Y-100616041D01*
X30827146Y-100673296D01*
X30862060Y-100738615D01*
X30883560Y-100809490D01*
X30889000Y-100864728D01*
X30889000Y-101551672D01*
X30883560Y-101606910D01*
X30862060Y-101677785D01*
X30827146Y-101743104D01*
X30780159Y-101800359D01*
X30722906Y-101847345D01*
X30657583Y-101882260D01*
X30586709Y-101903760D01*
X30545645Y-101907804D01*
X30521612Y-101912584D01*
X30513453Y-101915964D01*
X30492488Y-101909604D01*
X30480354Y-101907804D01*
X30439290Y-101903760D01*
X30368415Y-101882260D01*
X30303096Y-101847346D01*
X30245841Y-101800359D01*
X30198855Y-101743106D01*
X30163940Y-101677783D01*
X30142440Y-101606909D01*
X30137000Y-101551671D01*
X30137001Y-100864728D01*
X30142441Y-100809490D01*
X30163941Y-100738615D01*
X30198855Y-100673296D01*
X30245842Y-100616041D01*
X30303097Y-100569054D01*
X30368416Y-100534140D01*
X30439291Y-100512640D01*
X30513000Y-100505381D01*
X30586710Y-100512640D01*
G37*
G36*
X154381468Y-100334065D02*
G01*
X154420138Y-100345796D01*
X154455777Y-100364846D01*
X154487017Y-100390483D01*
X154512654Y-100421723D01*
X154531704Y-100457362D01*
X154543435Y-100496032D01*
X154548000Y-100542388D01*
X154548000Y-101193612D01*
X154543435Y-101239968D01*
X154531704Y-101278638D01*
X154512654Y-101314277D01*
X154487017Y-101345517D01*
X154455777Y-101371154D01*
X154420138Y-101390204D01*
X154381468Y-101401935D01*
X154335112Y-101406500D01*
X153258888Y-101406500D01*
X153212532Y-101401935D01*
X153173862Y-101390204D01*
X153138223Y-101371154D01*
X153106983Y-101345517D01*
X153081346Y-101314277D01*
X153062296Y-101278638D01*
X153050565Y-101239968D01*
X153046000Y-101193612D01*
X153046000Y-100542388D01*
X153050565Y-100496032D01*
X153062296Y-100457362D01*
X153081346Y-100421723D01*
X153106983Y-100390483D01*
X153138223Y-100364846D01*
X153173862Y-100345796D01*
X153212532Y-100334065D01*
X153258888Y-100329500D01*
X154335112Y-100329500D01*
X154381468Y-100334065D01*
G37*
G36*
X28243511Y-99771815D02*
G01*
X28286461Y-99776045D01*
X28347612Y-99794595D01*
X28369122Y-99801120D01*
X28445295Y-99841836D01*
X28512067Y-99896633D01*
X28566864Y-99963405D01*
X28607580Y-100039578D01*
X28607581Y-100039582D01*
X28632655Y-100122239D01*
X28641121Y-100208200D01*
X28632655Y-100294161D01*
X28615718Y-100349995D01*
X28607580Y-100376822D01*
X28566864Y-100452995D01*
X28512067Y-100519767D01*
X28445295Y-100574564D01*
X28369122Y-100615280D01*
X28347612Y-100621805D01*
X28286461Y-100640355D01*
X28243511Y-100644585D01*
X28222037Y-100646700D01*
X27403963Y-100646700D01*
X27382489Y-100644585D01*
X27339539Y-100640355D01*
X27278388Y-100621805D01*
X27256878Y-100615280D01*
X27180705Y-100574564D01*
X27113933Y-100519767D01*
X27059136Y-100452995D01*
X27018420Y-100376822D01*
X27010282Y-100349995D01*
X26993345Y-100294161D01*
X26984879Y-100208200D01*
X26993345Y-100122239D01*
X27018419Y-100039582D01*
X27018420Y-100039578D01*
X27059136Y-99963405D01*
X27113933Y-99896633D01*
X27180705Y-99841836D01*
X27256878Y-99801120D01*
X27278388Y-99794595D01*
X27339539Y-99776045D01*
X27382489Y-99771815D01*
X27403963Y-99769700D01*
X28222037Y-99769700D01*
X28243511Y-99771815D01*
G37*
G36*
X258368600Y-100589100D02*
G01*
X256766600Y-100589100D01*
X256766600Y-99487100D01*
X258368600Y-99487100D01*
X258368600Y-100589100D01*
G37*
G36*
X253468600Y-100589100D02*
G01*
X251866600Y-100589100D01*
X251866600Y-99487100D01*
X253468600Y-99487100D01*
X253468600Y-100589100D01*
G37*
G36*
X41124600Y-100589100D02*
G01*
X39522600Y-100589100D01*
X39522600Y-99487100D01*
X41124600Y-99487100D01*
X41124600Y-100589100D01*
G37*
G36*
X46024600Y-100589100D02*
G01*
X44422600Y-100589100D01*
X44422600Y-99487100D01*
X46024600Y-99487100D01*
X46024600Y-100589100D01*
G37*
G36*
X50776600Y-100589100D02*
G01*
X49174600Y-100589100D01*
X49174600Y-99487100D01*
X50776600Y-99487100D01*
X50776600Y-100589100D01*
G37*
G36*
X55676600Y-100589100D02*
G01*
X54074600Y-100589100D01*
X54074600Y-99487100D01*
X55676600Y-99487100D01*
X55676600Y-100589100D01*
G37*
G36*
X60428600Y-100589100D02*
G01*
X58826600Y-100589100D01*
X58826600Y-99487100D01*
X60428600Y-99487100D01*
X60428600Y-100589100D01*
G37*
G36*
X65328600Y-100589100D02*
G01*
X63726600Y-100589100D01*
X63726600Y-99487100D01*
X65328600Y-99487100D01*
X65328600Y-100589100D01*
G37*
G36*
X70080600Y-100589100D02*
G01*
X68478600Y-100589100D01*
X68478600Y-99487100D01*
X70080600Y-99487100D01*
X70080600Y-100589100D01*
G37*
G36*
X103936600Y-100589100D02*
G01*
X102334600Y-100589100D01*
X102334600Y-99487100D01*
X103936600Y-99487100D01*
X103936600Y-100589100D01*
G37*
G36*
X79732600Y-100589100D02*
G01*
X78130600Y-100589100D01*
X78130600Y-99487100D01*
X79732600Y-99487100D01*
X79732600Y-100589100D01*
G37*
G36*
X171500600Y-100589100D02*
G01*
X169898600Y-100589100D01*
X169898600Y-99487100D01*
X171500600Y-99487100D01*
X171500600Y-100589100D01*
G37*
G36*
X84632600Y-100589100D02*
G01*
X83030600Y-100589100D01*
X83030600Y-99487100D01*
X84632600Y-99487100D01*
X84632600Y-100589100D01*
G37*
G36*
X166600600Y-100589100D02*
G01*
X164998600Y-100589100D01*
X164998600Y-99487100D01*
X166600600Y-99487100D01*
X166600600Y-100589100D01*
G37*
G36*
X89384600Y-100589100D02*
G01*
X87782600Y-100589100D01*
X87782600Y-99487100D01*
X89384600Y-99487100D01*
X89384600Y-100589100D01*
G37*
G36*
X181152600Y-100589100D02*
G01*
X179550600Y-100589100D01*
X179550600Y-99487100D01*
X181152600Y-99487100D01*
X181152600Y-100589100D01*
G37*
G36*
X94284600Y-100589100D02*
G01*
X92682600Y-100589100D01*
X92682600Y-99487100D01*
X94284600Y-99487100D01*
X94284600Y-100589100D01*
G37*
G36*
X176252600Y-100589100D02*
G01*
X174650600Y-100589100D01*
X174650600Y-99487100D01*
X176252600Y-99487100D01*
X176252600Y-100589100D01*
G37*
G36*
X229412600Y-100589100D02*
G01*
X227810600Y-100589100D01*
X227810600Y-99487100D01*
X229412600Y-99487100D01*
X229412600Y-100589100D01*
G37*
G36*
X190804600Y-100589100D02*
G01*
X189202600Y-100589100D01*
X189202600Y-99487100D01*
X190804600Y-99487100D01*
X190804600Y-100589100D01*
G37*
G36*
X268020600Y-100589100D02*
G01*
X266418600Y-100589100D01*
X266418600Y-99487100D01*
X268020600Y-99487100D01*
X268020600Y-100589100D01*
G37*
G36*
X263120600Y-100589100D02*
G01*
X261518600Y-100589100D01*
X261518600Y-99487100D01*
X263120600Y-99487100D01*
X263120600Y-100589100D01*
G37*
G36*
X272772600Y-100589100D02*
G01*
X271170600Y-100589100D01*
X271170600Y-99487100D01*
X272772600Y-99487100D01*
X272772600Y-100589100D01*
G37*
G36*
X185904600Y-100589100D02*
G01*
X184302600Y-100589100D01*
X184302600Y-99487100D01*
X185904600Y-99487100D01*
X185904600Y-100589100D01*
G37*
G36*
X277672600Y-100589100D02*
G01*
X276070600Y-100589100D01*
X276070600Y-99487100D01*
X277672600Y-99487100D01*
X277672600Y-100589100D01*
G37*
G36*
X243816600Y-100589100D02*
G01*
X242214600Y-100589100D01*
X242214600Y-99487100D01*
X243816600Y-99487100D01*
X243816600Y-100589100D01*
G37*
G36*
X137644600Y-100589100D02*
G01*
X136042600Y-100589100D01*
X136042600Y-99487100D01*
X137644600Y-99487100D01*
X137644600Y-100589100D01*
G37*
G36*
X108688600Y-100589100D02*
G01*
X107086600Y-100589100D01*
X107086600Y-99487100D01*
X108688600Y-99487100D01*
X108688600Y-100589100D01*
G37*
G36*
X200456600Y-100589100D02*
G01*
X198854600Y-100589100D01*
X198854600Y-99487100D01*
X200456600Y-99487100D01*
X200456600Y-100589100D01*
G37*
G36*
X113588600Y-100589100D02*
G01*
X111986600Y-100589100D01*
X111986600Y-99487100D01*
X113588600Y-99487100D01*
X113588600Y-100589100D01*
G37*
G36*
X195556600Y-100589100D02*
G01*
X193954600Y-100589100D01*
X193954600Y-99487100D01*
X195556600Y-99487100D01*
X195556600Y-100589100D01*
G37*
G36*
X118340600Y-100589100D02*
G01*
X116738600Y-100589100D01*
X116738600Y-99487100D01*
X118340600Y-99487100D01*
X118340600Y-100589100D01*
G37*
G36*
X210108600Y-100589100D02*
G01*
X208506600Y-100589100D01*
X208506600Y-99487100D01*
X210108600Y-99487100D01*
X210108600Y-100589100D01*
G37*
G36*
X123240600Y-100589100D02*
G01*
X121638600Y-100589100D01*
X121638600Y-99487100D01*
X123240600Y-99487100D01*
X123240600Y-100589100D01*
G37*
G36*
X205208600Y-100589100D02*
G01*
X203606600Y-100589100D01*
X203606600Y-99487100D01*
X205208600Y-99487100D01*
X205208600Y-100589100D01*
G37*
G36*
X127992600Y-100589100D02*
G01*
X126390600Y-100589100D01*
X126390600Y-99487100D01*
X127992600Y-99487100D01*
X127992600Y-100589100D01*
G37*
G36*
X219760600Y-100589100D02*
G01*
X218158600Y-100589100D01*
X218158600Y-99487100D01*
X219760600Y-99487100D01*
X219760600Y-100589100D01*
G37*
G36*
X132892600Y-100589100D02*
G01*
X131290600Y-100589100D01*
X131290600Y-99487100D01*
X132892600Y-99487100D01*
X132892600Y-100589100D01*
G37*
G36*
X99036600Y-100589100D02*
G01*
X97434600Y-100589100D01*
X97434600Y-99487100D01*
X99036600Y-99487100D01*
X99036600Y-100589100D01*
G37*
G36*
X74980600Y-100589100D02*
G01*
X73378600Y-100589100D01*
X73378600Y-99487100D01*
X74980600Y-99487100D01*
X74980600Y-100589100D01*
G37*
G36*
X161848600Y-100589100D02*
G01*
X160246600Y-100589100D01*
X160246600Y-99487100D01*
X161848600Y-99487100D01*
X161848600Y-100589100D01*
G37*
G36*
X248716600Y-100589100D02*
G01*
X247114600Y-100589100D01*
X247114600Y-99487100D01*
X248716600Y-99487100D01*
X248716600Y-100589100D01*
G37*
G36*
X156948600Y-100589100D02*
G01*
X155346600Y-100589100D01*
X155346600Y-99487100D01*
X156948600Y-99487100D01*
X156948600Y-100589100D01*
G37*
G36*
X234164600Y-100589100D02*
G01*
X232562600Y-100589100D01*
X232562600Y-99487100D01*
X234164600Y-99487100D01*
X234164600Y-100589100D01*
G37*
G36*
X152196600Y-100589100D02*
G01*
X150594600Y-100589100D01*
X150594600Y-99487100D01*
X152196600Y-99487100D01*
X152196600Y-100589100D01*
G37*
G36*
X239064600Y-100589100D02*
G01*
X237462600Y-100589100D01*
X237462600Y-99487100D01*
X239064600Y-99487100D01*
X239064600Y-100589100D01*
G37*
G36*
X147296600Y-100589100D02*
G01*
X145694600Y-100589100D01*
X145694600Y-99487100D01*
X147296600Y-99487100D01*
X147296600Y-100589100D01*
G37*
G36*
X224512600Y-100589100D02*
G01*
X222910600Y-100589100D01*
X222910600Y-99487100D01*
X224512600Y-99487100D01*
X224512600Y-100589100D01*
G37*
G36*
X142544600Y-100589100D02*
G01*
X140942600Y-100589100D01*
X140942600Y-99487100D01*
X142544600Y-99487100D01*
X142544600Y-100589100D01*
G37*
G36*
X214860600Y-100589100D02*
G01*
X213258600Y-100589100D01*
X213258600Y-99487100D01*
X214860600Y-99487100D01*
X214860600Y-100589100D01*
G37*
G36*
X38023000Y-100127000D02*
G01*
X37161000Y-100127000D01*
X37161000Y-98755000D01*
X38023000Y-98755000D01*
X38023000Y-100127000D01*
G37*
G36*
X36753000Y-100127000D02*
G01*
X35891000Y-100127000D01*
X35891000Y-98755000D01*
X36753000Y-98755000D01*
X36753000Y-100127000D01*
G37*
G36*
X35483000Y-100127000D02*
G01*
X34621000Y-100127000D01*
X34621000Y-98755000D01*
X35483000Y-98755000D01*
X35483000Y-100127000D01*
G37*
G36*
X34213000Y-100127000D02*
G01*
X33351000Y-100127000D01*
X33351000Y-98755000D01*
X34213000Y-98755000D01*
X34213000Y-100127000D01*
G37*
G36*
X278523000Y-98691000D02*
G01*
X276721000Y-98691000D01*
X276721000Y-96889000D01*
X278523000Y-96889000D01*
X278523000Y-98691000D01*
G37*
G36*
X28010000Y-98221000D02*
G01*
X27108000Y-98221000D01*
X27108000Y-97219000D01*
X28010000Y-97219000D01*
X28010000Y-98221000D01*
G37*
G36*
X32891487Y-95268996D02*
G01*
X33059868Y-95338742D01*
X33128255Y-95367069D01*
X33341339Y-95509447D01*
X33522553Y-95690661D01*
X33659531Y-95895663D01*
X33664932Y-95903747D01*
X33763004Y-96140513D01*
X33813000Y-96391861D01*
X33813000Y-96648139D01*
X33763004Y-96899487D01*
X33664932Y-97136253D01*
X33664931Y-97136255D01*
X33522553Y-97349339D01*
X33341339Y-97530553D01*
X33128255Y-97672931D01*
X33128254Y-97672932D01*
X33128253Y-97672932D01*
X32891487Y-97771004D01*
X32640139Y-97821000D01*
X32383861Y-97821000D01*
X32132513Y-97771004D01*
X31895747Y-97672932D01*
X31895746Y-97672932D01*
X31895745Y-97672931D01*
X31682661Y-97530553D01*
X31501447Y-97349339D01*
X31359069Y-97136255D01*
X31359068Y-97136253D01*
X31260996Y-96899487D01*
X31211000Y-96648139D01*
X31211000Y-96391861D01*
X31260996Y-96140513D01*
X31359068Y-95903747D01*
X31364470Y-95895663D01*
X31501447Y-95690661D01*
X31682661Y-95509447D01*
X31895745Y-95367069D01*
X31964132Y-95338742D01*
X32132513Y-95268996D01*
X32383861Y-95219000D01*
X32640139Y-95219000D01*
X32891487Y-95268996D01*
G37*
G36*
X272667487Y-95268996D02*
G01*
X272835868Y-95338742D01*
X272904255Y-95367069D01*
X273117339Y-95509447D01*
X273298553Y-95690661D01*
X273435531Y-95895663D01*
X273440932Y-95903747D01*
X273539004Y-96140513D01*
X273589000Y-96391861D01*
X273589000Y-96648139D01*
X273539004Y-96899487D01*
X273440932Y-97136253D01*
X273440931Y-97136255D01*
X273298553Y-97349339D01*
X273117339Y-97530553D01*
X272904255Y-97672931D01*
X272904254Y-97672932D01*
X272904253Y-97672932D01*
X272667487Y-97771004D01*
X272416139Y-97821000D01*
X272159861Y-97821000D01*
X271908513Y-97771004D01*
X271671747Y-97672932D01*
X271671746Y-97672932D01*
X271671745Y-97672931D01*
X271458661Y-97530553D01*
X271277447Y-97349339D01*
X271135069Y-97136255D01*
X271135068Y-97136253D01*
X271036996Y-96899487D01*
X270987000Y-96648139D01*
X270987000Y-96391861D01*
X271036996Y-96140513D01*
X271135068Y-95903747D01*
X271140470Y-95895663D01*
X271277447Y-95690661D01*
X271458661Y-95509447D01*
X271671745Y-95367069D01*
X271740132Y-95338742D01*
X271908513Y-95268996D01*
X272159861Y-95219000D01*
X272416139Y-95219000D01*
X272667487Y-95268996D01*
G37*
G36*
X37541468Y-95780565D02*
G01*
X37580138Y-95792296D01*
X37615777Y-95811346D01*
X37647017Y-95836983D01*
X37672654Y-95868223D01*
X37691704Y-95903862D01*
X37703435Y-95942532D01*
X37708000Y-95988888D01*
X37708000Y-96640112D01*
X37703435Y-96686468D01*
X37691704Y-96725138D01*
X37672654Y-96760777D01*
X37647017Y-96792017D01*
X37615777Y-96817654D01*
X37580138Y-96836704D01*
X37541468Y-96848435D01*
X37495112Y-96853000D01*
X36418888Y-96853000D01*
X36372532Y-96848435D01*
X36333862Y-96836704D01*
X36298223Y-96817654D01*
X36266983Y-96792017D01*
X36241346Y-96760777D01*
X36222296Y-96725138D01*
X36210565Y-96686468D01*
X36206000Y-96640112D01*
X36206000Y-95988888D01*
X36210565Y-95942532D01*
X36222296Y-95903862D01*
X36241346Y-95868223D01*
X36266983Y-95836983D01*
X36298223Y-95811346D01*
X36333862Y-95792296D01*
X36372532Y-95780565D01*
X36418888Y-95776000D01*
X37495112Y-95776000D01*
X37541468Y-95780565D01*
G37*
G36*
X277735512Y-94353927D02*
G01*
X277884812Y-94383624D01*
X278048784Y-94451544D01*
X278196354Y-94550147D01*
X278321853Y-94675646D01*
X278420456Y-94823216D01*
X278488376Y-94987188D01*
X278523000Y-95161259D01*
X278523000Y-95338741D01*
X278488376Y-95512812D01*
X278420456Y-95676784D01*
X278321853Y-95824354D01*
X278196354Y-95949853D01*
X278048784Y-96048456D01*
X277884812Y-96116376D01*
X277735512Y-96146073D01*
X277710742Y-96151000D01*
X277533258Y-96151000D01*
X277508488Y-96146073D01*
X277359188Y-96116376D01*
X277195216Y-96048456D01*
X277047646Y-95949853D01*
X276922147Y-95824354D01*
X276823544Y-95676784D01*
X276755624Y-95512812D01*
X276721000Y-95338741D01*
X276721000Y-95161259D01*
X276755624Y-94987188D01*
X276823544Y-94823216D01*
X276922147Y-94675646D01*
X277047646Y-94550147D01*
X277195216Y-94451544D01*
X277359188Y-94383624D01*
X277508488Y-94353927D01*
X277533258Y-94349000D01*
X277710742Y-94349000D01*
X277735512Y-94353927D01*
G37*
G36*
X27060000Y-95821000D02*
G01*
X26158000Y-95821000D01*
X26158000Y-94819000D01*
X27060000Y-94819000D01*
X27060000Y-95821000D01*
G37*
G36*
X28960000Y-95821000D02*
G01*
X28058000Y-95821000D01*
X28058000Y-94819000D01*
X28960000Y-94819000D01*
X28960000Y-95821000D01*
G37*
G36*
X37541468Y-93905565D02*
G01*
X37580138Y-93917296D01*
X37615777Y-93936346D01*
X37647017Y-93961983D01*
X37672654Y-93993223D01*
X37691704Y-94028862D01*
X37703435Y-94067532D01*
X37708000Y-94113888D01*
X37708000Y-94765112D01*
X37703435Y-94811468D01*
X37691704Y-94850138D01*
X37672654Y-94885777D01*
X37647017Y-94917017D01*
X37615777Y-94942654D01*
X37580138Y-94961704D01*
X37541468Y-94973435D01*
X37495112Y-94978000D01*
X36418888Y-94978000D01*
X36372532Y-94973435D01*
X36333862Y-94961704D01*
X36298223Y-94942654D01*
X36266983Y-94917017D01*
X36241346Y-94885777D01*
X36222296Y-94850138D01*
X36210565Y-94811468D01*
X36206000Y-94765112D01*
X36206000Y-94113888D01*
X36210565Y-94067532D01*
X36222296Y-94028862D01*
X36241346Y-93993223D01*
X36266983Y-93961983D01*
X36298223Y-93936346D01*
X36333862Y-93917296D01*
X36372532Y-93905565D01*
X36418888Y-93901000D01*
X37495112Y-93901000D01*
X37541468Y-93905565D01*
G37*
G36*
X166600600Y-93552900D02*
G01*
X164998600Y-93552900D01*
X164998600Y-92450900D01*
X166600600Y-92450900D01*
X166600600Y-93552900D01*
G37*
G36*
X127992600Y-93552900D02*
G01*
X126390600Y-93552900D01*
X126390600Y-92450900D01*
X127992600Y-92450900D01*
X127992600Y-93552900D01*
G37*
G36*
X161848600Y-93552900D02*
G01*
X160246600Y-93552900D01*
X160246600Y-92450900D01*
X161848600Y-92450900D01*
X161848600Y-93552900D01*
G37*
G36*
X156948600Y-93552900D02*
G01*
X155346600Y-93552900D01*
X155346600Y-92450900D01*
X156948600Y-92450900D01*
X156948600Y-93552900D01*
G37*
G36*
X132892600Y-93552900D02*
G01*
X131290600Y-93552900D01*
X131290600Y-92450900D01*
X132892600Y-92450900D01*
X132892600Y-93552900D01*
G37*
G36*
X137644600Y-93552900D02*
G01*
X136042600Y-93552900D01*
X136042600Y-92450900D01*
X137644600Y-92450900D01*
X137644600Y-93552900D01*
G37*
G36*
X142544600Y-93552900D02*
G01*
X140942600Y-93552900D01*
X140942600Y-92450900D01*
X142544600Y-92450900D01*
X142544600Y-93552900D01*
G37*
G36*
X147296600Y-93552900D02*
G01*
X145694600Y-93552900D01*
X145694600Y-92450900D01*
X147296600Y-92450900D01*
X147296600Y-93552900D01*
G37*
G36*
X152196600Y-93552900D02*
G01*
X150594600Y-93552900D01*
X150594600Y-92450900D01*
X152196600Y-92450900D01*
X152196600Y-93552900D01*
G37*
G36*
X123240600Y-93552900D02*
G01*
X121638600Y-93552900D01*
X121638600Y-92450900D01*
X123240600Y-92450900D01*
X123240600Y-93552900D01*
G37*
G36*
X118340600Y-93552900D02*
G01*
X116738600Y-93552900D01*
X116738600Y-92450900D01*
X118340600Y-92450900D01*
X118340600Y-93552900D01*
G37*
G36*
X113588600Y-93552900D02*
G01*
X111986600Y-93552900D01*
X111986600Y-92450900D01*
X113588600Y-92450900D01*
X113588600Y-93552900D01*
G37*
G36*
X108688600Y-93552900D02*
G01*
X107086600Y-93552900D01*
X107086600Y-92450900D01*
X108688600Y-92450900D01*
X108688600Y-93552900D01*
G37*
G36*
X103936600Y-93552900D02*
G01*
X102334600Y-93552900D01*
X102334600Y-92450900D01*
X103936600Y-92450900D01*
X103936600Y-93552900D01*
G37*
G36*
X99036600Y-93552900D02*
G01*
X97434600Y-93552900D01*
X97434600Y-92450900D01*
X99036600Y-92450900D01*
X99036600Y-93552900D01*
G37*
G36*
X94284600Y-93552900D02*
G01*
X92682600Y-93552900D01*
X92682600Y-92450900D01*
X94284600Y-92450900D01*
X94284600Y-93552900D01*
G37*
G36*
X89384600Y-93552900D02*
G01*
X87782600Y-93552900D01*
X87782600Y-92450900D01*
X89384600Y-92450900D01*
X89384600Y-93552900D01*
G37*
G36*
X84632600Y-93552900D02*
G01*
X83030600Y-93552900D01*
X83030600Y-92450900D01*
X84632600Y-92450900D01*
X84632600Y-93552900D01*
G37*
G36*
X79732600Y-93552900D02*
G01*
X78130600Y-93552900D01*
X78130600Y-92450900D01*
X79732600Y-92450900D01*
X79732600Y-93552900D01*
G37*
G36*
X74980600Y-93552900D02*
G01*
X73378600Y-93552900D01*
X73378600Y-92450900D01*
X74980600Y-92450900D01*
X74980600Y-93552900D01*
G37*
G36*
X70080600Y-93552900D02*
G01*
X68478600Y-93552900D01*
X68478600Y-92450900D01*
X70080600Y-92450900D01*
X70080600Y-93552900D01*
G37*
G36*
X65328600Y-93552900D02*
G01*
X63726600Y-93552900D01*
X63726600Y-92450900D01*
X65328600Y-92450900D01*
X65328600Y-93552900D01*
G37*
G36*
X60428600Y-93552900D02*
G01*
X58826600Y-93552900D01*
X58826600Y-92450900D01*
X60428600Y-92450900D01*
X60428600Y-93552900D01*
G37*
G36*
X55676600Y-93552900D02*
G01*
X54074600Y-93552900D01*
X54074600Y-92450900D01*
X55676600Y-92450900D01*
X55676600Y-93552900D01*
G37*
G36*
X50776600Y-93552900D02*
G01*
X49174600Y-93552900D01*
X49174600Y-92450900D01*
X50776600Y-92450900D01*
X50776600Y-93552900D01*
G37*
G36*
X277672600Y-93552900D02*
G01*
X276070600Y-93552900D01*
X276070600Y-92450900D01*
X277672600Y-92450900D01*
X277672600Y-93552900D01*
G37*
G36*
X234164600Y-93552900D02*
G01*
X232562600Y-93552900D01*
X232562600Y-92450900D01*
X234164600Y-92450900D01*
X234164600Y-93552900D01*
G37*
G36*
X272772600Y-93552900D02*
G01*
X271170600Y-93552900D01*
X271170600Y-92450900D01*
X272772600Y-92450900D01*
X272772600Y-93552900D01*
G37*
G36*
X268020600Y-93552900D02*
G01*
X266418600Y-93552900D01*
X266418600Y-92450900D01*
X268020600Y-92450900D01*
X268020600Y-93552900D01*
G37*
G36*
X263120600Y-93552900D02*
G01*
X261518600Y-93552900D01*
X261518600Y-92450900D01*
X263120600Y-92450900D01*
X263120600Y-93552900D01*
G37*
G36*
X258368600Y-93552900D02*
G01*
X256766600Y-93552900D01*
X256766600Y-92450900D01*
X258368600Y-92450900D01*
X258368600Y-93552900D01*
G37*
G36*
X253468600Y-93552900D02*
G01*
X251866600Y-93552900D01*
X251866600Y-92450900D01*
X253468600Y-92450900D01*
X253468600Y-93552900D01*
G37*
G36*
X248716600Y-93552900D02*
G01*
X247114600Y-93552900D01*
X247114600Y-92450900D01*
X248716600Y-92450900D01*
X248716600Y-93552900D01*
G37*
G36*
X243816600Y-93552900D02*
G01*
X242214600Y-93552900D01*
X242214600Y-92450900D01*
X243816600Y-92450900D01*
X243816600Y-93552900D01*
G37*
G36*
X239064600Y-93552900D02*
G01*
X237462600Y-93552900D01*
X237462600Y-92450900D01*
X239064600Y-92450900D01*
X239064600Y-93552900D01*
G37*
G36*
X171500600Y-93552900D02*
G01*
X169898600Y-93552900D01*
X169898600Y-92450900D01*
X171500600Y-92450900D01*
X171500600Y-93552900D01*
G37*
G36*
X229412600Y-93552900D02*
G01*
X227810600Y-93552900D01*
X227810600Y-92450900D01*
X229412600Y-92450900D01*
X229412600Y-93552900D01*
G37*
G36*
X224512600Y-93552900D02*
G01*
X222910600Y-93552900D01*
X222910600Y-92450900D01*
X224512600Y-92450900D01*
X224512600Y-93552900D01*
G37*
G36*
X185904600Y-93552900D02*
G01*
X184302600Y-93552900D01*
X184302600Y-92450900D01*
X185904600Y-92450900D01*
X185904600Y-93552900D01*
G37*
G36*
X176252600Y-93552900D02*
G01*
X174650600Y-93552900D01*
X174650600Y-92450900D01*
X176252600Y-92450900D01*
X176252600Y-93552900D01*
G37*
G36*
X181152600Y-93552900D02*
G01*
X179550600Y-93552900D01*
X179550600Y-92450900D01*
X181152600Y-92450900D01*
X181152600Y-93552900D01*
G37*
G36*
X219760600Y-93552900D02*
G01*
X218158600Y-93552900D01*
X218158600Y-92450900D01*
X219760600Y-92450900D01*
X219760600Y-93552900D01*
G37*
G36*
X190804600Y-93552900D02*
G01*
X189202600Y-93552900D01*
X189202600Y-92450900D01*
X190804600Y-92450900D01*
X190804600Y-93552900D01*
G37*
G36*
X195556600Y-93552900D02*
G01*
X193954600Y-93552900D01*
X193954600Y-92450900D01*
X195556600Y-92450900D01*
X195556600Y-93552900D01*
G37*
G36*
X200456600Y-93552900D02*
G01*
X198854600Y-93552900D01*
X198854600Y-92450900D01*
X200456600Y-92450900D01*
X200456600Y-93552900D01*
G37*
G36*
X46024600Y-93552900D02*
G01*
X44422600Y-93552900D01*
X44422600Y-92450900D01*
X46024600Y-92450900D01*
X46024600Y-93552900D01*
G37*
G36*
X41124600Y-93552900D02*
G01*
X39522600Y-93552900D01*
X39522600Y-92450900D01*
X41124600Y-92450900D01*
X41124600Y-93552900D01*
G37*
G36*
X205208600Y-93552900D02*
G01*
X203606600Y-93552900D01*
X203606600Y-92450900D01*
X205208600Y-92450900D01*
X205208600Y-93552900D01*
G37*
G36*
X210108600Y-93552900D02*
G01*
X208506600Y-93552900D01*
X208506600Y-92450900D01*
X210108600Y-92450900D01*
X210108600Y-93552900D01*
G37*
G36*
X214860600Y-93552900D02*
G01*
X213258600Y-93552900D01*
X213258600Y-92450900D01*
X214860600Y-92450900D01*
X214860600Y-93552900D01*
G37*
G36*
X28338928Y-92234764D02*
G01*
X28360009Y-92241160D01*
X28379445Y-92251548D01*
X28396476Y-92265524D01*
X28410452Y-92282555D01*
X28420840Y-92301991D01*
X28427236Y-92323072D01*
X28430000Y-92351140D01*
X28430000Y-92814860D01*
X28427236Y-92842928D01*
X28420840Y-92864009D01*
X28410452Y-92883445D01*
X28396476Y-92900476D01*
X28379445Y-92914452D01*
X28360009Y-92924840D01*
X28338928Y-92931236D01*
X28310860Y-92934000D01*
X26397140Y-92934000D01*
X26369072Y-92931236D01*
X26347991Y-92924840D01*
X26328555Y-92914452D01*
X26311524Y-92900476D01*
X26297548Y-92883445D01*
X26287160Y-92864009D01*
X26280764Y-92842928D01*
X26278000Y-92814860D01*
X26278000Y-92351140D01*
X26280764Y-92323072D01*
X26287160Y-92301991D01*
X26297548Y-92282555D01*
X26311524Y-92265524D01*
X26328555Y-92251548D01*
X26347991Y-92241160D01*
X26369072Y-92234764D01*
X26397140Y-92232000D01*
X28310860Y-92232000D01*
X28338928Y-92234764D01*
G37*
G36*
X37638928Y-92234764D02*
G01*
X37660009Y-92241160D01*
X37679445Y-92251548D01*
X37696476Y-92265524D01*
X37710452Y-92282555D01*
X37720840Y-92301991D01*
X37727236Y-92323072D01*
X37730000Y-92351140D01*
X37730000Y-92814860D01*
X37727236Y-92842928D01*
X37720840Y-92864009D01*
X37710452Y-92883445D01*
X37696476Y-92900476D01*
X37679445Y-92914452D01*
X37660009Y-92924840D01*
X37638928Y-92931236D01*
X37610860Y-92934000D01*
X35697140Y-92934000D01*
X35669072Y-92931236D01*
X35647991Y-92924840D01*
X35628555Y-92914452D01*
X35611524Y-92900476D01*
X35597548Y-92883445D01*
X35587160Y-92864009D01*
X35580764Y-92842928D01*
X35578000Y-92814860D01*
X35578000Y-92351140D01*
X35580764Y-92323072D01*
X35587160Y-92301991D01*
X35597548Y-92282555D01*
X35611524Y-92265524D01*
X35628555Y-92251548D01*
X35647991Y-92241160D01*
X35669072Y-92234764D01*
X35697140Y-92232000D01*
X37610860Y-92232000D01*
X37638928Y-92234764D01*
G37*
G36*
X154381468Y-91765065D02*
G01*
X154420138Y-91776796D01*
X154455777Y-91795846D01*
X154487017Y-91821483D01*
X154512654Y-91852723D01*
X154531704Y-91888362D01*
X154543435Y-91927032D01*
X154548000Y-91973388D01*
X154548000Y-92624612D01*
X154543435Y-92670968D01*
X154531704Y-92709638D01*
X154512654Y-92745277D01*
X154487017Y-92776517D01*
X154455777Y-92802154D01*
X154420138Y-92821204D01*
X154381468Y-92832935D01*
X154335112Y-92837500D01*
X153258888Y-92837500D01*
X153212532Y-92832935D01*
X153173862Y-92821204D01*
X153138223Y-92802154D01*
X153106983Y-92776517D01*
X153081346Y-92745277D01*
X153062296Y-92709638D01*
X153050565Y-92670968D01*
X153046000Y-92624612D01*
X153046000Y-91973388D01*
X153050565Y-91927032D01*
X153062296Y-91888362D01*
X153081346Y-91852723D01*
X153106983Y-91821483D01*
X153138223Y-91795846D01*
X153173862Y-91776796D01*
X153212532Y-91765065D01*
X153258888Y-91760500D01*
X154335112Y-91760500D01*
X154381468Y-91765065D01*
G37*
G36*
X28338928Y-90964764D02*
G01*
X28360009Y-90971160D01*
X28379445Y-90981548D01*
X28396476Y-90995524D01*
X28410452Y-91012555D01*
X28420840Y-91031991D01*
X28427236Y-91053072D01*
X28430000Y-91081140D01*
X28430000Y-91544860D01*
X28427236Y-91572928D01*
X28420840Y-91594009D01*
X28410452Y-91613445D01*
X28396476Y-91630476D01*
X28379445Y-91644452D01*
X28360009Y-91654840D01*
X28338928Y-91661236D01*
X28310860Y-91664000D01*
X26397140Y-91664000D01*
X26369072Y-91661236D01*
X26347991Y-91654840D01*
X26328555Y-91644452D01*
X26311524Y-91630476D01*
X26297548Y-91613445D01*
X26287160Y-91594009D01*
X26280764Y-91572928D01*
X26278000Y-91544860D01*
X26278000Y-91081140D01*
X26280764Y-91053072D01*
X26287160Y-91031991D01*
X26297548Y-91012555D01*
X26311524Y-90995524D01*
X26328555Y-90981548D01*
X26347991Y-90971160D01*
X26369072Y-90964764D01*
X26397140Y-90962000D01*
X28310860Y-90962000D01*
X28338928Y-90964764D01*
G37*
G36*
X37638928Y-90964764D02*
G01*
X37660009Y-90971160D01*
X37679445Y-90981548D01*
X37696476Y-90995524D01*
X37710452Y-91012555D01*
X37720840Y-91031991D01*
X37727236Y-91053072D01*
X37730000Y-91081140D01*
X37730000Y-91544860D01*
X37727236Y-91572928D01*
X37720840Y-91594009D01*
X37710452Y-91613445D01*
X37696476Y-91630476D01*
X37679445Y-91644452D01*
X37660009Y-91654840D01*
X37638928Y-91661236D01*
X37610860Y-91664000D01*
X35697140Y-91664000D01*
X35669072Y-91661236D01*
X35647991Y-91654840D01*
X35628555Y-91644452D01*
X35611524Y-91630476D01*
X35597548Y-91613445D01*
X35587160Y-91594009D01*
X35580764Y-91572928D01*
X35578000Y-91544860D01*
X35578000Y-91081140D01*
X35580764Y-91053072D01*
X35587160Y-91031991D01*
X35597548Y-91012555D01*
X35611524Y-90995524D01*
X35628555Y-90981548D01*
X35647991Y-90971160D01*
X35669072Y-90964764D01*
X35697140Y-90962000D01*
X37610860Y-90962000D01*
X37638928Y-90964764D01*
G37*
G36*
X154381468Y-89890065D02*
G01*
X154420138Y-89901796D01*
X154455777Y-89920846D01*
X154487017Y-89946483D01*
X154512654Y-89977723D01*
X154531704Y-90013362D01*
X154543435Y-90052032D01*
X154548000Y-90098388D01*
X154548000Y-90749612D01*
X154543435Y-90795968D01*
X154531704Y-90834638D01*
X154512654Y-90870277D01*
X154487017Y-90901517D01*
X154455777Y-90927154D01*
X154420138Y-90946204D01*
X154381468Y-90957935D01*
X154335112Y-90962500D01*
X153258888Y-90962500D01*
X153212532Y-90957935D01*
X153173862Y-90946204D01*
X153138223Y-90927154D01*
X153106983Y-90901517D01*
X153081346Y-90870277D01*
X153062296Y-90834638D01*
X153050565Y-90795968D01*
X153046000Y-90749612D01*
X153046000Y-90098388D01*
X153050565Y-90052032D01*
X153062296Y-90013362D01*
X153081346Y-89977723D01*
X153106983Y-89946483D01*
X153138223Y-89920846D01*
X153173862Y-89901796D01*
X153212532Y-89890065D01*
X153258888Y-89885500D01*
X154335112Y-89885500D01*
X154381468Y-89890065D01*
G37*
G36*
X37638928Y-89694764D02*
G01*
X37660009Y-89701160D01*
X37679445Y-89711548D01*
X37696476Y-89725524D01*
X37710452Y-89742555D01*
X37720840Y-89761991D01*
X37727236Y-89783072D01*
X37730000Y-89811140D01*
X37730000Y-90274860D01*
X37727236Y-90302928D01*
X37720840Y-90324009D01*
X37710452Y-90343445D01*
X37696476Y-90360476D01*
X37679445Y-90374452D01*
X37660009Y-90384840D01*
X37638928Y-90391236D01*
X37610860Y-90394000D01*
X35697140Y-90394000D01*
X35669072Y-90391236D01*
X35647991Y-90384840D01*
X35628555Y-90374452D01*
X35611524Y-90360476D01*
X35597548Y-90343445D01*
X35587160Y-90324009D01*
X35580764Y-90302928D01*
X35578000Y-90274860D01*
X35578000Y-89811140D01*
X35580764Y-89783072D01*
X35587160Y-89761991D01*
X35597548Y-89742555D01*
X35611524Y-89725524D01*
X35628555Y-89711548D01*
X35647991Y-89701160D01*
X35669072Y-89694764D01*
X35697140Y-89692000D01*
X37610860Y-89692000D01*
X37638928Y-89694764D01*
G37*
G36*
X28338928Y-89694764D02*
G01*
X28360009Y-89701160D01*
X28379445Y-89711548D01*
X28396476Y-89725524D01*
X28410452Y-89742555D01*
X28420840Y-89761991D01*
X28427236Y-89783072D01*
X28430000Y-89811140D01*
X28430000Y-90274860D01*
X28427236Y-90302928D01*
X28420840Y-90324009D01*
X28410452Y-90343445D01*
X28396476Y-90360476D01*
X28379445Y-90374452D01*
X28360009Y-90384840D01*
X28338928Y-90391236D01*
X28310860Y-90394000D01*
X26397140Y-90394000D01*
X26369072Y-90391236D01*
X26347991Y-90384840D01*
X26328555Y-90374452D01*
X26311524Y-90360476D01*
X26297548Y-90343445D01*
X26287160Y-90324009D01*
X26280764Y-90302928D01*
X26278000Y-90274860D01*
X26278000Y-89811140D01*
X26280764Y-89783072D01*
X26287160Y-89761991D01*
X26297548Y-89742555D01*
X26311524Y-89725524D01*
X26328555Y-89711548D01*
X26347991Y-89701160D01*
X26369072Y-89694764D01*
X26397140Y-89692000D01*
X28310860Y-89692000D01*
X28338928Y-89694764D01*
G37*
G36*
X200456600Y-90352900D02*
G01*
X198854600Y-90352900D01*
X198854600Y-89250900D01*
X200456600Y-89250900D01*
X200456600Y-90352900D01*
G37*
G36*
X118340600Y-90352900D02*
G01*
X116738600Y-90352900D01*
X116738600Y-89250900D01*
X118340600Y-89250900D01*
X118340600Y-90352900D01*
G37*
G36*
X205208600Y-90352900D02*
G01*
X203606600Y-90352900D01*
X203606600Y-89250900D01*
X205208600Y-89250900D01*
X205208600Y-90352900D01*
G37*
G36*
X74980600Y-90352900D02*
G01*
X73378600Y-90352900D01*
X73378600Y-89250900D01*
X74980600Y-89250900D01*
X74980600Y-90352900D01*
G37*
G36*
X70080600Y-90352900D02*
G01*
X68478600Y-90352900D01*
X68478600Y-89250900D01*
X70080600Y-89250900D01*
X70080600Y-90352900D01*
G37*
G36*
X84632600Y-90352900D02*
G01*
X83030600Y-90352900D01*
X83030600Y-89250900D01*
X84632600Y-89250900D01*
X84632600Y-90352900D01*
G37*
G36*
X79732600Y-90352900D02*
G01*
X78130600Y-90352900D01*
X78130600Y-89250900D01*
X79732600Y-89250900D01*
X79732600Y-90352900D01*
G37*
G36*
X94284600Y-90352900D02*
G01*
X92682600Y-90352900D01*
X92682600Y-89250900D01*
X94284600Y-89250900D01*
X94284600Y-90352900D01*
G37*
G36*
X89384600Y-90352900D02*
G01*
X87782600Y-90352900D01*
X87782600Y-89250900D01*
X89384600Y-89250900D01*
X89384600Y-90352900D01*
G37*
G36*
X103936600Y-90352900D02*
G01*
X102334600Y-90352900D01*
X102334600Y-89250900D01*
X103936600Y-89250900D01*
X103936600Y-90352900D01*
G37*
G36*
X234164600Y-90352900D02*
G01*
X232562600Y-90352900D01*
X232562600Y-89250900D01*
X234164600Y-89250900D01*
X234164600Y-90352900D01*
G37*
G36*
X229412600Y-90352900D02*
G01*
X227810600Y-90352900D01*
X227810600Y-89250900D01*
X229412600Y-89250900D01*
X229412600Y-90352900D01*
G37*
G36*
X272772600Y-90352900D02*
G01*
X271170600Y-90352900D01*
X271170600Y-89250900D01*
X272772600Y-89250900D01*
X272772600Y-90352900D01*
G37*
G36*
X239064600Y-90352900D02*
G01*
X237462600Y-90352900D01*
X237462600Y-89250900D01*
X239064600Y-89250900D01*
X239064600Y-90352900D01*
G37*
G36*
X243816600Y-90352900D02*
G01*
X242214600Y-90352900D01*
X242214600Y-89250900D01*
X243816600Y-89250900D01*
X243816600Y-90352900D01*
G37*
G36*
X248716600Y-90352900D02*
G01*
X247114600Y-90352900D01*
X247114600Y-89250900D01*
X248716600Y-89250900D01*
X248716600Y-90352900D01*
G37*
G36*
X263120600Y-90352900D02*
G01*
X261518600Y-90352900D01*
X261518600Y-89250900D01*
X263120600Y-89250900D01*
X263120600Y-90352900D01*
G37*
G36*
X268020600Y-90352900D02*
G01*
X266418600Y-90352900D01*
X266418600Y-89250900D01*
X268020600Y-89250900D01*
X268020600Y-90352900D01*
G37*
G36*
X258368600Y-90352900D02*
G01*
X256766600Y-90352900D01*
X256766600Y-89250900D01*
X258368600Y-89250900D01*
X258368600Y-90352900D01*
G37*
G36*
X253468600Y-90352900D02*
G01*
X251866600Y-90352900D01*
X251866600Y-89250900D01*
X253468600Y-89250900D01*
X253468600Y-90352900D01*
G37*
G36*
X277672600Y-90352900D02*
G01*
X276070600Y-90352900D01*
X276070600Y-89250900D01*
X277672600Y-89250900D01*
X277672600Y-90352900D01*
G37*
G36*
X210108600Y-90352900D02*
G01*
X208506600Y-90352900D01*
X208506600Y-89250900D01*
X210108600Y-89250900D01*
X210108600Y-90352900D01*
G37*
G36*
X214860600Y-90352900D02*
G01*
X213258600Y-90352900D01*
X213258600Y-89250900D01*
X214860600Y-89250900D01*
X214860600Y-90352900D01*
G37*
G36*
X219760600Y-90352900D02*
G01*
X218158600Y-90352900D01*
X218158600Y-89250900D01*
X219760600Y-89250900D01*
X219760600Y-90352900D01*
G37*
G36*
X224512600Y-90352900D02*
G01*
X222910600Y-90352900D01*
X222910600Y-89250900D01*
X224512600Y-89250900D01*
X224512600Y-90352900D01*
G37*
G36*
X60428600Y-90352900D02*
G01*
X58826600Y-90352900D01*
X58826600Y-89250900D01*
X60428600Y-89250900D01*
X60428600Y-90352900D01*
G37*
G36*
X152196600Y-90352900D02*
G01*
X150594600Y-90352900D01*
X150594600Y-89250900D01*
X152196600Y-89250900D01*
X152196600Y-90352900D01*
G37*
G36*
X137644600Y-90352900D02*
G01*
X136042600Y-90352900D01*
X136042600Y-89250900D01*
X137644600Y-89250900D01*
X137644600Y-90352900D01*
G37*
G36*
X123240600Y-90352900D02*
G01*
X121638600Y-90352900D01*
X121638600Y-89250900D01*
X123240600Y-89250900D01*
X123240600Y-90352900D01*
G37*
G36*
X113588600Y-90352900D02*
G01*
X111986600Y-90352900D01*
X111986600Y-89250900D01*
X113588600Y-89250900D01*
X113588600Y-90352900D01*
G37*
G36*
X142544600Y-90352900D02*
G01*
X140942600Y-90352900D01*
X140942600Y-89250900D01*
X142544600Y-89250900D01*
X142544600Y-90352900D01*
G37*
G36*
X132892600Y-90352900D02*
G01*
X131290600Y-90352900D01*
X131290600Y-89250900D01*
X132892600Y-89250900D01*
X132892600Y-90352900D01*
G37*
G36*
X108688600Y-90352900D02*
G01*
X107086600Y-90352900D01*
X107086600Y-89250900D01*
X108688600Y-89250900D01*
X108688600Y-90352900D01*
G37*
G36*
X127992600Y-90352900D02*
G01*
X126390600Y-90352900D01*
X126390600Y-89250900D01*
X127992600Y-89250900D01*
X127992600Y-90352900D01*
G37*
G36*
X147296600Y-90352900D02*
G01*
X145694600Y-90352900D01*
X145694600Y-89250900D01*
X147296600Y-89250900D01*
X147296600Y-90352900D01*
G37*
G36*
X190804600Y-90352900D02*
G01*
X189202600Y-90352900D01*
X189202600Y-89250900D01*
X190804600Y-89250900D01*
X190804600Y-90352900D01*
G37*
G36*
X156948600Y-90352900D02*
G01*
X155346600Y-90352900D01*
X155346600Y-89250900D01*
X156948600Y-89250900D01*
X156948600Y-90352900D01*
G37*
G36*
X46024600Y-90352900D02*
G01*
X44422600Y-90352900D01*
X44422600Y-89250900D01*
X46024600Y-89250900D01*
X46024600Y-90352900D01*
G37*
G36*
X166600600Y-90352900D02*
G01*
X164998600Y-90352900D01*
X164998600Y-89250900D01*
X166600600Y-89250900D01*
X166600600Y-90352900D01*
G37*
G36*
X195556600Y-90352900D02*
G01*
X193954600Y-90352900D01*
X193954600Y-89250900D01*
X195556600Y-89250900D01*
X195556600Y-90352900D01*
G37*
G36*
X99036600Y-90352900D02*
G01*
X97434600Y-90352900D01*
X97434600Y-89250900D01*
X99036600Y-89250900D01*
X99036600Y-90352900D01*
G37*
G36*
X65328600Y-90352900D02*
G01*
X63726600Y-90352900D01*
X63726600Y-89250900D01*
X65328600Y-89250900D01*
X65328600Y-90352900D01*
G37*
G36*
X50776600Y-90352900D02*
G01*
X49174600Y-90352900D01*
X49174600Y-89250900D01*
X50776600Y-89250900D01*
X50776600Y-90352900D01*
G37*
G36*
X185904600Y-90352900D02*
G01*
X184302600Y-90352900D01*
X184302600Y-89250900D01*
X185904600Y-89250900D01*
X185904600Y-90352900D01*
G37*
G36*
X181152600Y-90352900D02*
G01*
X179550600Y-90352900D01*
X179550600Y-89250900D01*
X181152600Y-89250900D01*
X181152600Y-90352900D01*
G37*
G36*
X55676600Y-90352900D02*
G01*
X54074600Y-90352900D01*
X54074600Y-89250900D01*
X55676600Y-89250900D01*
X55676600Y-90352900D01*
G37*
G36*
X176252600Y-90352900D02*
G01*
X174650600Y-90352900D01*
X174650600Y-89250900D01*
X176252600Y-89250900D01*
X176252600Y-90352900D01*
G37*
G36*
X171500600Y-90352900D02*
G01*
X169898600Y-90352900D01*
X169898600Y-89250900D01*
X171500600Y-89250900D01*
X171500600Y-90352900D01*
G37*
G36*
X41124600Y-90352900D02*
G01*
X39522600Y-90352900D01*
X39522600Y-89250900D01*
X41124600Y-89250900D01*
X41124600Y-90352900D01*
G37*
G36*
X161848600Y-90352900D02*
G01*
X160246600Y-90352900D01*
X160246600Y-89250900D01*
X161848600Y-89250900D01*
X161848600Y-90352900D01*
G37*
G36*
X28338928Y-88424764D02*
G01*
X28360009Y-88431160D01*
X28379445Y-88441548D01*
X28396476Y-88455524D01*
X28410452Y-88472555D01*
X28420840Y-88491991D01*
X28427236Y-88513072D01*
X28430000Y-88541140D01*
X28430000Y-89004860D01*
X28427236Y-89032928D01*
X28420840Y-89054009D01*
X28410452Y-89073445D01*
X28396476Y-89090476D01*
X28379445Y-89104452D01*
X28360009Y-89114840D01*
X28338928Y-89121236D01*
X28310860Y-89124000D01*
X26397140Y-89124000D01*
X26369072Y-89121236D01*
X26347991Y-89114840D01*
X26328555Y-89104452D01*
X26311524Y-89090476D01*
X26297548Y-89073445D01*
X26287160Y-89054009D01*
X26280764Y-89032928D01*
X26278000Y-89004860D01*
X26278000Y-88541140D01*
X26280764Y-88513072D01*
X26287160Y-88491991D01*
X26297548Y-88472555D01*
X26311524Y-88455524D01*
X26328555Y-88441548D01*
X26347991Y-88431160D01*
X26369072Y-88424764D01*
X26397140Y-88422000D01*
X28310860Y-88422000D01*
X28338928Y-88424764D01*
G37*
G36*
X37638928Y-88424764D02*
G01*
X37660009Y-88431160D01*
X37679445Y-88441548D01*
X37696476Y-88455524D01*
X37710452Y-88472555D01*
X37720840Y-88491991D01*
X37727236Y-88513072D01*
X37730000Y-88541140D01*
X37730000Y-89004860D01*
X37727236Y-89032928D01*
X37720840Y-89054009D01*
X37710452Y-89073445D01*
X37696476Y-89090476D01*
X37679445Y-89104452D01*
X37660009Y-89114840D01*
X37638928Y-89121236D01*
X37610860Y-89124000D01*
X35697140Y-89124000D01*
X35669072Y-89121236D01*
X35647991Y-89114840D01*
X35628555Y-89104452D01*
X35611524Y-89090476D01*
X35597548Y-89073445D01*
X35587160Y-89054009D01*
X35580764Y-89032928D01*
X35578000Y-89004860D01*
X35578000Y-88541140D01*
X35580764Y-88513072D01*
X35587160Y-88491991D01*
X35597548Y-88472555D01*
X35611524Y-88455524D01*
X35628555Y-88441548D01*
X35647991Y-88431160D01*
X35669072Y-88424764D01*
X35697140Y-88422000D01*
X37610860Y-88422000D01*
X37638928Y-88424764D01*
G37*
G36*
X28338928Y-87154764D02*
G01*
X28360009Y-87161160D01*
X28379445Y-87171548D01*
X28396476Y-87185524D01*
X28410452Y-87202555D01*
X28420840Y-87221991D01*
X28427236Y-87243072D01*
X28430000Y-87271140D01*
X28430000Y-87734860D01*
X28427236Y-87762928D01*
X28420840Y-87784009D01*
X28410452Y-87803445D01*
X28396476Y-87820476D01*
X28379445Y-87834452D01*
X28360009Y-87844840D01*
X28338928Y-87851236D01*
X28310860Y-87854000D01*
X26397140Y-87854000D01*
X26369072Y-87851236D01*
X26347991Y-87844840D01*
X26328555Y-87834452D01*
X26311524Y-87820476D01*
X26297548Y-87803445D01*
X26287160Y-87784009D01*
X26280764Y-87762928D01*
X26278000Y-87734860D01*
X26278000Y-87271140D01*
X26280764Y-87243072D01*
X26287160Y-87221991D01*
X26297548Y-87202555D01*
X26311524Y-87185524D01*
X26328555Y-87171548D01*
X26347991Y-87161160D01*
X26369072Y-87154764D01*
X26397140Y-87152000D01*
X28310860Y-87152000D01*
X28338928Y-87154764D01*
G37*
G36*
X37638928Y-87154764D02*
G01*
X37660009Y-87161160D01*
X37679445Y-87171548D01*
X37696476Y-87185524D01*
X37710452Y-87202555D01*
X37720840Y-87221991D01*
X37727236Y-87243072D01*
X37730000Y-87271140D01*
X37730000Y-87734860D01*
X37727236Y-87762928D01*
X37720840Y-87784009D01*
X37710452Y-87803445D01*
X37696476Y-87820476D01*
X37679445Y-87834452D01*
X37660009Y-87844840D01*
X37638928Y-87851236D01*
X37610860Y-87854000D01*
X35697140Y-87854000D01*
X35669072Y-87851236D01*
X35647991Y-87844840D01*
X35628555Y-87834452D01*
X35611524Y-87820476D01*
X35597548Y-87803445D01*
X35587160Y-87784009D01*
X35580764Y-87762928D01*
X35578000Y-87734860D01*
X35578000Y-87271140D01*
X35580764Y-87243072D01*
X35587160Y-87221991D01*
X35597548Y-87202555D01*
X35611524Y-87185524D01*
X35628555Y-87171548D01*
X35647991Y-87161160D01*
X35669072Y-87154764D01*
X35697140Y-87152000D01*
X37610860Y-87152000D01*
X37638928Y-87154764D01*
G37*
G36*
X40081468Y-86763565D02*
G01*
X40120138Y-86775296D01*
X40155777Y-86794346D01*
X40187017Y-86819983D01*
X40212654Y-86851223D01*
X40231704Y-86886862D01*
X40243435Y-86925532D01*
X40248000Y-86971888D01*
X40248000Y-87623112D01*
X40243435Y-87669468D01*
X40231704Y-87708138D01*
X40212654Y-87743777D01*
X40187017Y-87775017D01*
X40155777Y-87800654D01*
X40120138Y-87819704D01*
X40081468Y-87831435D01*
X40035112Y-87836000D01*
X38958888Y-87836000D01*
X38912532Y-87831435D01*
X38873862Y-87819704D01*
X38838223Y-87800654D01*
X38806983Y-87775017D01*
X38781346Y-87743777D01*
X38762296Y-87708138D01*
X38750565Y-87669468D01*
X38746000Y-87623112D01*
X38746000Y-86971888D01*
X38750565Y-86925532D01*
X38762296Y-86886862D01*
X38781346Y-86851223D01*
X38806983Y-86819983D01*
X38838223Y-86794346D01*
X38873862Y-86775296D01*
X38912532Y-86763565D01*
X38958888Y-86759000D01*
X40035112Y-86759000D01*
X40081468Y-86763565D01*
G37*
G36*
X48526000Y-87642000D02*
G01*
X46724000Y-87642000D01*
X46724000Y-85840000D01*
X48526000Y-85840000D01*
X48526000Y-87642000D01*
G37*
G36*
X278523000Y-87261000D02*
G01*
X276721000Y-87261000D01*
X276721000Y-85459000D01*
X278523000Y-85459000D01*
X278523000Y-87261000D01*
G37*
G36*
X37638928Y-85884764D02*
G01*
X37660009Y-85891160D01*
X37679445Y-85901548D01*
X37696476Y-85915524D01*
X37710452Y-85932555D01*
X37720840Y-85951991D01*
X37727236Y-85973072D01*
X37730000Y-86001140D01*
X37730000Y-86464860D01*
X37727236Y-86492928D01*
X37720840Y-86514009D01*
X37710452Y-86533445D01*
X37696476Y-86550476D01*
X37679445Y-86564452D01*
X37660009Y-86574840D01*
X37638928Y-86581236D01*
X37610860Y-86584000D01*
X35697140Y-86584000D01*
X35669072Y-86581236D01*
X35647991Y-86574840D01*
X35628555Y-86564452D01*
X35611524Y-86550476D01*
X35597548Y-86533445D01*
X35587160Y-86514009D01*
X35580764Y-86492928D01*
X35578000Y-86464860D01*
X35578000Y-86001140D01*
X35580764Y-85973072D01*
X35587160Y-85951991D01*
X35597548Y-85932555D01*
X35611524Y-85915524D01*
X35628555Y-85901548D01*
X35647991Y-85891160D01*
X35669072Y-85884764D01*
X35697140Y-85882000D01*
X37610860Y-85882000D01*
X37638928Y-85884764D01*
G37*
G36*
X28338928Y-85884764D02*
G01*
X28360009Y-85891160D01*
X28379445Y-85901548D01*
X28396476Y-85915524D01*
X28410452Y-85932555D01*
X28420840Y-85951991D01*
X28427236Y-85973072D01*
X28430000Y-86001140D01*
X28430000Y-86464860D01*
X28427236Y-86492928D01*
X28420840Y-86514009D01*
X28410452Y-86533445D01*
X28396476Y-86550476D01*
X28379445Y-86564452D01*
X28360009Y-86574840D01*
X28338928Y-86581236D01*
X28310860Y-86584000D01*
X26397140Y-86584000D01*
X26369072Y-86581236D01*
X26347991Y-86574840D01*
X26328555Y-86564452D01*
X26311524Y-86550476D01*
X26297548Y-86533445D01*
X26287160Y-86514009D01*
X26280764Y-86492928D01*
X26278000Y-86464860D01*
X26278000Y-86001140D01*
X26280764Y-85973072D01*
X26287160Y-85951991D01*
X26297548Y-85932555D01*
X26311524Y-85915524D01*
X26328555Y-85901548D01*
X26347991Y-85891160D01*
X26369072Y-85884764D01*
X26397140Y-85882000D01*
X28310860Y-85882000D01*
X28338928Y-85884764D01*
G37*
G36*
X40081468Y-84888565D02*
G01*
X40120138Y-84900296D01*
X40155777Y-84919346D01*
X40187017Y-84944983D01*
X40212654Y-84976223D01*
X40231704Y-85011862D01*
X40243435Y-85050532D01*
X40248000Y-85096888D01*
X40248000Y-85748112D01*
X40243435Y-85794468D01*
X40231704Y-85833138D01*
X40212654Y-85868777D01*
X40187017Y-85900017D01*
X40155777Y-85925654D01*
X40120138Y-85944704D01*
X40081468Y-85956435D01*
X40035112Y-85961000D01*
X38958888Y-85961000D01*
X38912532Y-85956435D01*
X38873862Y-85944704D01*
X38838223Y-85925654D01*
X38806983Y-85900017D01*
X38781346Y-85868777D01*
X38762296Y-85833138D01*
X38750565Y-85794468D01*
X38746000Y-85748112D01*
X38746000Y-85096888D01*
X38750565Y-85050532D01*
X38762296Y-85011862D01*
X38781346Y-84976223D01*
X38806983Y-84944983D01*
X38838223Y-84919346D01*
X38873862Y-84900296D01*
X38912532Y-84888565D01*
X38958888Y-84884000D01*
X40035112Y-84884000D01*
X40081468Y-84888565D01*
G37*
G36*
X37638928Y-84614764D02*
G01*
X37660009Y-84621160D01*
X37679445Y-84631548D01*
X37696476Y-84645524D01*
X37710452Y-84662555D01*
X37720840Y-84681991D01*
X37727236Y-84703072D01*
X37730000Y-84731140D01*
X37730000Y-85194860D01*
X37727236Y-85222928D01*
X37720840Y-85244009D01*
X37710452Y-85263445D01*
X37696476Y-85280476D01*
X37679445Y-85294452D01*
X37660009Y-85304840D01*
X37638928Y-85311236D01*
X37610860Y-85314000D01*
X35697140Y-85314000D01*
X35669072Y-85311236D01*
X35647991Y-85304840D01*
X35628555Y-85294452D01*
X35611524Y-85280476D01*
X35597548Y-85263445D01*
X35587160Y-85244009D01*
X35580764Y-85222928D01*
X35578000Y-85194860D01*
X35578000Y-84731140D01*
X35580764Y-84703072D01*
X35587160Y-84681991D01*
X35597548Y-84662555D01*
X35611524Y-84645524D01*
X35628555Y-84631548D01*
X35647991Y-84621160D01*
X35669072Y-84614764D01*
X35697140Y-84612000D01*
X37610860Y-84612000D01*
X37638928Y-84614764D01*
G37*
G36*
X28338928Y-84614764D02*
G01*
X28360009Y-84621160D01*
X28379445Y-84631548D01*
X28396476Y-84645524D01*
X28410452Y-84662555D01*
X28420840Y-84681991D01*
X28427236Y-84703072D01*
X28430000Y-84731140D01*
X28430000Y-85194860D01*
X28427236Y-85222928D01*
X28420840Y-85244009D01*
X28410452Y-85263445D01*
X28396476Y-85280476D01*
X28379445Y-85294452D01*
X28360009Y-85304840D01*
X28338928Y-85311236D01*
X28310860Y-85314000D01*
X26397140Y-85314000D01*
X26369072Y-85311236D01*
X26347991Y-85304840D01*
X26328555Y-85294452D01*
X26311524Y-85280476D01*
X26297548Y-85263445D01*
X26287160Y-85244009D01*
X26280764Y-85222928D01*
X26278000Y-85194860D01*
X26278000Y-84731140D01*
X26280764Y-84703072D01*
X26287160Y-84681991D01*
X26297548Y-84662555D01*
X26311524Y-84645524D01*
X26328555Y-84631548D01*
X26347991Y-84621160D01*
X26369072Y-84614764D01*
X26397140Y-84612000D01*
X28310860Y-84612000D01*
X28338928Y-84614764D01*
G37*
G36*
X37638928Y-83344764D02*
G01*
X37660009Y-83351160D01*
X37679445Y-83361548D01*
X37696476Y-83375524D01*
X37710452Y-83392555D01*
X37720840Y-83411991D01*
X37727236Y-83433072D01*
X37730000Y-83461140D01*
X37730000Y-83924860D01*
X37727236Y-83952928D01*
X37720840Y-83974009D01*
X37710452Y-83993445D01*
X37696476Y-84010476D01*
X37679445Y-84024452D01*
X37660009Y-84034840D01*
X37638928Y-84041236D01*
X37610860Y-84044000D01*
X35697140Y-84044000D01*
X35669072Y-84041236D01*
X35647991Y-84034840D01*
X35628555Y-84024452D01*
X35611524Y-84010476D01*
X35597548Y-83993445D01*
X35587160Y-83974009D01*
X35580764Y-83952928D01*
X35578000Y-83924860D01*
X35578000Y-83461140D01*
X35580764Y-83433072D01*
X35587160Y-83411991D01*
X35597548Y-83392555D01*
X35611524Y-83375524D01*
X35628555Y-83361548D01*
X35647991Y-83351160D01*
X35669072Y-83344764D01*
X35697140Y-83342000D01*
X37610860Y-83342000D01*
X37638928Y-83344764D01*
G37*
G36*
X28338928Y-83344764D02*
G01*
X28360009Y-83351160D01*
X28379445Y-83361548D01*
X28396476Y-83375524D01*
X28410452Y-83392555D01*
X28420840Y-83411991D01*
X28427236Y-83433072D01*
X28430000Y-83461140D01*
X28430000Y-83924860D01*
X28427236Y-83952928D01*
X28420840Y-83974009D01*
X28410452Y-83993445D01*
X28396476Y-84010476D01*
X28379445Y-84024452D01*
X28360009Y-84034840D01*
X28338928Y-84041236D01*
X28310860Y-84044000D01*
X26397140Y-84044000D01*
X26369072Y-84041236D01*
X26347991Y-84034840D01*
X26328555Y-84024452D01*
X26311524Y-84010476D01*
X26297548Y-83993445D01*
X26287160Y-83974009D01*
X26280764Y-83952928D01*
X26278000Y-83924860D01*
X26278000Y-83461140D01*
X26280764Y-83433072D01*
X26287160Y-83411991D01*
X26297548Y-83392555D01*
X26311524Y-83375524D01*
X26328555Y-83361548D01*
X26347991Y-83351160D01*
X26369072Y-83344764D01*
X26397140Y-83342000D01*
X28310860Y-83342000D01*
X28338928Y-83344764D01*
G37*
G36*
X55676600Y-83316700D02*
G01*
X54074600Y-83316700D01*
X54074600Y-82214700D01*
X55676600Y-82214700D01*
X55676600Y-83316700D01*
G37*
G36*
X50776600Y-83316700D02*
G01*
X49174600Y-83316700D01*
X49174600Y-82214700D01*
X50776600Y-82214700D01*
X50776600Y-83316700D01*
G37*
G36*
X65328600Y-83316700D02*
G01*
X63726600Y-83316700D01*
X63726600Y-82214700D01*
X65328600Y-82214700D01*
X65328600Y-83316700D01*
G37*
G36*
X60428600Y-83316700D02*
G01*
X58826600Y-83316700D01*
X58826600Y-82214700D01*
X60428600Y-82214700D01*
X60428600Y-83316700D01*
G37*
G36*
X74980600Y-83316700D02*
G01*
X73378600Y-83316700D01*
X73378600Y-82214700D01*
X74980600Y-82214700D01*
X74980600Y-83316700D01*
G37*
G36*
X70080600Y-83316700D02*
G01*
X68478600Y-83316700D01*
X68478600Y-82214700D01*
X70080600Y-82214700D01*
X70080600Y-83316700D01*
G37*
G36*
X84632600Y-83316700D02*
G01*
X83030600Y-83316700D01*
X83030600Y-82214700D01*
X84632600Y-82214700D01*
X84632600Y-83316700D01*
G37*
G36*
X79732600Y-83316700D02*
G01*
X78130600Y-83316700D01*
X78130600Y-82214700D01*
X79732600Y-82214700D01*
X79732600Y-83316700D01*
G37*
G36*
X94284600Y-83316700D02*
G01*
X92682600Y-83316700D01*
X92682600Y-82214700D01*
X94284600Y-82214700D01*
X94284600Y-83316700D01*
G37*
G36*
X89384600Y-83316700D02*
G01*
X87782600Y-83316700D01*
X87782600Y-82214700D01*
X89384600Y-82214700D01*
X89384600Y-83316700D01*
G37*
G36*
X103936600Y-83316700D02*
G01*
X102334600Y-83316700D01*
X102334600Y-82214700D01*
X103936600Y-82214700D01*
X103936600Y-83316700D01*
G37*
G36*
X99036600Y-83316700D02*
G01*
X97434600Y-83316700D01*
X97434600Y-82214700D01*
X99036600Y-82214700D01*
X99036600Y-83316700D01*
G37*
G36*
X108688600Y-83316700D02*
G01*
X107086600Y-83316700D01*
X107086600Y-82214700D01*
X108688600Y-82214700D01*
X108688600Y-83316700D01*
G37*
G36*
X123240600Y-83316700D02*
G01*
X121638600Y-83316700D01*
X121638600Y-82214700D01*
X123240600Y-82214700D01*
X123240600Y-83316700D01*
G37*
G36*
X118340600Y-83316700D02*
G01*
X116738600Y-83316700D01*
X116738600Y-82214700D01*
X118340600Y-82214700D01*
X118340600Y-83316700D01*
G37*
G36*
X132892600Y-83316700D02*
G01*
X131290600Y-83316700D01*
X131290600Y-82214700D01*
X132892600Y-82214700D01*
X132892600Y-83316700D01*
G37*
G36*
X127992600Y-83316700D02*
G01*
X126390600Y-83316700D01*
X126390600Y-82214700D01*
X127992600Y-82214700D01*
X127992600Y-83316700D01*
G37*
G36*
X142544600Y-83316700D02*
G01*
X140942600Y-83316700D01*
X140942600Y-82214700D01*
X142544600Y-82214700D01*
X142544600Y-83316700D01*
G37*
G36*
X137644600Y-83316700D02*
G01*
X136042600Y-83316700D01*
X136042600Y-82214700D01*
X137644600Y-82214700D01*
X137644600Y-83316700D01*
G37*
G36*
X152196600Y-83316700D02*
G01*
X150594600Y-83316700D01*
X150594600Y-82214700D01*
X152196600Y-82214700D01*
X152196600Y-83316700D01*
G37*
G36*
X147296600Y-83316700D02*
G01*
X145694600Y-83316700D01*
X145694600Y-82214700D01*
X147296600Y-82214700D01*
X147296600Y-83316700D01*
G37*
G36*
X258368600Y-83316700D02*
G01*
X256766600Y-83316700D01*
X256766600Y-82214700D01*
X258368600Y-82214700D01*
X258368600Y-83316700D01*
G37*
G36*
X253468600Y-83316700D02*
G01*
X251866600Y-83316700D01*
X251866600Y-82214700D01*
X253468600Y-82214700D01*
X253468600Y-83316700D01*
G37*
G36*
X268020600Y-83316700D02*
G01*
X266418600Y-83316700D01*
X266418600Y-82214700D01*
X268020600Y-82214700D01*
X268020600Y-83316700D01*
G37*
G36*
X263120600Y-83316700D02*
G01*
X261518600Y-83316700D01*
X261518600Y-82214700D01*
X263120600Y-82214700D01*
X263120600Y-83316700D01*
G37*
G36*
X113588600Y-83316700D02*
G01*
X111986600Y-83316700D01*
X111986600Y-82214700D01*
X113588600Y-82214700D01*
X113588600Y-83316700D01*
G37*
G36*
X248716600Y-83316700D02*
G01*
X247114600Y-83316700D01*
X247114600Y-82214700D01*
X248716600Y-82214700D01*
X248716600Y-83316700D01*
G37*
G36*
X239064600Y-83316700D02*
G01*
X237462600Y-83316700D01*
X237462600Y-82214700D01*
X239064600Y-82214700D01*
X239064600Y-83316700D01*
G37*
G36*
X234164600Y-83316700D02*
G01*
X232562600Y-83316700D01*
X232562600Y-82214700D01*
X234164600Y-82214700D01*
X234164600Y-83316700D01*
G37*
G36*
X229412600Y-83316700D02*
G01*
X227810600Y-83316700D01*
X227810600Y-82214700D01*
X229412600Y-82214700D01*
X229412600Y-83316700D01*
G37*
G36*
X224512600Y-83316700D02*
G01*
X222910600Y-83316700D01*
X222910600Y-82214700D01*
X224512600Y-82214700D01*
X224512600Y-83316700D01*
G37*
G36*
X219760600Y-83316700D02*
G01*
X218158600Y-83316700D01*
X218158600Y-82214700D01*
X219760600Y-82214700D01*
X219760600Y-83316700D01*
G37*
G36*
X214860600Y-83316700D02*
G01*
X213258600Y-83316700D01*
X213258600Y-82214700D01*
X214860600Y-82214700D01*
X214860600Y-83316700D01*
G37*
G36*
X210108600Y-83316700D02*
G01*
X208506600Y-83316700D01*
X208506600Y-82214700D01*
X210108600Y-82214700D01*
X210108600Y-83316700D01*
G37*
G36*
X205208600Y-83316700D02*
G01*
X203606600Y-83316700D01*
X203606600Y-82214700D01*
X205208600Y-82214700D01*
X205208600Y-83316700D01*
G37*
G36*
X200456600Y-83316700D02*
G01*
X198854600Y-83316700D01*
X198854600Y-82214700D01*
X200456600Y-82214700D01*
X200456600Y-83316700D01*
G37*
G36*
X243816600Y-83316700D02*
G01*
X242214600Y-83316700D01*
X242214600Y-82214700D01*
X243816600Y-82214700D01*
X243816600Y-83316700D01*
G37*
G36*
X195556600Y-83316700D02*
G01*
X193954600Y-83316700D01*
X193954600Y-82214700D01*
X195556600Y-82214700D01*
X195556600Y-83316700D01*
G37*
G36*
X190804600Y-83316700D02*
G01*
X189202600Y-83316700D01*
X189202600Y-82214700D01*
X190804600Y-82214700D01*
X190804600Y-83316700D01*
G37*
G36*
X185904600Y-83316700D02*
G01*
X184302600Y-83316700D01*
X184302600Y-82214700D01*
X185904600Y-82214700D01*
X185904600Y-83316700D01*
G37*
G36*
X181152600Y-83316700D02*
G01*
X179550600Y-83316700D01*
X179550600Y-82214700D01*
X181152600Y-82214700D01*
X181152600Y-83316700D01*
G37*
G36*
X176252600Y-83316700D02*
G01*
X174650600Y-83316700D01*
X174650600Y-82214700D01*
X176252600Y-82214700D01*
X176252600Y-83316700D01*
G37*
G36*
X171500600Y-83316700D02*
G01*
X169898600Y-83316700D01*
X169898600Y-82214700D01*
X171500600Y-82214700D01*
X171500600Y-83316700D01*
G37*
G36*
X166600600Y-83316700D02*
G01*
X164998600Y-83316700D01*
X164998600Y-82214700D01*
X166600600Y-82214700D01*
X166600600Y-83316700D01*
G37*
G36*
X161848600Y-83316700D02*
G01*
X160246600Y-83316700D01*
X160246600Y-82214700D01*
X161848600Y-82214700D01*
X161848600Y-83316700D01*
G37*
G36*
X156948600Y-83316700D02*
G01*
X155346600Y-83316700D01*
X155346600Y-82214700D01*
X156948600Y-82214700D01*
X156948600Y-83316700D01*
G37*
G36*
X41124600Y-83316700D02*
G01*
X39522600Y-83316700D01*
X39522600Y-82214700D01*
X41124600Y-82214700D01*
X41124600Y-83316700D01*
G37*
G36*
X277672600Y-83316700D02*
G01*
X276070600Y-83316700D01*
X276070600Y-82214700D01*
X277672600Y-82214700D01*
X277672600Y-83316700D01*
G37*
G36*
X272772600Y-83316700D02*
G01*
X271170600Y-83316700D01*
X271170600Y-82214700D01*
X272772600Y-82214700D01*
X272772600Y-83316700D01*
G37*
G36*
X46024600Y-83316700D02*
G01*
X44422600Y-83316700D01*
X44422600Y-82214700D01*
X46024600Y-82214700D01*
X46024600Y-83316700D01*
G37*
G36*
X37638928Y-82074764D02*
G01*
X37660009Y-82081160D01*
X37679445Y-82091548D01*
X37696476Y-82105524D01*
X37710452Y-82122555D01*
X37720840Y-82141991D01*
X37727236Y-82163072D01*
X37730000Y-82191140D01*
X37730000Y-82654860D01*
X37727236Y-82682928D01*
X37720840Y-82704009D01*
X37710452Y-82723445D01*
X37696476Y-82740476D01*
X37679445Y-82754452D01*
X37660009Y-82764840D01*
X37638928Y-82771236D01*
X37610860Y-82774000D01*
X35697140Y-82774000D01*
X35669072Y-82771236D01*
X35647991Y-82764840D01*
X35628555Y-82754452D01*
X35611524Y-82740476D01*
X35597548Y-82723445D01*
X35587160Y-82704009D01*
X35580764Y-82682928D01*
X35578000Y-82654860D01*
X35578000Y-82191140D01*
X35580764Y-82163072D01*
X35587160Y-82141991D01*
X35597548Y-82122555D01*
X35611524Y-82105524D01*
X35628555Y-82091548D01*
X35647991Y-82081160D01*
X35669072Y-82074764D01*
X35697140Y-82072000D01*
X37610860Y-82072000D01*
X37638928Y-82074764D01*
G37*
G36*
X28338928Y-82074764D02*
G01*
X28360009Y-82081160D01*
X28379445Y-82091548D01*
X28396476Y-82105524D01*
X28410452Y-82122555D01*
X28420840Y-82141991D01*
X28427236Y-82163072D01*
X28430000Y-82191140D01*
X28430000Y-82654860D01*
X28427236Y-82682928D01*
X28420840Y-82704009D01*
X28410452Y-82723445D01*
X28396476Y-82740476D01*
X28379445Y-82754452D01*
X28360009Y-82764840D01*
X28338928Y-82771236D01*
X28310860Y-82774000D01*
X26397140Y-82774000D01*
X26369072Y-82771236D01*
X26347991Y-82764840D01*
X26328555Y-82754452D01*
X26311524Y-82740476D01*
X26297548Y-82723445D01*
X26287160Y-82704009D01*
X26280764Y-82682928D01*
X26278000Y-82654860D01*
X26278000Y-82191140D01*
X26280764Y-82163072D01*
X26287160Y-82141991D01*
X26297548Y-82122555D01*
X26311524Y-82105524D01*
X26328555Y-82091548D01*
X26347991Y-82081160D01*
X26369072Y-82074764D01*
X26397140Y-82072000D01*
X28310860Y-82072000D01*
X28338928Y-82074764D01*
G37*
G36*
X154381468Y-81508065D02*
G01*
X154420138Y-81519796D01*
X154455777Y-81538846D01*
X154487017Y-81564483D01*
X154512654Y-81595723D01*
X154531704Y-81631362D01*
X154543435Y-81670032D01*
X154548000Y-81716388D01*
X154548000Y-82367612D01*
X154543435Y-82413968D01*
X154531704Y-82452638D01*
X154512654Y-82488277D01*
X154487017Y-82519517D01*
X154455777Y-82545154D01*
X154420138Y-82564204D01*
X154381468Y-82575935D01*
X154335112Y-82580500D01*
X153258888Y-82580500D01*
X153212532Y-82575935D01*
X153173862Y-82564204D01*
X153138223Y-82545154D01*
X153106983Y-82519517D01*
X153081346Y-82488277D01*
X153062296Y-82452638D01*
X153050565Y-82413968D01*
X153046000Y-82367612D01*
X153046000Y-81716388D01*
X153050565Y-81670032D01*
X153062296Y-81631362D01*
X153081346Y-81595723D01*
X153106983Y-81564483D01*
X153138223Y-81538846D01*
X153173862Y-81519796D01*
X153212532Y-81508065D01*
X153258888Y-81503500D01*
X154335112Y-81503500D01*
X154381468Y-81508065D01*
G37*
G36*
X37638928Y-80804764D02*
G01*
X37660009Y-80811160D01*
X37679445Y-80821548D01*
X37696476Y-80835524D01*
X37710452Y-80852555D01*
X37720840Y-80871991D01*
X37727236Y-80893072D01*
X37730000Y-80921140D01*
X37730000Y-81384860D01*
X37727236Y-81412928D01*
X37720840Y-81434009D01*
X37710452Y-81453445D01*
X37696476Y-81470476D01*
X37679445Y-81484452D01*
X37660009Y-81494840D01*
X37638928Y-81501236D01*
X37610860Y-81504000D01*
X35697140Y-81504000D01*
X35669072Y-81501236D01*
X35647991Y-81494840D01*
X35628555Y-81484452D01*
X35611524Y-81470476D01*
X35597548Y-81453445D01*
X35587160Y-81434009D01*
X35580764Y-81412928D01*
X35578000Y-81384860D01*
X35578000Y-80921140D01*
X35580764Y-80893072D01*
X35587160Y-80871991D01*
X35597548Y-80852555D01*
X35611524Y-80835524D01*
X35628555Y-80821548D01*
X35647991Y-80811160D01*
X35669072Y-80804764D01*
X35697140Y-80802000D01*
X37610860Y-80802000D01*
X37638928Y-80804764D01*
G37*
G36*
X28338928Y-80804764D02*
G01*
X28360009Y-80811160D01*
X28379445Y-80821548D01*
X28396476Y-80835524D01*
X28410452Y-80852555D01*
X28420840Y-80871991D01*
X28427236Y-80893072D01*
X28430000Y-80921140D01*
X28430000Y-81384860D01*
X28427236Y-81412928D01*
X28420840Y-81434009D01*
X28410452Y-81453445D01*
X28396476Y-81470476D01*
X28379445Y-81484452D01*
X28360009Y-81494840D01*
X28338928Y-81501236D01*
X28310860Y-81504000D01*
X26397140Y-81504000D01*
X26369072Y-81501236D01*
X26347991Y-81494840D01*
X26328555Y-81484452D01*
X26311524Y-81470476D01*
X26297548Y-81453445D01*
X26287160Y-81434009D01*
X26280764Y-81412928D01*
X26278000Y-81384860D01*
X26278000Y-80921140D01*
X26280764Y-80893072D01*
X26287160Y-80871991D01*
X26297548Y-80852555D01*
X26311524Y-80835524D01*
X26328555Y-80821548D01*
X26347991Y-80811160D01*
X26369072Y-80804764D01*
X26397140Y-80802000D01*
X28310860Y-80802000D01*
X28338928Y-80804764D01*
G37*
G36*
X154381468Y-79633065D02*
G01*
X154420138Y-79644796D01*
X154455777Y-79663846D01*
X154487017Y-79689483D01*
X154512654Y-79720723D01*
X154531704Y-79756362D01*
X154543435Y-79795032D01*
X154548000Y-79841388D01*
X154548000Y-80492612D01*
X154543435Y-80538968D01*
X154531704Y-80577638D01*
X154512654Y-80613277D01*
X154487017Y-80644517D01*
X154455777Y-80670154D01*
X154420138Y-80689204D01*
X154381468Y-80700935D01*
X154335112Y-80705500D01*
X153258888Y-80705500D01*
X153212532Y-80700935D01*
X153173862Y-80689204D01*
X153138223Y-80670154D01*
X153106983Y-80644517D01*
X153081346Y-80613277D01*
X153062296Y-80577638D01*
X153050565Y-80538968D01*
X153046000Y-80492612D01*
X153046000Y-79841388D01*
X153050565Y-79795032D01*
X153062296Y-79756362D01*
X153081346Y-79720723D01*
X153106983Y-79689483D01*
X153138223Y-79663846D01*
X153173862Y-79644796D01*
X153212532Y-79633065D01*
X153258888Y-79628500D01*
X154335112Y-79628500D01*
X154381468Y-79633065D01*
G37*
G36*
X50776600Y-80116700D02*
G01*
X49174600Y-80116700D01*
X49174600Y-79014700D01*
X50776600Y-79014700D01*
X50776600Y-80116700D01*
G37*
G36*
X65328600Y-80116700D02*
G01*
X63726600Y-80116700D01*
X63726600Y-79014700D01*
X65328600Y-79014700D01*
X65328600Y-80116700D01*
G37*
G36*
X248716600Y-80116700D02*
G01*
X247114600Y-80116700D01*
X247114600Y-79014700D01*
X248716600Y-79014700D01*
X248716600Y-80116700D01*
G37*
G36*
X243816600Y-80116700D02*
G01*
X242214600Y-80116700D01*
X242214600Y-79014700D01*
X243816600Y-79014700D01*
X243816600Y-80116700D01*
G37*
G36*
X60428600Y-80116700D02*
G01*
X58826600Y-80116700D01*
X58826600Y-79014700D01*
X60428600Y-79014700D01*
X60428600Y-80116700D01*
G37*
G36*
X239064600Y-80116700D02*
G01*
X237462600Y-80116700D01*
X237462600Y-79014700D01*
X239064600Y-79014700D01*
X239064600Y-80116700D01*
G37*
G36*
X74980600Y-80116700D02*
G01*
X73378600Y-80116700D01*
X73378600Y-79014700D01*
X74980600Y-79014700D01*
X74980600Y-80116700D01*
G37*
G36*
X234164600Y-80116700D02*
G01*
X232562600Y-80116700D01*
X232562600Y-79014700D01*
X234164600Y-79014700D01*
X234164600Y-80116700D01*
G37*
G36*
X113588600Y-80116700D02*
G01*
X111986600Y-80116700D01*
X111986600Y-79014700D01*
X113588600Y-79014700D01*
X113588600Y-80116700D01*
G37*
G36*
X229412600Y-80116700D02*
G01*
X227810600Y-80116700D01*
X227810600Y-79014700D01*
X229412600Y-79014700D01*
X229412600Y-80116700D01*
G37*
G36*
X84632600Y-80116700D02*
G01*
X83030600Y-80116700D01*
X83030600Y-79014700D01*
X84632600Y-79014700D01*
X84632600Y-80116700D01*
G37*
G36*
X224512600Y-80116700D02*
G01*
X222910600Y-80116700D01*
X222910600Y-79014700D01*
X224512600Y-79014700D01*
X224512600Y-80116700D01*
G37*
G36*
X79732600Y-80116700D02*
G01*
X78130600Y-80116700D01*
X78130600Y-79014700D01*
X79732600Y-79014700D01*
X79732600Y-80116700D01*
G37*
G36*
X219760600Y-80116700D02*
G01*
X218158600Y-80116700D01*
X218158600Y-79014700D01*
X219760600Y-79014700D01*
X219760600Y-80116700D01*
G37*
G36*
X94284600Y-80116700D02*
G01*
X92682600Y-80116700D01*
X92682600Y-79014700D01*
X94284600Y-79014700D01*
X94284600Y-80116700D01*
G37*
G36*
X214860600Y-80116700D02*
G01*
X213258600Y-80116700D01*
X213258600Y-79014700D01*
X214860600Y-79014700D01*
X214860600Y-80116700D01*
G37*
G36*
X210108600Y-80116700D02*
G01*
X208506600Y-80116700D01*
X208506600Y-79014700D01*
X210108600Y-79014700D01*
X210108600Y-80116700D01*
G37*
G36*
X103936600Y-80116700D02*
G01*
X102334600Y-80116700D01*
X102334600Y-79014700D01*
X103936600Y-79014700D01*
X103936600Y-80116700D01*
G37*
G36*
X205208600Y-80116700D02*
G01*
X203606600Y-80116700D01*
X203606600Y-79014700D01*
X205208600Y-79014700D01*
X205208600Y-80116700D01*
G37*
G36*
X99036600Y-80116700D02*
G01*
X97434600Y-80116700D01*
X97434600Y-79014700D01*
X99036600Y-79014700D01*
X99036600Y-80116700D01*
G37*
G36*
X200456600Y-80116700D02*
G01*
X198854600Y-80116700D01*
X198854600Y-79014700D01*
X200456600Y-79014700D01*
X200456600Y-80116700D01*
G37*
G36*
X272772600Y-80116700D02*
G01*
X271170600Y-80116700D01*
X271170600Y-79014700D01*
X272772600Y-79014700D01*
X272772600Y-80116700D01*
G37*
G36*
X46024600Y-80116700D02*
G01*
X44422600Y-80116700D01*
X44422600Y-79014700D01*
X46024600Y-79014700D01*
X46024600Y-80116700D01*
G37*
G36*
X41124600Y-80116700D02*
G01*
X39522600Y-80116700D01*
X39522600Y-79014700D01*
X41124600Y-79014700D01*
X41124600Y-80116700D01*
G37*
G36*
X277672600Y-80116700D02*
G01*
X276070600Y-80116700D01*
X276070600Y-79014700D01*
X277672600Y-79014700D01*
X277672600Y-80116700D01*
G37*
G36*
X70080600Y-80116700D02*
G01*
X68478600Y-80116700D01*
X68478600Y-79014700D01*
X70080600Y-79014700D01*
X70080600Y-80116700D01*
G37*
G36*
X142544600Y-80116700D02*
G01*
X140942600Y-80116700D01*
X140942600Y-79014700D01*
X142544600Y-79014700D01*
X142544600Y-80116700D01*
G37*
G36*
X195556600Y-80116700D02*
G01*
X193954600Y-80116700D01*
X193954600Y-79014700D01*
X195556600Y-79014700D01*
X195556600Y-80116700D01*
G37*
G36*
X171500600Y-80116700D02*
G01*
X169898600Y-80116700D01*
X169898600Y-79014700D01*
X171500600Y-79014700D01*
X171500600Y-80116700D01*
G37*
G36*
X127992600Y-80116700D02*
G01*
X126390600Y-80116700D01*
X126390600Y-79014700D01*
X127992600Y-79014700D01*
X127992600Y-80116700D01*
G37*
G36*
X176252600Y-80116700D02*
G01*
X174650600Y-80116700D01*
X174650600Y-79014700D01*
X176252600Y-79014700D01*
X176252600Y-80116700D01*
G37*
G36*
X132892600Y-80116700D02*
G01*
X131290600Y-80116700D01*
X131290600Y-79014700D01*
X132892600Y-79014700D01*
X132892600Y-80116700D01*
G37*
G36*
X181152600Y-80116700D02*
G01*
X179550600Y-80116700D01*
X179550600Y-79014700D01*
X181152600Y-79014700D01*
X181152600Y-80116700D01*
G37*
G36*
X118340600Y-80116700D02*
G01*
X116738600Y-80116700D01*
X116738600Y-79014700D01*
X118340600Y-79014700D01*
X118340600Y-80116700D01*
G37*
G36*
X185904600Y-80116700D02*
G01*
X184302600Y-80116700D01*
X184302600Y-79014700D01*
X185904600Y-79014700D01*
X185904600Y-80116700D01*
G37*
G36*
X166600600Y-80116700D02*
G01*
X164998600Y-80116700D01*
X164998600Y-79014700D01*
X166600600Y-79014700D01*
X166600600Y-80116700D01*
G37*
G36*
X123240600Y-80116700D02*
G01*
X121638600Y-80116700D01*
X121638600Y-79014700D01*
X123240600Y-79014700D01*
X123240600Y-80116700D01*
G37*
G36*
X190804600Y-80116700D02*
G01*
X189202600Y-80116700D01*
X189202600Y-79014700D01*
X190804600Y-79014700D01*
X190804600Y-80116700D01*
G37*
G36*
X89384600Y-80116700D02*
G01*
X87782600Y-80116700D01*
X87782600Y-79014700D01*
X89384600Y-79014700D01*
X89384600Y-80116700D01*
G37*
G36*
X55676600Y-80116700D02*
G01*
X54074600Y-80116700D01*
X54074600Y-79014700D01*
X55676600Y-79014700D01*
X55676600Y-80116700D01*
G37*
G36*
X263120600Y-80116700D02*
G01*
X261518600Y-80116700D01*
X261518600Y-79014700D01*
X263120600Y-79014700D01*
X263120600Y-80116700D01*
G37*
G36*
X268020600Y-80116700D02*
G01*
X266418600Y-80116700D01*
X266418600Y-79014700D01*
X268020600Y-79014700D01*
X268020600Y-80116700D01*
G37*
G36*
X253468600Y-80116700D02*
G01*
X251866600Y-80116700D01*
X251866600Y-79014700D01*
X253468600Y-79014700D01*
X253468600Y-80116700D01*
G37*
G36*
X258368600Y-80116700D02*
G01*
X256766600Y-80116700D01*
X256766600Y-79014700D01*
X258368600Y-79014700D01*
X258368600Y-80116700D01*
G37*
G36*
X147296600Y-80116700D02*
G01*
X145694600Y-80116700D01*
X145694600Y-79014700D01*
X147296600Y-79014700D01*
X147296600Y-80116700D01*
G37*
G36*
X156948600Y-80116700D02*
G01*
X155346600Y-80116700D01*
X155346600Y-79014700D01*
X156948600Y-79014700D01*
X156948600Y-80116700D01*
G37*
G36*
X152196600Y-80116700D02*
G01*
X150594600Y-80116700D01*
X150594600Y-79014700D01*
X152196600Y-79014700D01*
X152196600Y-80116700D01*
G37*
G36*
X161848600Y-80116700D02*
G01*
X160246600Y-80116700D01*
X160246600Y-79014700D01*
X161848600Y-79014700D01*
X161848600Y-80116700D01*
G37*
G36*
X137644600Y-80116700D02*
G01*
X136042600Y-80116700D01*
X136042600Y-79014700D01*
X137644600Y-79014700D01*
X137644600Y-80116700D01*
G37*
G36*
X108688600Y-80116700D02*
G01*
X107086600Y-80116700D01*
X107086600Y-79014700D01*
X108688600Y-79014700D01*
X108688600Y-80116700D01*
G37*
G36*
X38278000Y-79553000D02*
G01*
X29540000Y-79553000D01*
X29540000Y-76657000D01*
X38278000Y-76657000D01*
X38278000Y-79553000D01*
G37*
G36*
X269822890Y-76749619D02*
G01*
X269887289Y-76762429D01*
X270069278Y-76837811D01*
X270233063Y-76947249D01*
X270372351Y-77086537D01*
X270481789Y-77250322D01*
X270557171Y-77432311D01*
X270557171Y-77432312D01*
X270595600Y-77625507D01*
X270595600Y-77822493D01*
X270569981Y-77951290D01*
X270557171Y-78015689D01*
X270481789Y-78197678D01*
X270372351Y-78361463D01*
X270233063Y-78500751D01*
X270069278Y-78610189D01*
X269887289Y-78685571D01*
X269822890Y-78698381D01*
X269694093Y-78724000D01*
X269497107Y-78724000D01*
X269368310Y-78698381D01*
X269303911Y-78685571D01*
X269121922Y-78610189D01*
X268958137Y-78500751D01*
X268818849Y-78361463D01*
X268709411Y-78197678D01*
X268634029Y-78015689D01*
X268621219Y-77951290D01*
X268595600Y-77822493D01*
X268595600Y-77625507D01*
X268634029Y-77432312D01*
X268634029Y-77432311D01*
X268709411Y-77250322D01*
X268818849Y-77086537D01*
X268958137Y-76947249D01*
X269121922Y-76837811D01*
X269303911Y-76762429D01*
X269368310Y-76749619D01*
X269497107Y-76724000D01*
X269694093Y-76724000D01*
X269822890Y-76749619D01*
G37*
G36*
X265289512Y-76700927D02*
G01*
X265438812Y-76730624D01*
X265602784Y-76798544D01*
X265750354Y-76897147D01*
X265875853Y-77022646D01*
X265974456Y-77170216D01*
X266042376Y-77334188D01*
X266077000Y-77508259D01*
X266077000Y-77685741D01*
X266042376Y-77859812D01*
X265974456Y-78023784D01*
X265875853Y-78171354D01*
X265750354Y-78296853D01*
X265602784Y-78395456D01*
X265438812Y-78463376D01*
X265289512Y-78493073D01*
X265264742Y-78498000D01*
X265087258Y-78498000D01*
X265062488Y-78493073D01*
X264913188Y-78463376D01*
X264749216Y-78395456D01*
X264601646Y-78296853D01*
X264476147Y-78171354D01*
X264377544Y-78023784D01*
X264309624Y-77859812D01*
X264275000Y-77685741D01*
X264275000Y-77508259D01*
X264309624Y-77334188D01*
X264377544Y-77170216D01*
X264476147Y-77022646D01*
X264601646Y-76897147D01*
X264749216Y-76798544D01*
X264913188Y-76730624D01*
X265062488Y-76700927D01*
X265087258Y-76696000D01*
X265264742Y-76696000D01*
X265289512Y-76700927D01*
G37*
G36*
X262749512Y-76700927D02*
G01*
X262898812Y-76730624D01*
X263062784Y-76798544D01*
X263210354Y-76897147D01*
X263335853Y-77022646D01*
X263434456Y-77170216D01*
X263502376Y-77334188D01*
X263537000Y-77508259D01*
X263537000Y-77685741D01*
X263502376Y-77859812D01*
X263434456Y-78023784D01*
X263335853Y-78171354D01*
X263210354Y-78296853D01*
X263062784Y-78395456D01*
X262898812Y-78463376D01*
X262749512Y-78493073D01*
X262724742Y-78498000D01*
X262547258Y-78498000D01*
X262522488Y-78493073D01*
X262373188Y-78463376D01*
X262209216Y-78395456D01*
X262061646Y-78296853D01*
X261936147Y-78171354D01*
X261837544Y-78023784D01*
X261769624Y-77859812D01*
X261735000Y-77685741D01*
X261735000Y-77508259D01*
X261769624Y-77334188D01*
X261837544Y-77170216D01*
X261936147Y-77022646D01*
X262061646Y-76897147D01*
X262209216Y-76798544D01*
X262373188Y-76730624D01*
X262522488Y-76700927D01*
X262547258Y-76696000D01*
X262724742Y-76696000D01*
X262749512Y-76700927D01*
G37*
G36*
X260209512Y-76700927D02*
G01*
X260358812Y-76730624D01*
X260522784Y-76798544D01*
X260670354Y-76897147D01*
X260795853Y-77022646D01*
X260894456Y-77170216D01*
X260962376Y-77334188D01*
X260997000Y-77508259D01*
X260997000Y-77685741D01*
X260962376Y-77859812D01*
X260894456Y-78023784D01*
X260795853Y-78171354D01*
X260670354Y-78296853D01*
X260522784Y-78395456D01*
X260358812Y-78463376D01*
X260209512Y-78493073D01*
X260184742Y-78498000D01*
X260007258Y-78498000D01*
X259982488Y-78493073D01*
X259833188Y-78463376D01*
X259669216Y-78395456D01*
X259521646Y-78296853D01*
X259396147Y-78171354D01*
X259297544Y-78023784D01*
X259229624Y-77859812D01*
X259195000Y-77685741D01*
X259195000Y-77508259D01*
X259229624Y-77334188D01*
X259297544Y-77170216D01*
X259396147Y-77022646D01*
X259521646Y-76897147D01*
X259669216Y-76798544D01*
X259833188Y-76730624D01*
X259982488Y-76700927D01*
X260007258Y-76696000D01*
X260184742Y-76696000D01*
X260209512Y-76700927D01*
G37*
G36*
X258457000Y-78498000D02*
G01*
X256655000Y-78498000D01*
X256655000Y-76696000D01*
X258457000Y-76696000D01*
X258457000Y-78498000D01*
G37*
M02*
