M48
; DRILL file {KiCad (5.1.5)-3} date 7/15/2020 5:33:49 AM
; FORMAT={-:-/ absolute / inch / decimal}
; #@! TF.CreationDate,2020-07-15T05:33:49-07:00
; #@! TF.GenerationSoftware,Kicad,Pcbnew,(5.1.5)-3
; #@! TF.FileFunction,Plated,1,2,PTH
FMAT,2
INCH
T1C0.0157
T2C0.0197
T3C0.0217
T4C0.0394
%
G90
G05
T1
X1.05Y-4.27
X1.1362Y-3.4701
X1.145Y-3.57
X1.255Y-4.42
X1.26Y-4.095
X1.26Y-4.145
X1.2805Y-3.645
X1.31Y-4.095
X1.31Y-4.145
X1.36Y-4.095
X1.36Y-4.145
X1.435Y-4.355
X1.45Y-4.0
X1.45Y-4.05
X1.45Y-4.1
X1.45Y-4.15
X1.5Y-4.0
X1.5Y-4.05
X1.5Y-4.1
X1.5Y-4.15
X1.645Y-3.05
X1.645Y-4.2
X1.645Y-4.55
X1.67Y-3.1935
X1.745Y-3.05
X1.745Y-3.8
X1.745Y-4.2
X1.745Y-4.55
X1.78Y-3.215
X1.845Y-3.05
X1.845Y-3.8
X1.845Y-4.2
X1.845Y-4.55
X1.945Y-3.05
X1.945Y-3.8
X1.945Y-4.2
X1.945Y-4.55
X2.045Y-3.05
X2.045Y-3.4
X2.045Y-3.8
X2.045Y-4.2
X2.045Y-4.55
X2.145Y-3.05
X2.145Y-3.4
X2.145Y-3.8
X2.145Y-4.2
X2.145Y-4.55
X2.245Y-3.05
X2.245Y-3.4
X2.245Y-3.8
X2.245Y-4.2
X2.245Y-4.55
X2.345Y-3.05
X2.345Y-3.4
X2.345Y-3.8
X2.345Y-4.2
X2.345Y-4.55
X2.445Y-3.05
X2.445Y-3.4
X2.445Y-3.8
X2.445Y-4.2
X2.445Y-4.55
X2.545Y-3.05
X2.545Y-3.4
X2.545Y-3.8
X2.545Y-4.2
X2.545Y-4.55
X2.645Y-3.05
X2.645Y-3.4
X2.645Y-3.8
X2.645Y-4.2
X2.645Y-4.55
X2.745Y-3.05
X2.745Y-3.4
X2.745Y-3.8
X2.745Y-4.2
X2.745Y-4.55
X2.845Y-3.05
X2.845Y-3.4
X2.845Y-3.8
X2.845Y-4.2
X2.845Y-4.55
X2.945Y-3.05
X2.945Y-3.4
X2.945Y-3.8
X2.945Y-4.2
X2.945Y-4.55
X3.045Y-3.05
X3.045Y-3.4
X3.045Y-3.8
X3.045Y-4.2
X3.045Y-4.55
X3.145Y-3.05
X3.145Y-3.4
X3.145Y-3.8
X3.145Y-4.2
X3.145Y-4.55
X3.245Y-3.05
X3.245Y-3.4
X3.245Y-3.8
X3.245Y-4.2
X3.245Y-4.55
X3.345Y-3.05
X3.345Y-3.4
X3.345Y-3.8
X3.345Y-4.2
X3.345Y-4.55
X3.445Y-3.05
X3.445Y-3.4
X3.445Y-3.8
X3.445Y-4.2
X3.445Y-4.55
X3.545Y-3.05
X3.545Y-3.4
X3.545Y-3.8
X3.545Y-4.2
X3.545Y-4.55
X3.645Y-3.05
X3.645Y-3.4
X3.645Y-3.8
X3.645Y-4.2
X3.645Y-4.55
X3.745Y-3.05
X3.745Y-3.4
X3.745Y-3.8
X3.745Y-4.2
X3.745Y-4.55
X3.845Y-3.05
X3.845Y-3.4
X3.845Y-3.8
X3.845Y-4.2
X3.845Y-4.55
X3.945Y-3.05
X3.945Y-3.4
X3.945Y-3.8
X3.945Y-4.2
X3.945Y-4.55
X4.045Y-3.05
X4.045Y-3.4
X4.045Y-3.8
X4.045Y-4.2
X4.045Y-4.55
X4.145Y-3.05
X4.145Y-3.4
X4.145Y-3.8
X4.145Y-4.2
X4.145Y-4.55
X4.245Y-3.05
X4.245Y-3.4
X4.245Y-3.8
X4.245Y-4.2
X4.245Y-4.55
X4.345Y-3.05
X4.345Y-3.4
X4.345Y-3.8
X4.345Y-4.2
X4.345Y-4.55
X4.445Y-3.05
X4.445Y-3.4
X4.445Y-3.8
X4.445Y-4.2
X4.445Y-4.55
X4.545Y-3.05
X4.545Y-3.4
X4.545Y-3.8
X4.545Y-4.2
X4.545Y-4.55
X4.645Y-3.05
X4.645Y-3.4
X4.645Y-3.8
X4.645Y-4.2
X4.645Y-4.55
X4.745Y-3.05
X4.745Y-3.4
X4.745Y-3.8
X4.745Y-4.2
X4.745Y-4.55
X4.845Y-3.05
X4.845Y-3.4
X4.845Y-3.8
X4.845Y-4.2
X4.845Y-4.55
X4.945Y-3.05
X4.945Y-3.4
X4.945Y-3.8
X4.945Y-4.2
X4.945Y-4.55
X5.045Y-3.05
X5.045Y-3.4
X5.045Y-3.8
X5.045Y-4.2
X5.045Y-4.55
X5.145Y-3.05
X5.145Y-3.4
X5.145Y-3.8
X5.145Y-4.2
X5.145Y-4.55
X5.245Y-3.05
X5.245Y-3.4
X5.245Y-3.8
X5.245Y-4.2
X5.245Y-4.55
X5.345Y-3.05
X5.345Y-3.4
X5.345Y-3.8
X5.345Y-4.2
X5.345Y-4.55
X5.445Y-3.05
X5.445Y-3.4
X5.445Y-3.8
X5.445Y-4.2
X5.445Y-4.55
X5.545Y-3.05
X5.545Y-3.4
X5.545Y-3.8
X5.545Y-4.2
X5.545Y-4.55
X5.645Y-3.05
X5.645Y-3.4
X5.645Y-3.8
X5.645Y-4.2
X5.645Y-4.55
X5.745Y-3.05
X5.745Y-3.4
X5.745Y-3.8
X5.745Y-4.2
X5.745Y-4.55
X5.845Y-3.05
X5.845Y-3.4
X5.845Y-3.8
X5.845Y-4.2
X5.845Y-4.55
X5.945Y-3.05
X5.945Y-3.4
X5.945Y-3.8
X5.945Y-4.2
X5.945Y-4.55
X6.045Y-3.05
X6.045Y-3.4
X6.045Y-3.8
X6.045Y-4.2
X6.045Y-4.55
X6.145Y-3.05
X6.145Y-3.4
X6.145Y-3.8
X6.145Y-4.2
X6.145Y-4.55
X6.245Y-3.05
X6.245Y-3.4
X6.245Y-3.8
X6.245Y-4.2
X6.245Y-4.55
X6.345Y-3.05
X6.345Y-3.4
X6.345Y-3.8
X6.345Y-4.2
X6.345Y-4.55
X6.445Y-3.05
X6.445Y-3.4
X6.445Y-3.8
X6.445Y-4.2
X6.445Y-4.55
X6.545Y-3.05
X6.545Y-3.4
X6.545Y-3.8
X6.545Y-4.2
X6.545Y-4.55
X6.645Y-3.05
X6.645Y-3.4
X6.645Y-3.8
X6.645Y-4.2
X6.645Y-4.55
X6.745Y-3.05
X6.745Y-3.4
X6.745Y-3.8
X6.745Y-4.2
X6.745Y-4.55
X6.845Y-3.05
X6.845Y-3.4
X6.845Y-3.8
X6.845Y-4.2
X6.845Y-4.55
X6.945Y-3.05
X6.945Y-3.4
X6.945Y-3.8
X6.945Y-4.2
X6.945Y-4.55
X7.045Y-3.05
X7.045Y-3.4
X7.045Y-3.8
X7.045Y-4.2
X7.045Y-4.55
X7.145Y-3.05
X7.145Y-3.4
X7.145Y-3.8
X7.145Y-4.2
X7.145Y-4.55
X7.245Y-3.05
X7.245Y-3.4
X7.245Y-3.8
X7.245Y-4.2
X7.245Y-4.55
X7.345Y-3.05
X7.345Y-3.4
X7.345Y-3.8
X7.345Y-4.2
X7.345Y-4.55
X7.445Y-3.05
X7.445Y-3.4
X7.445Y-3.8
X7.445Y-4.2
X7.445Y-4.55
X7.545Y-3.05
X7.545Y-3.4
X7.545Y-3.8
X7.545Y-4.2
X7.545Y-4.55
X7.645Y-3.05
X7.645Y-3.4
X7.645Y-3.8
X7.645Y-4.2
X7.645Y-4.55
X7.745Y-3.05
X7.745Y-3.4
X7.745Y-3.8
X7.745Y-4.2
X7.745Y-4.55
X7.845Y-3.05
X7.845Y-3.4
X7.845Y-3.8
X7.845Y-4.2
X7.845Y-4.55
X7.945Y-3.05
X7.945Y-3.4
X7.945Y-3.8
X7.945Y-4.2
X7.945Y-4.55
X8.045Y-3.05
X8.045Y-3.4
X8.045Y-3.8
X8.045Y-4.2
X8.045Y-4.55
X8.145Y-3.05
X8.145Y-3.4
X8.145Y-3.8
X8.145Y-4.2
X8.145Y-4.55
X8.245Y-3.05
X8.245Y-3.4
X8.245Y-3.8
X8.245Y-4.2
X8.245Y-4.55
X8.345Y-3.05
X8.345Y-3.4
X8.345Y-3.8
X8.345Y-4.2
X8.345Y-4.55
X8.445Y-3.05
X8.445Y-3.4
X8.445Y-3.8
X8.445Y-4.2
X8.445Y-4.55
X8.545Y-3.05
X8.545Y-3.4
X8.545Y-3.8
X8.545Y-4.2
X8.545Y-4.55
X8.645Y-3.05
X8.645Y-3.4
X8.645Y-3.8
X8.645Y-4.2
X8.645Y-4.55
X8.745Y-3.05
X8.745Y-3.4
X8.745Y-3.8
X8.745Y-4.2
X8.745Y-4.55
X8.845Y-3.05
X8.845Y-3.4
X8.845Y-3.8
X8.845Y-4.2
X8.845Y-4.55
X8.945Y-3.05
X8.945Y-3.4
X8.945Y-3.8
X8.945Y-4.2
X8.945Y-4.55
X9.045Y-3.05
X9.045Y-3.4
X9.045Y-3.8
X9.045Y-4.2
X9.045Y-4.55
X9.145Y-3.05
X9.145Y-3.4
X9.145Y-3.8
X9.145Y-4.2
X9.145Y-4.55
X9.245Y-3.05
X9.245Y-3.4
X9.245Y-3.8
X9.245Y-4.2
X9.245Y-4.55
X9.345Y-3.05
X9.345Y-3.4
X9.345Y-3.8
X9.345Y-4.55
X9.445Y-3.05
X9.445Y-3.4
X9.445Y-3.8
X9.445Y-4.55
X9.545Y-3.05
X9.545Y-3.4
X9.545Y-3.8
X9.545Y-4.55
X9.645Y-3.05
X9.645Y-3.4
X9.645Y-3.8
X9.745Y-3.05
X9.745Y-3.4
X9.745Y-3.8
X9.845Y-3.05
X9.845Y-3.4
X9.845Y-3.8
X9.945Y-3.4
X9.945Y-3.8
X10.045Y-3.4
X10.045Y-3.8
X10.145Y-3.4
X10.145Y-3.8
X10.245Y-3.4
X10.345Y-3.4
X10.395Y-3.13
X10.445Y-3.4
X10.585Y-3.665
X10.585Y-4.475
X10.62Y-4.095
X10.705Y-3.21
T4
X10.93Y-3.75
X10.93Y-3.85
X10.93Y-4.2
X10.93Y-3.4
X1.875Y-3.415
X10.14Y-4.53
X10.24Y-4.53
X10.34Y-4.53
X10.44Y-4.53
X10.14Y-3.055
X10.24Y-3.055
X10.34Y-3.055
X10.44Y-3.055
T2
G00X1.1078Y-3.9452
M15
G01X1.0822Y-3.9452
M16
G05
G00X1.1078Y-4.2208
M15
G01X1.0822Y-4.2208
M16
G05
T3
G00X1.2013Y-3.9787
M15
G01X1.2013Y-3.9905
M16
G05
G00X1.2013Y-4.1755
M15
G01X1.2013Y-4.1873
M16
G05
T0
M30
