G04 #@! TF.GenerationSoftware,KiCad,Pcbnew,(5.1.5)-3*
G04 #@! TF.CreationDate,2020-07-26T23:49:23-07:00*
G04 #@! TF.ProjectId,pcb,7063622e-6b69-4636-9164-5f7063625858,rev?*
G04 #@! TF.SameCoordinates,Original*
G04 #@! TF.FileFunction,Paste,Top*
G04 #@! TF.FilePolarity,Positive*
%FSLAX46Y46*%
G04 Gerber Fmt 4.6, Leading zero omitted, Abs format (unit mm)*
G04 Created by KiCad (PCBNEW (5.1.5)-3) date 2020-07-26 23:49:23*
%MOMM*%
%LPD*%
G04 APERTURE LIST*
%ADD10C,0.000100*%
%ADD11C,0.100000*%
%ADD12R,1.500000X1.000000*%
%ADD13R,0.760000X1.270000*%
%ADD14R,0.800000X0.900000*%
%ADD15R,1.500000X1.600000*%
%ADD16R,1.200000X1.200000*%
%ADD17R,1.000000X3.150000*%
%ADD18R,1.550000X1.500000*%
%ADD19R,1.350000X0.400000*%
%ADD20R,8.636000X2.794000*%
G04 APERTURE END LIST*
D10*
G36*
X27038000Y-107208200D02*
G01*
X27238000Y-107208200D01*
X27238343Y-107221284D01*
X27239370Y-107234332D01*
X27241078Y-107247309D01*
X27243463Y-107260178D01*
X27246519Y-107272905D01*
X27250236Y-107285454D01*
X27254605Y-107297792D01*
X27259614Y-107309884D01*
X27265248Y-107321698D01*
X27271494Y-107333200D01*
X27278332Y-107344360D01*
X27285746Y-107355146D01*
X27293714Y-107365530D01*
X27302214Y-107375483D01*
X27311223Y-107384977D01*
X27320717Y-107393986D01*
X27330670Y-107402486D01*
X27341054Y-107410454D01*
X27351840Y-107417868D01*
X27363000Y-107424706D01*
X27374502Y-107430952D01*
X27386316Y-107436586D01*
X27398408Y-107441595D01*
X27410746Y-107445964D01*
X27423295Y-107449681D01*
X27436022Y-107452737D01*
X27448891Y-107455122D01*
X27461868Y-107456830D01*
X27474916Y-107457857D01*
X27488000Y-107458200D01*
X28138000Y-107458200D01*
X28151084Y-107457857D01*
X28164132Y-107456830D01*
X28177109Y-107455122D01*
X28189978Y-107452737D01*
X28202705Y-107449681D01*
X28215254Y-107445964D01*
X28227592Y-107441595D01*
X28239684Y-107436586D01*
X28251498Y-107430952D01*
X28263000Y-107424706D01*
X28274160Y-107417868D01*
X28284946Y-107410454D01*
X28295330Y-107402486D01*
X28305283Y-107393986D01*
X28314777Y-107384977D01*
X28323786Y-107375483D01*
X28332286Y-107365530D01*
X28340254Y-107355146D01*
X28347668Y-107344360D01*
X28354506Y-107333200D01*
X28360752Y-107321698D01*
X28366386Y-107309884D01*
X28371395Y-107297792D01*
X28375764Y-107285454D01*
X28379481Y-107272905D01*
X28382537Y-107260178D01*
X28384922Y-107247309D01*
X28386630Y-107234332D01*
X28387657Y-107221284D01*
X28388000Y-107208200D01*
X28588000Y-107208200D01*
X28587315Y-107234368D01*
X28585261Y-107260464D01*
X28581844Y-107286417D01*
X28577074Y-107312156D01*
X28570963Y-107337610D01*
X28563528Y-107362708D01*
X28554790Y-107387384D01*
X28544773Y-107411568D01*
X28533503Y-107435195D01*
X28521013Y-107458200D01*
X28507335Y-107480520D01*
X28492508Y-107502093D01*
X28476573Y-107522860D01*
X28459572Y-107542765D01*
X28441553Y-107561753D01*
X28422565Y-107579772D01*
X28402660Y-107596773D01*
X28381893Y-107612708D01*
X28360320Y-107627535D01*
X28338000Y-107641213D01*
X28314995Y-107653703D01*
X28291368Y-107664973D01*
X28267184Y-107674990D01*
X28242508Y-107683728D01*
X28217410Y-107691163D01*
X28191956Y-107697274D01*
X28166217Y-107702044D01*
X28140264Y-107705461D01*
X28114168Y-107707515D01*
X28088000Y-107708200D01*
X27538000Y-107708200D01*
X27511832Y-107707515D01*
X27485736Y-107705461D01*
X27459783Y-107702044D01*
X27434044Y-107697274D01*
X27408590Y-107691163D01*
X27383492Y-107683728D01*
X27358816Y-107674990D01*
X27334632Y-107664973D01*
X27311005Y-107653703D01*
X27288000Y-107641213D01*
X27265680Y-107627535D01*
X27244107Y-107612708D01*
X27223340Y-107596773D01*
X27203435Y-107579772D01*
X27184447Y-107561753D01*
X27166428Y-107542765D01*
X27149427Y-107522860D01*
X27133492Y-107502093D01*
X27118665Y-107480520D01*
X27104987Y-107458200D01*
X27092497Y-107435195D01*
X27081227Y-107411568D01*
X27071210Y-107387384D01*
X27062472Y-107362708D01*
X27055037Y-107337610D01*
X27048926Y-107312156D01*
X27044156Y-107286417D01*
X27040739Y-107260464D01*
X27038685Y-107234368D01*
X27038000Y-107208200D01*
G37*
X27038000Y-107208200D02*
X27238000Y-107208200D01*
X27238343Y-107221284D01*
X27239370Y-107234332D01*
X27241078Y-107247309D01*
X27243463Y-107260178D01*
X27246519Y-107272905D01*
X27250236Y-107285454D01*
X27254605Y-107297792D01*
X27259614Y-107309884D01*
X27265248Y-107321698D01*
X27271494Y-107333200D01*
X27278332Y-107344360D01*
X27285746Y-107355146D01*
X27293714Y-107365530D01*
X27302214Y-107375483D01*
X27311223Y-107384977D01*
X27320717Y-107393986D01*
X27330670Y-107402486D01*
X27341054Y-107410454D01*
X27351840Y-107417868D01*
X27363000Y-107424706D01*
X27374502Y-107430952D01*
X27386316Y-107436586D01*
X27398408Y-107441595D01*
X27410746Y-107445964D01*
X27423295Y-107449681D01*
X27436022Y-107452737D01*
X27448891Y-107455122D01*
X27461868Y-107456830D01*
X27474916Y-107457857D01*
X27488000Y-107458200D01*
X28138000Y-107458200D01*
X28151084Y-107457857D01*
X28164132Y-107456830D01*
X28177109Y-107455122D01*
X28189978Y-107452737D01*
X28202705Y-107449681D01*
X28215254Y-107445964D01*
X28227592Y-107441595D01*
X28239684Y-107436586D01*
X28251498Y-107430952D01*
X28263000Y-107424706D01*
X28274160Y-107417868D01*
X28284946Y-107410454D01*
X28295330Y-107402486D01*
X28305283Y-107393986D01*
X28314777Y-107384977D01*
X28323786Y-107375483D01*
X28332286Y-107365530D01*
X28340254Y-107355146D01*
X28347668Y-107344360D01*
X28354506Y-107333200D01*
X28360752Y-107321698D01*
X28366386Y-107309884D01*
X28371395Y-107297792D01*
X28375764Y-107285454D01*
X28379481Y-107272905D01*
X28382537Y-107260178D01*
X28384922Y-107247309D01*
X28386630Y-107234332D01*
X28387657Y-107221284D01*
X28388000Y-107208200D01*
X28588000Y-107208200D01*
X28587315Y-107234368D01*
X28585261Y-107260464D01*
X28581844Y-107286417D01*
X28577074Y-107312156D01*
X28570963Y-107337610D01*
X28563528Y-107362708D01*
X28554790Y-107387384D01*
X28544773Y-107411568D01*
X28533503Y-107435195D01*
X28521013Y-107458200D01*
X28507335Y-107480520D01*
X28492508Y-107502093D01*
X28476573Y-107522860D01*
X28459572Y-107542765D01*
X28441553Y-107561753D01*
X28422565Y-107579772D01*
X28402660Y-107596773D01*
X28381893Y-107612708D01*
X28360320Y-107627535D01*
X28338000Y-107641213D01*
X28314995Y-107653703D01*
X28291368Y-107664973D01*
X28267184Y-107674990D01*
X28242508Y-107683728D01*
X28217410Y-107691163D01*
X28191956Y-107697274D01*
X28166217Y-107702044D01*
X28140264Y-107705461D01*
X28114168Y-107707515D01*
X28088000Y-107708200D01*
X27538000Y-107708200D01*
X27511832Y-107707515D01*
X27485736Y-107705461D01*
X27459783Y-107702044D01*
X27434044Y-107697274D01*
X27408590Y-107691163D01*
X27383492Y-107683728D01*
X27358816Y-107674990D01*
X27334632Y-107664973D01*
X27311005Y-107653703D01*
X27288000Y-107641213D01*
X27265680Y-107627535D01*
X27244107Y-107612708D01*
X27223340Y-107596773D01*
X27203435Y-107579772D01*
X27184447Y-107561753D01*
X27166428Y-107542765D01*
X27149427Y-107522860D01*
X27133492Y-107502093D01*
X27118665Y-107480520D01*
X27104987Y-107458200D01*
X27092497Y-107435195D01*
X27081227Y-107411568D01*
X27071210Y-107387384D01*
X27062472Y-107362708D01*
X27055037Y-107337610D01*
X27048926Y-107312156D01*
X27044156Y-107286417D01*
X27040739Y-107260464D01*
X27038685Y-107234368D01*
X27038000Y-107208200D01*
G36*
X27038000Y-107208200D02*
G01*
X27238000Y-107208200D01*
X27238343Y-107195116D01*
X27239370Y-107182068D01*
X27241078Y-107169091D01*
X27243463Y-107156222D01*
X27246519Y-107143495D01*
X27250236Y-107130946D01*
X27254605Y-107118608D01*
X27259614Y-107106516D01*
X27265248Y-107094702D01*
X27271494Y-107083200D01*
X27278332Y-107072040D01*
X27285746Y-107061254D01*
X27293714Y-107050870D01*
X27302214Y-107040917D01*
X27311223Y-107031423D01*
X27320717Y-107022414D01*
X27330670Y-107013914D01*
X27341054Y-107005946D01*
X27351840Y-106998532D01*
X27363000Y-106991694D01*
X27374502Y-106985448D01*
X27386316Y-106979814D01*
X27398408Y-106974805D01*
X27410746Y-106970436D01*
X27423295Y-106966719D01*
X27436022Y-106963663D01*
X27448891Y-106961278D01*
X27461868Y-106959570D01*
X27474916Y-106958543D01*
X27488000Y-106958200D01*
X28138000Y-106958200D01*
X28151084Y-106958543D01*
X28164132Y-106959570D01*
X28177109Y-106961278D01*
X28189978Y-106963663D01*
X28202705Y-106966719D01*
X28215254Y-106970436D01*
X28227592Y-106974805D01*
X28239684Y-106979814D01*
X28251498Y-106985448D01*
X28263000Y-106991694D01*
X28274160Y-106998532D01*
X28284946Y-107005946D01*
X28295330Y-107013914D01*
X28305283Y-107022414D01*
X28314777Y-107031423D01*
X28323786Y-107040917D01*
X28332286Y-107050870D01*
X28340254Y-107061254D01*
X28347668Y-107072040D01*
X28354506Y-107083200D01*
X28360752Y-107094702D01*
X28366386Y-107106516D01*
X28371395Y-107118608D01*
X28375764Y-107130946D01*
X28379481Y-107143495D01*
X28382537Y-107156222D01*
X28384922Y-107169091D01*
X28386630Y-107182068D01*
X28387657Y-107195116D01*
X28388000Y-107208200D01*
X28588000Y-107208200D01*
X28588000Y-106008200D01*
X27038000Y-106008200D01*
X27038000Y-107208200D01*
G37*
X27038000Y-107208200D02*
X27238000Y-107208200D01*
X27238343Y-107195116D01*
X27239370Y-107182068D01*
X27241078Y-107169091D01*
X27243463Y-107156222D01*
X27246519Y-107143495D01*
X27250236Y-107130946D01*
X27254605Y-107118608D01*
X27259614Y-107106516D01*
X27265248Y-107094702D01*
X27271494Y-107083200D01*
X27278332Y-107072040D01*
X27285746Y-107061254D01*
X27293714Y-107050870D01*
X27302214Y-107040917D01*
X27311223Y-107031423D01*
X27320717Y-107022414D01*
X27330670Y-107013914D01*
X27341054Y-107005946D01*
X27351840Y-106998532D01*
X27363000Y-106991694D01*
X27374502Y-106985448D01*
X27386316Y-106979814D01*
X27398408Y-106974805D01*
X27410746Y-106970436D01*
X27423295Y-106966719D01*
X27436022Y-106963663D01*
X27448891Y-106961278D01*
X27461868Y-106959570D01*
X27474916Y-106958543D01*
X27488000Y-106958200D01*
X28138000Y-106958200D01*
X28151084Y-106958543D01*
X28164132Y-106959570D01*
X28177109Y-106961278D01*
X28189978Y-106963663D01*
X28202705Y-106966719D01*
X28215254Y-106970436D01*
X28227592Y-106974805D01*
X28239684Y-106979814D01*
X28251498Y-106985448D01*
X28263000Y-106991694D01*
X28274160Y-106998532D01*
X28284946Y-107005946D01*
X28295330Y-107013914D01*
X28305283Y-107022414D01*
X28314777Y-107031423D01*
X28323786Y-107040917D01*
X28332286Y-107050870D01*
X28340254Y-107061254D01*
X28347668Y-107072040D01*
X28354506Y-107083200D01*
X28360752Y-107094702D01*
X28366386Y-107106516D01*
X28371395Y-107118608D01*
X28375764Y-107130946D01*
X28379481Y-107143495D01*
X28382537Y-107156222D01*
X28384922Y-107169091D01*
X28386630Y-107182068D01*
X28387657Y-107195116D01*
X28388000Y-107208200D01*
X28588000Y-107208200D01*
X28588000Y-106008200D01*
X27038000Y-106008200D01*
X27038000Y-107208200D01*
X27043000Y-107208200D02*
X27213000Y-107208200D01*
G36*
X28588000Y-100208200D02*
G01*
X28388000Y-100208200D01*
X28387657Y-100195116D01*
X28386630Y-100182068D01*
X28384922Y-100169091D01*
X28382537Y-100156222D01*
X28379481Y-100143495D01*
X28375764Y-100130946D01*
X28371395Y-100118608D01*
X28366386Y-100106516D01*
X28360752Y-100094702D01*
X28354506Y-100083200D01*
X28347668Y-100072040D01*
X28340254Y-100061254D01*
X28332286Y-100050870D01*
X28323786Y-100040917D01*
X28314777Y-100031423D01*
X28305283Y-100022414D01*
X28295330Y-100013914D01*
X28284946Y-100005946D01*
X28274160Y-99998532D01*
X28263000Y-99991694D01*
X28251498Y-99985448D01*
X28239684Y-99979814D01*
X28227592Y-99974805D01*
X28215254Y-99970436D01*
X28202705Y-99966719D01*
X28189978Y-99963663D01*
X28177109Y-99961278D01*
X28164132Y-99959570D01*
X28151084Y-99958543D01*
X28138000Y-99958200D01*
X27488000Y-99958200D01*
X27474916Y-99958543D01*
X27461868Y-99959570D01*
X27448891Y-99961278D01*
X27436022Y-99963663D01*
X27423295Y-99966719D01*
X27410746Y-99970436D01*
X27398408Y-99974805D01*
X27386316Y-99979814D01*
X27374502Y-99985448D01*
X27363000Y-99991694D01*
X27351840Y-99998532D01*
X27341054Y-100005946D01*
X27330670Y-100013914D01*
X27320717Y-100022414D01*
X27311223Y-100031423D01*
X27302214Y-100040917D01*
X27293714Y-100050870D01*
X27285746Y-100061254D01*
X27278332Y-100072040D01*
X27271494Y-100083200D01*
X27265248Y-100094702D01*
X27259614Y-100106516D01*
X27254605Y-100118608D01*
X27250236Y-100130946D01*
X27246519Y-100143495D01*
X27243463Y-100156222D01*
X27241078Y-100169091D01*
X27239370Y-100182068D01*
X27238343Y-100195116D01*
X27238000Y-100208200D01*
X27038000Y-100208200D01*
X27038685Y-100182032D01*
X27040739Y-100155936D01*
X27044156Y-100129983D01*
X27048926Y-100104244D01*
X27055037Y-100078790D01*
X27062472Y-100053692D01*
X27071210Y-100029016D01*
X27081227Y-100004832D01*
X27092497Y-99981205D01*
X27104987Y-99958200D01*
X27118665Y-99935880D01*
X27133492Y-99914307D01*
X27149427Y-99893540D01*
X27166428Y-99873635D01*
X27184447Y-99854647D01*
X27203435Y-99836628D01*
X27223340Y-99819627D01*
X27244107Y-99803692D01*
X27265680Y-99788865D01*
X27288000Y-99775187D01*
X27311005Y-99762697D01*
X27334632Y-99751427D01*
X27358816Y-99741410D01*
X27383492Y-99732672D01*
X27408590Y-99725237D01*
X27434044Y-99719126D01*
X27459783Y-99714356D01*
X27485736Y-99710939D01*
X27511832Y-99708885D01*
X27538000Y-99708200D01*
X28088000Y-99708200D01*
X28114168Y-99708885D01*
X28140264Y-99710939D01*
X28166217Y-99714356D01*
X28191956Y-99719126D01*
X28217410Y-99725237D01*
X28242508Y-99732672D01*
X28267184Y-99741410D01*
X28291368Y-99751427D01*
X28314995Y-99762697D01*
X28338000Y-99775187D01*
X28360320Y-99788865D01*
X28381893Y-99803692D01*
X28402660Y-99819627D01*
X28422565Y-99836628D01*
X28441553Y-99854647D01*
X28459572Y-99873635D01*
X28476573Y-99893540D01*
X28492508Y-99914307D01*
X28507335Y-99935880D01*
X28521013Y-99958200D01*
X28533503Y-99981205D01*
X28544773Y-100004832D01*
X28554790Y-100029016D01*
X28563528Y-100053692D01*
X28570963Y-100078790D01*
X28577074Y-100104244D01*
X28581844Y-100129983D01*
X28585261Y-100155936D01*
X28587315Y-100182032D01*
X28588000Y-100208200D01*
G37*
X28588000Y-100208200D02*
X28388000Y-100208200D01*
X28387657Y-100195116D01*
X28386630Y-100182068D01*
X28384922Y-100169091D01*
X28382537Y-100156222D01*
X28379481Y-100143495D01*
X28375764Y-100130946D01*
X28371395Y-100118608D01*
X28366386Y-100106516D01*
X28360752Y-100094702D01*
X28354506Y-100083200D01*
X28347668Y-100072040D01*
X28340254Y-100061254D01*
X28332286Y-100050870D01*
X28323786Y-100040917D01*
X28314777Y-100031423D01*
X28305283Y-100022414D01*
X28295330Y-100013914D01*
X28284946Y-100005946D01*
X28274160Y-99998532D01*
X28263000Y-99991694D01*
X28251498Y-99985448D01*
X28239684Y-99979814D01*
X28227592Y-99974805D01*
X28215254Y-99970436D01*
X28202705Y-99966719D01*
X28189978Y-99963663D01*
X28177109Y-99961278D01*
X28164132Y-99959570D01*
X28151084Y-99958543D01*
X28138000Y-99958200D01*
X27488000Y-99958200D01*
X27474916Y-99958543D01*
X27461868Y-99959570D01*
X27448891Y-99961278D01*
X27436022Y-99963663D01*
X27423295Y-99966719D01*
X27410746Y-99970436D01*
X27398408Y-99974805D01*
X27386316Y-99979814D01*
X27374502Y-99985448D01*
X27363000Y-99991694D01*
X27351840Y-99998532D01*
X27341054Y-100005946D01*
X27330670Y-100013914D01*
X27320717Y-100022414D01*
X27311223Y-100031423D01*
X27302214Y-100040917D01*
X27293714Y-100050870D01*
X27285746Y-100061254D01*
X27278332Y-100072040D01*
X27271494Y-100083200D01*
X27265248Y-100094702D01*
X27259614Y-100106516D01*
X27254605Y-100118608D01*
X27250236Y-100130946D01*
X27246519Y-100143495D01*
X27243463Y-100156222D01*
X27241078Y-100169091D01*
X27239370Y-100182068D01*
X27238343Y-100195116D01*
X27238000Y-100208200D01*
X27038000Y-100208200D01*
X27038685Y-100182032D01*
X27040739Y-100155936D01*
X27044156Y-100129983D01*
X27048926Y-100104244D01*
X27055037Y-100078790D01*
X27062472Y-100053692D01*
X27071210Y-100029016D01*
X27081227Y-100004832D01*
X27092497Y-99981205D01*
X27104987Y-99958200D01*
X27118665Y-99935880D01*
X27133492Y-99914307D01*
X27149427Y-99893540D01*
X27166428Y-99873635D01*
X27184447Y-99854647D01*
X27203435Y-99836628D01*
X27223340Y-99819627D01*
X27244107Y-99803692D01*
X27265680Y-99788865D01*
X27288000Y-99775187D01*
X27311005Y-99762697D01*
X27334632Y-99751427D01*
X27358816Y-99741410D01*
X27383492Y-99732672D01*
X27408590Y-99725237D01*
X27434044Y-99719126D01*
X27459783Y-99714356D01*
X27485736Y-99710939D01*
X27511832Y-99708885D01*
X27538000Y-99708200D01*
X28088000Y-99708200D01*
X28114168Y-99708885D01*
X28140264Y-99710939D01*
X28166217Y-99714356D01*
X28191956Y-99719126D01*
X28217410Y-99725237D01*
X28242508Y-99732672D01*
X28267184Y-99741410D01*
X28291368Y-99751427D01*
X28314995Y-99762697D01*
X28338000Y-99775187D01*
X28360320Y-99788865D01*
X28381893Y-99803692D01*
X28402660Y-99819627D01*
X28422565Y-99836628D01*
X28441553Y-99854647D01*
X28459572Y-99873635D01*
X28476573Y-99893540D01*
X28492508Y-99914307D01*
X28507335Y-99935880D01*
X28521013Y-99958200D01*
X28533503Y-99981205D01*
X28544773Y-100004832D01*
X28554790Y-100029016D01*
X28563528Y-100053692D01*
X28570963Y-100078790D01*
X28577074Y-100104244D01*
X28581844Y-100129983D01*
X28585261Y-100155936D01*
X28587315Y-100182032D01*
X28588000Y-100208200D01*
G36*
X28588000Y-100208200D02*
G01*
X28388000Y-100208200D01*
X28387657Y-100221284D01*
X28386630Y-100234332D01*
X28384922Y-100247309D01*
X28382537Y-100260178D01*
X28379481Y-100272905D01*
X28375764Y-100285454D01*
X28371395Y-100297792D01*
X28366386Y-100309884D01*
X28360752Y-100321698D01*
X28354506Y-100333200D01*
X28347668Y-100344360D01*
X28340254Y-100355146D01*
X28332286Y-100365530D01*
X28323786Y-100375483D01*
X28314777Y-100384977D01*
X28305283Y-100393986D01*
X28295330Y-100402486D01*
X28284946Y-100410454D01*
X28274160Y-100417868D01*
X28263000Y-100424706D01*
X28251498Y-100430952D01*
X28239684Y-100436586D01*
X28227592Y-100441595D01*
X28215254Y-100445964D01*
X28202705Y-100449681D01*
X28189978Y-100452737D01*
X28177109Y-100455122D01*
X28164132Y-100456830D01*
X28151084Y-100457857D01*
X28138000Y-100458200D01*
X27488000Y-100458200D01*
X27474916Y-100457857D01*
X27461868Y-100456830D01*
X27448891Y-100455122D01*
X27436022Y-100452737D01*
X27423295Y-100449681D01*
X27410746Y-100445964D01*
X27398408Y-100441595D01*
X27386316Y-100436586D01*
X27374502Y-100430952D01*
X27363000Y-100424706D01*
X27351840Y-100417868D01*
X27341054Y-100410454D01*
X27330670Y-100402486D01*
X27320717Y-100393986D01*
X27311223Y-100384977D01*
X27302214Y-100375483D01*
X27293714Y-100365530D01*
X27285746Y-100355146D01*
X27278332Y-100344360D01*
X27271494Y-100333200D01*
X27265248Y-100321698D01*
X27259614Y-100309884D01*
X27254605Y-100297792D01*
X27250236Y-100285454D01*
X27246519Y-100272905D01*
X27243463Y-100260178D01*
X27241078Y-100247309D01*
X27239370Y-100234332D01*
X27238343Y-100221284D01*
X27238000Y-100208200D01*
X27038000Y-100208200D01*
X27038000Y-101408200D01*
X28588000Y-101408200D01*
X28588000Y-100208200D01*
G37*
X28588000Y-100208200D02*
X28388000Y-100208200D01*
X28387657Y-100221284D01*
X28386630Y-100234332D01*
X28384922Y-100247309D01*
X28382537Y-100260178D01*
X28379481Y-100272905D01*
X28375764Y-100285454D01*
X28371395Y-100297792D01*
X28366386Y-100309884D01*
X28360752Y-100321698D01*
X28354506Y-100333200D01*
X28347668Y-100344360D01*
X28340254Y-100355146D01*
X28332286Y-100365530D01*
X28323786Y-100375483D01*
X28314777Y-100384977D01*
X28305283Y-100393986D01*
X28295330Y-100402486D01*
X28284946Y-100410454D01*
X28274160Y-100417868D01*
X28263000Y-100424706D01*
X28251498Y-100430952D01*
X28239684Y-100436586D01*
X28227592Y-100441595D01*
X28215254Y-100445964D01*
X28202705Y-100449681D01*
X28189978Y-100452737D01*
X28177109Y-100455122D01*
X28164132Y-100456830D01*
X28151084Y-100457857D01*
X28138000Y-100458200D01*
X27488000Y-100458200D01*
X27474916Y-100457857D01*
X27461868Y-100456830D01*
X27448891Y-100455122D01*
X27436022Y-100452737D01*
X27423295Y-100449681D01*
X27410746Y-100445964D01*
X27398408Y-100441595D01*
X27386316Y-100436586D01*
X27374502Y-100430952D01*
X27363000Y-100424706D01*
X27351840Y-100417868D01*
X27341054Y-100410454D01*
X27330670Y-100402486D01*
X27320717Y-100393986D01*
X27311223Y-100384977D01*
X27302214Y-100375483D01*
X27293714Y-100365530D01*
X27285746Y-100355146D01*
X27278332Y-100344360D01*
X27271494Y-100333200D01*
X27265248Y-100321698D01*
X27259614Y-100309884D01*
X27254605Y-100297792D01*
X27250236Y-100285454D01*
X27246519Y-100272905D01*
X27243463Y-100260178D01*
X27241078Y-100247309D01*
X27239370Y-100234332D01*
X27238343Y-100221284D01*
X27238000Y-100208200D01*
X27038000Y-100208200D01*
X27038000Y-101408200D01*
X28588000Y-101408200D01*
X28588000Y-100208200D01*
X28583000Y-100208200D02*
X28413000Y-100208200D01*
D11*
G36*
X154277142Y-110511674D02*
G01*
X154300803Y-110515184D01*
X154324007Y-110520996D01*
X154346529Y-110529054D01*
X154368153Y-110539282D01*
X154388670Y-110551579D01*
X154407883Y-110565829D01*
X154425607Y-110581893D01*
X154441671Y-110599617D01*
X154455921Y-110618830D01*
X154468218Y-110639347D01*
X154478446Y-110660971D01*
X154486504Y-110683493D01*
X154492316Y-110706697D01*
X154495826Y-110730358D01*
X154497000Y-110754250D01*
X154497000Y-111241750D01*
X154495826Y-111265642D01*
X154492316Y-111289303D01*
X154486504Y-111312507D01*
X154478446Y-111335029D01*
X154468218Y-111356653D01*
X154455921Y-111377170D01*
X154441671Y-111396383D01*
X154425607Y-111414107D01*
X154407883Y-111430171D01*
X154388670Y-111444421D01*
X154368153Y-111456718D01*
X154346529Y-111466946D01*
X154324007Y-111475004D01*
X154300803Y-111480816D01*
X154277142Y-111484326D01*
X154253250Y-111485500D01*
X153340750Y-111485500D01*
X153316858Y-111484326D01*
X153293197Y-111480816D01*
X153269993Y-111475004D01*
X153247471Y-111466946D01*
X153225847Y-111456718D01*
X153205330Y-111444421D01*
X153186117Y-111430171D01*
X153168393Y-111414107D01*
X153152329Y-111396383D01*
X153138079Y-111377170D01*
X153125782Y-111356653D01*
X153115554Y-111335029D01*
X153107496Y-111312507D01*
X153101684Y-111289303D01*
X153098174Y-111265642D01*
X153097000Y-111241750D01*
X153097000Y-110754250D01*
X153098174Y-110730358D01*
X153101684Y-110706697D01*
X153107496Y-110683493D01*
X153115554Y-110660971D01*
X153125782Y-110639347D01*
X153138079Y-110618830D01*
X153152329Y-110599617D01*
X153168393Y-110581893D01*
X153186117Y-110565829D01*
X153205330Y-110551579D01*
X153225847Y-110539282D01*
X153247471Y-110529054D01*
X153269993Y-110520996D01*
X153293197Y-110515184D01*
X153316858Y-110511674D01*
X153340750Y-110510500D01*
X154253250Y-110510500D01*
X154277142Y-110511674D01*
G37*
G36*
X154277142Y-112386674D02*
G01*
X154300803Y-112390184D01*
X154324007Y-112395996D01*
X154346529Y-112404054D01*
X154368153Y-112414282D01*
X154388670Y-112426579D01*
X154407883Y-112440829D01*
X154425607Y-112456893D01*
X154441671Y-112474617D01*
X154455921Y-112493830D01*
X154468218Y-112514347D01*
X154478446Y-112535971D01*
X154486504Y-112558493D01*
X154492316Y-112581697D01*
X154495826Y-112605358D01*
X154497000Y-112629250D01*
X154497000Y-113116750D01*
X154495826Y-113140642D01*
X154492316Y-113164303D01*
X154486504Y-113187507D01*
X154478446Y-113210029D01*
X154468218Y-113231653D01*
X154455921Y-113252170D01*
X154441671Y-113271383D01*
X154425607Y-113289107D01*
X154407883Y-113305171D01*
X154388670Y-113319421D01*
X154368153Y-113331718D01*
X154346529Y-113341946D01*
X154324007Y-113350004D01*
X154300803Y-113355816D01*
X154277142Y-113359326D01*
X154253250Y-113360500D01*
X153340750Y-113360500D01*
X153316858Y-113359326D01*
X153293197Y-113355816D01*
X153269993Y-113350004D01*
X153247471Y-113341946D01*
X153225847Y-113331718D01*
X153205330Y-113319421D01*
X153186117Y-113305171D01*
X153168393Y-113289107D01*
X153152329Y-113271383D01*
X153138079Y-113252170D01*
X153125782Y-113231653D01*
X153115554Y-113210029D01*
X153107496Y-113187507D01*
X153101684Y-113164303D01*
X153098174Y-113140642D01*
X153097000Y-113116750D01*
X153097000Y-112629250D01*
X153098174Y-112605358D01*
X153101684Y-112581697D01*
X153107496Y-112558493D01*
X153115554Y-112535971D01*
X153125782Y-112514347D01*
X153138079Y-112493830D01*
X153152329Y-112474617D01*
X153168393Y-112456893D01*
X153186117Y-112440829D01*
X153205330Y-112426579D01*
X153225847Y-112414282D01*
X153247471Y-112404054D01*
X153269993Y-112395996D01*
X153293197Y-112390184D01*
X153316858Y-112386674D01*
X153340750Y-112385500D01*
X154253250Y-112385500D01*
X154277142Y-112386674D01*
G37*
G36*
X154277142Y-102256674D02*
G01*
X154300803Y-102260184D01*
X154324007Y-102265996D01*
X154346529Y-102274054D01*
X154368153Y-102284282D01*
X154388670Y-102296579D01*
X154407883Y-102310829D01*
X154425607Y-102326893D01*
X154441671Y-102344617D01*
X154455921Y-102363830D01*
X154468218Y-102384347D01*
X154478446Y-102405971D01*
X154486504Y-102428493D01*
X154492316Y-102451697D01*
X154495826Y-102475358D01*
X154497000Y-102499250D01*
X154497000Y-102986750D01*
X154495826Y-103010642D01*
X154492316Y-103034303D01*
X154486504Y-103057507D01*
X154478446Y-103080029D01*
X154468218Y-103101653D01*
X154455921Y-103122170D01*
X154441671Y-103141383D01*
X154425607Y-103159107D01*
X154407883Y-103175171D01*
X154388670Y-103189421D01*
X154368153Y-103201718D01*
X154346529Y-103211946D01*
X154324007Y-103220004D01*
X154300803Y-103225816D01*
X154277142Y-103229326D01*
X154253250Y-103230500D01*
X153340750Y-103230500D01*
X153316858Y-103229326D01*
X153293197Y-103225816D01*
X153269993Y-103220004D01*
X153247471Y-103211946D01*
X153225847Y-103201718D01*
X153205330Y-103189421D01*
X153186117Y-103175171D01*
X153168393Y-103159107D01*
X153152329Y-103141383D01*
X153138079Y-103122170D01*
X153125782Y-103101653D01*
X153115554Y-103080029D01*
X153107496Y-103057507D01*
X153101684Y-103034303D01*
X153098174Y-103010642D01*
X153097000Y-102986750D01*
X153097000Y-102499250D01*
X153098174Y-102475358D01*
X153101684Y-102451697D01*
X153107496Y-102428493D01*
X153115554Y-102405971D01*
X153125782Y-102384347D01*
X153138079Y-102363830D01*
X153152329Y-102344617D01*
X153168393Y-102326893D01*
X153186117Y-102310829D01*
X153205330Y-102296579D01*
X153225847Y-102284282D01*
X153247471Y-102274054D01*
X153269993Y-102265996D01*
X153293197Y-102260184D01*
X153316858Y-102256674D01*
X153340750Y-102255500D01*
X154253250Y-102255500D01*
X154277142Y-102256674D01*
G37*
G36*
X154277142Y-100381674D02*
G01*
X154300803Y-100385184D01*
X154324007Y-100390996D01*
X154346529Y-100399054D01*
X154368153Y-100409282D01*
X154388670Y-100421579D01*
X154407883Y-100435829D01*
X154425607Y-100451893D01*
X154441671Y-100469617D01*
X154455921Y-100488830D01*
X154468218Y-100509347D01*
X154478446Y-100530971D01*
X154486504Y-100553493D01*
X154492316Y-100576697D01*
X154495826Y-100600358D01*
X154497000Y-100624250D01*
X154497000Y-101111750D01*
X154495826Y-101135642D01*
X154492316Y-101159303D01*
X154486504Y-101182507D01*
X154478446Y-101205029D01*
X154468218Y-101226653D01*
X154455921Y-101247170D01*
X154441671Y-101266383D01*
X154425607Y-101284107D01*
X154407883Y-101300171D01*
X154388670Y-101314421D01*
X154368153Y-101326718D01*
X154346529Y-101336946D01*
X154324007Y-101345004D01*
X154300803Y-101350816D01*
X154277142Y-101354326D01*
X154253250Y-101355500D01*
X153340750Y-101355500D01*
X153316858Y-101354326D01*
X153293197Y-101350816D01*
X153269993Y-101345004D01*
X153247471Y-101336946D01*
X153225847Y-101326718D01*
X153205330Y-101314421D01*
X153186117Y-101300171D01*
X153168393Y-101284107D01*
X153152329Y-101266383D01*
X153138079Y-101247170D01*
X153125782Y-101226653D01*
X153115554Y-101205029D01*
X153107496Y-101182507D01*
X153101684Y-101159303D01*
X153098174Y-101135642D01*
X153097000Y-101111750D01*
X153097000Y-100624250D01*
X153098174Y-100600358D01*
X153101684Y-100576697D01*
X153107496Y-100553493D01*
X153115554Y-100530971D01*
X153125782Y-100509347D01*
X153138079Y-100488830D01*
X153152329Y-100469617D01*
X153168393Y-100451893D01*
X153186117Y-100435829D01*
X153205330Y-100421579D01*
X153225847Y-100409282D01*
X153247471Y-100399054D01*
X153269993Y-100390996D01*
X153293197Y-100385184D01*
X153316858Y-100381674D01*
X153340750Y-100380500D01*
X154253250Y-100380500D01*
X154277142Y-100381674D01*
G37*
G36*
X154277142Y-89937674D02*
G01*
X154300803Y-89941184D01*
X154324007Y-89946996D01*
X154346529Y-89955054D01*
X154368153Y-89965282D01*
X154388670Y-89977579D01*
X154407883Y-89991829D01*
X154425607Y-90007893D01*
X154441671Y-90025617D01*
X154455921Y-90044830D01*
X154468218Y-90065347D01*
X154478446Y-90086971D01*
X154486504Y-90109493D01*
X154492316Y-90132697D01*
X154495826Y-90156358D01*
X154497000Y-90180250D01*
X154497000Y-90667750D01*
X154495826Y-90691642D01*
X154492316Y-90715303D01*
X154486504Y-90738507D01*
X154478446Y-90761029D01*
X154468218Y-90782653D01*
X154455921Y-90803170D01*
X154441671Y-90822383D01*
X154425607Y-90840107D01*
X154407883Y-90856171D01*
X154388670Y-90870421D01*
X154368153Y-90882718D01*
X154346529Y-90892946D01*
X154324007Y-90901004D01*
X154300803Y-90906816D01*
X154277142Y-90910326D01*
X154253250Y-90911500D01*
X153340750Y-90911500D01*
X153316858Y-90910326D01*
X153293197Y-90906816D01*
X153269993Y-90901004D01*
X153247471Y-90892946D01*
X153225847Y-90882718D01*
X153205330Y-90870421D01*
X153186117Y-90856171D01*
X153168393Y-90840107D01*
X153152329Y-90822383D01*
X153138079Y-90803170D01*
X153125782Y-90782653D01*
X153115554Y-90761029D01*
X153107496Y-90738507D01*
X153101684Y-90715303D01*
X153098174Y-90691642D01*
X153097000Y-90667750D01*
X153097000Y-90180250D01*
X153098174Y-90156358D01*
X153101684Y-90132697D01*
X153107496Y-90109493D01*
X153115554Y-90086971D01*
X153125782Y-90065347D01*
X153138079Y-90044830D01*
X153152329Y-90025617D01*
X153168393Y-90007893D01*
X153186117Y-89991829D01*
X153205330Y-89977579D01*
X153225847Y-89965282D01*
X153247471Y-89955054D01*
X153269993Y-89946996D01*
X153293197Y-89941184D01*
X153316858Y-89937674D01*
X153340750Y-89936500D01*
X154253250Y-89936500D01*
X154277142Y-89937674D01*
G37*
G36*
X154277142Y-91812674D02*
G01*
X154300803Y-91816184D01*
X154324007Y-91821996D01*
X154346529Y-91830054D01*
X154368153Y-91840282D01*
X154388670Y-91852579D01*
X154407883Y-91866829D01*
X154425607Y-91882893D01*
X154441671Y-91900617D01*
X154455921Y-91919830D01*
X154468218Y-91940347D01*
X154478446Y-91961971D01*
X154486504Y-91984493D01*
X154492316Y-92007697D01*
X154495826Y-92031358D01*
X154497000Y-92055250D01*
X154497000Y-92542750D01*
X154495826Y-92566642D01*
X154492316Y-92590303D01*
X154486504Y-92613507D01*
X154478446Y-92636029D01*
X154468218Y-92657653D01*
X154455921Y-92678170D01*
X154441671Y-92697383D01*
X154425607Y-92715107D01*
X154407883Y-92731171D01*
X154388670Y-92745421D01*
X154368153Y-92757718D01*
X154346529Y-92767946D01*
X154324007Y-92776004D01*
X154300803Y-92781816D01*
X154277142Y-92785326D01*
X154253250Y-92786500D01*
X153340750Y-92786500D01*
X153316858Y-92785326D01*
X153293197Y-92781816D01*
X153269993Y-92776004D01*
X153247471Y-92767946D01*
X153225847Y-92757718D01*
X153205330Y-92745421D01*
X153186117Y-92731171D01*
X153168393Y-92715107D01*
X153152329Y-92697383D01*
X153138079Y-92678170D01*
X153125782Y-92657653D01*
X153115554Y-92636029D01*
X153107496Y-92613507D01*
X153101684Y-92590303D01*
X153098174Y-92566642D01*
X153097000Y-92542750D01*
X153097000Y-92055250D01*
X153098174Y-92031358D01*
X153101684Y-92007697D01*
X153107496Y-91984493D01*
X153115554Y-91961971D01*
X153125782Y-91940347D01*
X153138079Y-91919830D01*
X153152329Y-91900617D01*
X153168393Y-91882893D01*
X153186117Y-91866829D01*
X153205330Y-91852579D01*
X153225847Y-91840282D01*
X153247471Y-91830054D01*
X153269993Y-91821996D01*
X153293197Y-91816184D01*
X153316858Y-91812674D01*
X153340750Y-91811500D01*
X154253250Y-91811500D01*
X154277142Y-91812674D01*
G37*
G36*
X154277142Y-81555674D02*
G01*
X154300803Y-81559184D01*
X154324007Y-81564996D01*
X154346529Y-81573054D01*
X154368153Y-81583282D01*
X154388670Y-81595579D01*
X154407883Y-81609829D01*
X154425607Y-81625893D01*
X154441671Y-81643617D01*
X154455921Y-81662830D01*
X154468218Y-81683347D01*
X154478446Y-81704971D01*
X154486504Y-81727493D01*
X154492316Y-81750697D01*
X154495826Y-81774358D01*
X154497000Y-81798250D01*
X154497000Y-82285750D01*
X154495826Y-82309642D01*
X154492316Y-82333303D01*
X154486504Y-82356507D01*
X154478446Y-82379029D01*
X154468218Y-82400653D01*
X154455921Y-82421170D01*
X154441671Y-82440383D01*
X154425607Y-82458107D01*
X154407883Y-82474171D01*
X154388670Y-82488421D01*
X154368153Y-82500718D01*
X154346529Y-82510946D01*
X154324007Y-82519004D01*
X154300803Y-82524816D01*
X154277142Y-82528326D01*
X154253250Y-82529500D01*
X153340750Y-82529500D01*
X153316858Y-82528326D01*
X153293197Y-82524816D01*
X153269993Y-82519004D01*
X153247471Y-82510946D01*
X153225847Y-82500718D01*
X153205330Y-82488421D01*
X153186117Y-82474171D01*
X153168393Y-82458107D01*
X153152329Y-82440383D01*
X153138079Y-82421170D01*
X153125782Y-82400653D01*
X153115554Y-82379029D01*
X153107496Y-82356507D01*
X153101684Y-82333303D01*
X153098174Y-82309642D01*
X153097000Y-82285750D01*
X153097000Y-81798250D01*
X153098174Y-81774358D01*
X153101684Y-81750697D01*
X153107496Y-81727493D01*
X153115554Y-81704971D01*
X153125782Y-81683347D01*
X153138079Y-81662830D01*
X153152329Y-81643617D01*
X153168393Y-81625893D01*
X153186117Y-81609829D01*
X153205330Y-81595579D01*
X153225847Y-81583282D01*
X153247471Y-81573054D01*
X153269993Y-81564996D01*
X153293197Y-81559184D01*
X153316858Y-81555674D01*
X153340750Y-81554500D01*
X154253250Y-81554500D01*
X154277142Y-81555674D01*
G37*
G36*
X154277142Y-79680674D02*
G01*
X154300803Y-79684184D01*
X154324007Y-79689996D01*
X154346529Y-79698054D01*
X154368153Y-79708282D01*
X154388670Y-79720579D01*
X154407883Y-79734829D01*
X154425607Y-79750893D01*
X154441671Y-79768617D01*
X154455921Y-79787830D01*
X154468218Y-79808347D01*
X154478446Y-79829971D01*
X154486504Y-79852493D01*
X154492316Y-79875697D01*
X154495826Y-79899358D01*
X154497000Y-79923250D01*
X154497000Y-80410750D01*
X154495826Y-80434642D01*
X154492316Y-80458303D01*
X154486504Y-80481507D01*
X154478446Y-80504029D01*
X154468218Y-80525653D01*
X154455921Y-80546170D01*
X154441671Y-80565383D01*
X154425607Y-80583107D01*
X154407883Y-80599171D01*
X154388670Y-80613421D01*
X154368153Y-80625718D01*
X154346529Y-80635946D01*
X154324007Y-80644004D01*
X154300803Y-80649816D01*
X154277142Y-80653326D01*
X154253250Y-80654500D01*
X153340750Y-80654500D01*
X153316858Y-80653326D01*
X153293197Y-80649816D01*
X153269993Y-80644004D01*
X153247471Y-80635946D01*
X153225847Y-80625718D01*
X153205330Y-80613421D01*
X153186117Y-80599171D01*
X153168393Y-80583107D01*
X153152329Y-80565383D01*
X153138079Y-80546170D01*
X153125782Y-80525653D01*
X153115554Y-80504029D01*
X153107496Y-80481507D01*
X153101684Y-80458303D01*
X153098174Y-80434642D01*
X153097000Y-80410750D01*
X153097000Y-79923250D01*
X153098174Y-79899358D01*
X153101684Y-79875697D01*
X153107496Y-79852493D01*
X153115554Y-79829971D01*
X153125782Y-79808347D01*
X153138079Y-79787830D01*
X153152329Y-79768617D01*
X153168393Y-79750893D01*
X153186117Y-79734829D01*
X153205330Y-79720579D01*
X153225847Y-79708282D01*
X153247471Y-79698054D01*
X153269993Y-79689996D01*
X153293197Y-79684184D01*
X153316858Y-79680674D01*
X153340750Y-79679500D01*
X154253250Y-79679500D01*
X154277142Y-79680674D01*
G37*
D12*
X40323600Y-79565700D03*
X40323600Y-82765700D03*
X45223600Y-79565700D03*
X45223600Y-82765700D03*
X151395600Y-103238100D03*
X151395600Y-100038100D03*
X146495600Y-103238100D03*
X146495600Y-100038100D03*
D13*
X33782000Y-107061000D03*
X33782000Y-99441000D03*
X37592000Y-107061000D03*
X36322000Y-107061000D03*
X35052000Y-107061000D03*
X35052000Y-99441000D03*
X36322000Y-99441000D03*
X37592000Y-99441000D03*
D12*
X252667600Y-110274300D03*
X252667600Y-113474300D03*
X257567600Y-110274300D03*
X257567600Y-113474300D03*
X257567600Y-103238100D03*
X257567600Y-100038100D03*
X252667600Y-103238100D03*
X252667600Y-100038100D03*
X252667600Y-89801900D03*
X252667600Y-93001900D03*
X257567600Y-89801900D03*
X257567600Y-93001900D03*
X276871600Y-82765700D03*
X276871600Y-79565700D03*
X271971600Y-82765700D03*
X271971600Y-79565700D03*
D14*
X27559000Y-97720000D03*
X26609000Y-95320000D03*
X28509000Y-95320000D03*
D11*
G36*
X28243703Y-92283722D02*
G01*
X28258264Y-92285882D01*
X28272543Y-92289459D01*
X28286403Y-92294418D01*
X28299710Y-92300712D01*
X28312336Y-92308280D01*
X28324159Y-92317048D01*
X28335066Y-92326934D01*
X28344952Y-92337841D01*
X28353720Y-92349664D01*
X28361288Y-92362290D01*
X28367582Y-92375597D01*
X28372541Y-92389457D01*
X28376118Y-92403736D01*
X28378278Y-92418297D01*
X28379000Y-92433000D01*
X28379000Y-92733000D01*
X28378278Y-92747703D01*
X28376118Y-92762264D01*
X28372541Y-92776543D01*
X28367582Y-92790403D01*
X28361288Y-92803710D01*
X28353720Y-92816336D01*
X28344952Y-92828159D01*
X28335066Y-92839066D01*
X28324159Y-92848952D01*
X28312336Y-92857720D01*
X28299710Y-92865288D01*
X28286403Y-92871582D01*
X28272543Y-92876541D01*
X28258264Y-92880118D01*
X28243703Y-92882278D01*
X28229000Y-92883000D01*
X26479000Y-92883000D01*
X26464297Y-92882278D01*
X26449736Y-92880118D01*
X26435457Y-92876541D01*
X26421597Y-92871582D01*
X26408290Y-92865288D01*
X26395664Y-92857720D01*
X26383841Y-92848952D01*
X26372934Y-92839066D01*
X26363048Y-92828159D01*
X26354280Y-92816336D01*
X26346712Y-92803710D01*
X26340418Y-92790403D01*
X26335459Y-92776543D01*
X26331882Y-92762264D01*
X26329722Y-92747703D01*
X26329000Y-92733000D01*
X26329000Y-92433000D01*
X26329722Y-92418297D01*
X26331882Y-92403736D01*
X26335459Y-92389457D01*
X26340418Y-92375597D01*
X26346712Y-92362290D01*
X26354280Y-92349664D01*
X26363048Y-92337841D01*
X26372934Y-92326934D01*
X26383841Y-92317048D01*
X26395664Y-92308280D01*
X26408290Y-92300712D01*
X26421597Y-92294418D01*
X26435457Y-92289459D01*
X26449736Y-92285882D01*
X26464297Y-92283722D01*
X26479000Y-92283000D01*
X28229000Y-92283000D01*
X28243703Y-92283722D01*
G37*
G36*
X28243703Y-91013722D02*
G01*
X28258264Y-91015882D01*
X28272543Y-91019459D01*
X28286403Y-91024418D01*
X28299710Y-91030712D01*
X28312336Y-91038280D01*
X28324159Y-91047048D01*
X28335066Y-91056934D01*
X28344952Y-91067841D01*
X28353720Y-91079664D01*
X28361288Y-91092290D01*
X28367582Y-91105597D01*
X28372541Y-91119457D01*
X28376118Y-91133736D01*
X28378278Y-91148297D01*
X28379000Y-91163000D01*
X28379000Y-91463000D01*
X28378278Y-91477703D01*
X28376118Y-91492264D01*
X28372541Y-91506543D01*
X28367582Y-91520403D01*
X28361288Y-91533710D01*
X28353720Y-91546336D01*
X28344952Y-91558159D01*
X28335066Y-91569066D01*
X28324159Y-91578952D01*
X28312336Y-91587720D01*
X28299710Y-91595288D01*
X28286403Y-91601582D01*
X28272543Y-91606541D01*
X28258264Y-91610118D01*
X28243703Y-91612278D01*
X28229000Y-91613000D01*
X26479000Y-91613000D01*
X26464297Y-91612278D01*
X26449736Y-91610118D01*
X26435457Y-91606541D01*
X26421597Y-91601582D01*
X26408290Y-91595288D01*
X26395664Y-91587720D01*
X26383841Y-91578952D01*
X26372934Y-91569066D01*
X26363048Y-91558159D01*
X26354280Y-91546336D01*
X26346712Y-91533710D01*
X26340418Y-91520403D01*
X26335459Y-91506543D01*
X26331882Y-91492264D01*
X26329722Y-91477703D01*
X26329000Y-91463000D01*
X26329000Y-91163000D01*
X26329722Y-91148297D01*
X26331882Y-91133736D01*
X26335459Y-91119457D01*
X26340418Y-91105597D01*
X26346712Y-91092290D01*
X26354280Y-91079664D01*
X26363048Y-91067841D01*
X26372934Y-91056934D01*
X26383841Y-91047048D01*
X26395664Y-91038280D01*
X26408290Y-91030712D01*
X26421597Y-91024418D01*
X26435457Y-91019459D01*
X26449736Y-91015882D01*
X26464297Y-91013722D01*
X26479000Y-91013000D01*
X28229000Y-91013000D01*
X28243703Y-91013722D01*
G37*
G36*
X28243703Y-89743722D02*
G01*
X28258264Y-89745882D01*
X28272543Y-89749459D01*
X28286403Y-89754418D01*
X28299710Y-89760712D01*
X28312336Y-89768280D01*
X28324159Y-89777048D01*
X28335066Y-89786934D01*
X28344952Y-89797841D01*
X28353720Y-89809664D01*
X28361288Y-89822290D01*
X28367582Y-89835597D01*
X28372541Y-89849457D01*
X28376118Y-89863736D01*
X28378278Y-89878297D01*
X28379000Y-89893000D01*
X28379000Y-90193000D01*
X28378278Y-90207703D01*
X28376118Y-90222264D01*
X28372541Y-90236543D01*
X28367582Y-90250403D01*
X28361288Y-90263710D01*
X28353720Y-90276336D01*
X28344952Y-90288159D01*
X28335066Y-90299066D01*
X28324159Y-90308952D01*
X28312336Y-90317720D01*
X28299710Y-90325288D01*
X28286403Y-90331582D01*
X28272543Y-90336541D01*
X28258264Y-90340118D01*
X28243703Y-90342278D01*
X28229000Y-90343000D01*
X26479000Y-90343000D01*
X26464297Y-90342278D01*
X26449736Y-90340118D01*
X26435457Y-90336541D01*
X26421597Y-90331582D01*
X26408290Y-90325288D01*
X26395664Y-90317720D01*
X26383841Y-90308952D01*
X26372934Y-90299066D01*
X26363048Y-90288159D01*
X26354280Y-90276336D01*
X26346712Y-90263710D01*
X26340418Y-90250403D01*
X26335459Y-90236543D01*
X26331882Y-90222264D01*
X26329722Y-90207703D01*
X26329000Y-90193000D01*
X26329000Y-89893000D01*
X26329722Y-89878297D01*
X26331882Y-89863736D01*
X26335459Y-89849457D01*
X26340418Y-89835597D01*
X26346712Y-89822290D01*
X26354280Y-89809664D01*
X26363048Y-89797841D01*
X26372934Y-89786934D01*
X26383841Y-89777048D01*
X26395664Y-89768280D01*
X26408290Y-89760712D01*
X26421597Y-89754418D01*
X26435457Y-89749459D01*
X26449736Y-89745882D01*
X26464297Y-89743722D01*
X26479000Y-89743000D01*
X28229000Y-89743000D01*
X28243703Y-89743722D01*
G37*
G36*
X28243703Y-88473722D02*
G01*
X28258264Y-88475882D01*
X28272543Y-88479459D01*
X28286403Y-88484418D01*
X28299710Y-88490712D01*
X28312336Y-88498280D01*
X28324159Y-88507048D01*
X28335066Y-88516934D01*
X28344952Y-88527841D01*
X28353720Y-88539664D01*
X28361288Y-88552290D01*
X28367582Y-88565597D01*
X28372541Y-88579457D01*
X28376118Y-88593736D01*
X28378278Y-88608297D01*
X28379000Y-88623000D01*
X28379000Y-88923000D01*
X28378278Y-88937703D01*
X28376118Y-88952264D01*
X28372541Y-88966543D01*
X28367582Y-88980403D01*
X28361288Y-88993710D01*
X28353720Y-89006336D01*
X28344952Y-89018159D01*
X28335066Y-89029066D01*
X28324159Y-89038952D01*
X28312336Y-89047720D01*
X28299710Y-89055288D01*
X28286403Y-89061582D01*
X28272543Y-89066541D01*
X28258264Y-89070118D01*
X28243703Y-89072278D01*
X28229000Y-89073000D01*
X26479000Y-89073000D01*
X26464297Y-89072278D01*
X26449736Y-89070118D01*
X26435457Y-89066541D01*
X26421597Y-89061582D01*
X26408290Y-89055288D01*
X26395664Y-89047720D01*
X26383841Y-89038952D01*
X26372934Y-89029066D01*
X26363048Y-89018159D01*
X26354280Y-89006336D01*
X26346712Y-88993710D01*
X26340418Y-88980403D01*
X26335459Y-88966543D01*
X26331882Y-88952264D01*
X26329722Y-88937703D01*
X26329000Y-88923000D01*
X26329000Y-88623000D01*
X26329722Y-88608297D01*
X26331882Y-88593736D01*
X26335459Y-88579457D01*
X26340418Y-88565597D01*
X26346712Y-88552290D01*
X26354280Y-88539664D01*
X26363048Y-88527841D01*
X26372934Y-88516934D01*
X26383841Y-88507048D01*
X26395664Y-88498280D01*
X26408290Y-88490712D01*
X26421597Y-88484418D01*
X26435457Y-88479459D01*
X26449736Y-88475882D01*
X26464297Y-88473722D01*
X26479000Y-88473000D01*
X28229000Y-88473000D01*
X28243703Y-88473722D01*
G37*
G36*
X28243703Y-87203722D02*
G01*
X28258264Y-87205882D01*
X28272543Y-87209459D01*
X28286403Y-87214418D01*
X28299710Y-87220712D01*
X28312336Y-87228280D01*
X28324159Y-87237048D01*
X28335066Y-87246934D01*
X28344952Y-87257841D01*
X28353720Y-87269664D01*
X28361288Y-87282290D01*
X28367582Y-87295597D01*
X28372541Y-87309457D01*
X28376118Y-87323736D01*
X28378278Y-87338297D01*
X28379000Y-87353000D01*
X28379000Y-87653000D01*
X28378278Y-87667703D01*
X28376118Y-87682264D01*
X28372541Y-87696543D01*
X28367582Y-87710403D01*
X28361288Y-87723710D01*
X28353720Y-87736336D01*
X28344952Y-87748159D01*
X28335066Y-87759066D01*
X28324159Y-87768952D01*
X28312336Y-87777720D01*
X28299710Y-87785288D01*
X28286403Y-87791582D01*
X28272543Y-87796541D01*
X28258264Y-87800118D01*
X28243703Y-87802278D01*
X28229000Y-87803000D01*
X26479000Y-87803000D01*
X26464297Y-87802278D01*
X26449736Y-87800118D01*
X26435457Y-87796541D01*
X26421597Y-87791582D01*
X26408290Y-87785288D01*
X26395664Y-87777720D01*
X26383841Y-87768952D01*
X26372934Y-87759066D01*
X26363048Y-87748159D01*
X26354280Y-87736336D01*
X26346712Y-87723710D01*
X26340418Y-87710403D01*
X26335459Y-87696543D01*
X26331882Y-87682264D01*
X26329722Y-87667703D01*
X26329000Y-87653000D01*
X26329000Y-87353000D01*
X26329722Y-87338297D01*
X26331882Y-87323736D01*
X26335459Y-87309457D01*
X26340418Y-87295597D01*
X26346712Y-87282290D01*
X26354280Y-87269664D01*
X26363048Y-87257841D01*
X26372934Y-87246934D01*
X26383841Y-87237048D01*
X26395664Y-87228280D01*
X26408290Y-87220712D01*
X26421597Y-87214418D01*
X26435457Y-87209459D01*
X26449736Y-87205882D01*
X26464297Y-87203722D01*
X26479000Y-87203000D01*
X28229000Y-87203000D01*
X28243703Y-87203722D01*
G37*
G36*
X28243703Y-85933722D02*
G01*
X28258264Y-85935882D01*
X28272543Y-85939459D01*
X28286403Y-85944418D01*
X28299710Y-85950712D01*
X28312336Y-85958280D01*
X28324159Y-85967048D01*
X28335066Y-85976934D01*
X28344952Y-85987841D01*
X28353720Y-85999664D01*
X28361288Y-86012290D01*
X28367582Y-86025597D01*
X28372541Y-86039457D01*
X28376118Y-86053736D01*
X28378278Y-86068297D01*
X28379000Y-86083000D01*
X28379000Y-86383000D01*
X28378278Y-86397703D01*
X28376118Y-86412264D01*
X28372541Y-86426543D01*
X28367582Y-86440403D01*
X28361288Y-86453710D01*
X28353720Y-86466336D01*
X28344952Y-86478159D01*
X28335066Y-86489066D01*
X28324159Y-86498952D01*
X28312336Y-86507720D01*
X28299710Y-86515288D01*
X28286403Y-86521582D01*
X28272543Y-86526541D01*
X28258264Y-86530118D01*
X28243703Y-86532278D01*
X28229000Y-86533000D01*
X26479000Y-86533000D01*
X26464297Y-86532278D01*
X26449736Y-86530118D01*
X26435457Y-86526541D01*
X26421597Y-86521582D01*
X26408290Y-86515288D01*
X26395664Y-86507720D01*
X26383841Y-86498952D01*
X26372934Y-86489066D01*
X26363048Y-86478159D01*
X26354280Y-86466336D01*
X26346712Y-86453710D01*
X26340418Y-86440403D01*
X26335459Y-86426543D01*
X26331882Y-86412264D01*
X26329722Y-86397703D01*
X26329000Y-86383000D01*
X26329000Y-86083000D01*
X26329722Y-86068297D01*
X26331882Y-86053736D01*
X26335459Y-86039457D01*
X26340418Y-86025597D01*
X26346712Y-86012290D01*
X26354280Y-85999664D01*
X26363048Y-85987841D01*
X26372934Y-85976934D01*
X26383841Y-85967048D01*
X26395664Y-85958280D01*
X26408290Y-85950712D01*
X26421597Y-85944418D01*
X26435457Y-85939459D01*
X26449736Y-85935882D01*
X26464297Y-85933722D01*
X26479000Y-85933000D01*
X28229000Y-85933000D01*
X28243703Y-85933722D01*
G37*
G36*
X28243703Y-84663722D02*
G01*
X28258264Y-84665882D01*
X28272543Y-84669459D01*
X28286403Y-84674418D01*
X28299710Y-84680712D01*
X28312336Y-84688280D01*
X28324159Y-84697048D01*
X28335066Y-84706934D01*
X28344952Y-84717841D01*
X28353720Y-84729664D01*
X28361288Y-84742290D01*
X28367582Y-84755597D01*
X28372541Y-84769457D01*
X28376118Y-84783736D01*
X28378278Y-84798297D01*
X28379000Y-84813000D01*
X28379000Y-85113000D01*
X28378278Y-85127703D01*
X28376118Y-85142264D01*
X28372541Y-85156543D01*
X28367582Y-85170403D01*
X28361288Y-85183710D01*
X28353720Y-85196336D01*
X28344952Y-85208159D01*
X28335066Y-85219066D01*
X28324159Y-85228952D01*
X28312336Y-85237720D01*
X28299710Y-85245288D01*
X28286403Y-85251582D01*
X28272543Y-85256541D01*
X28258264Y-85260118D01*
X28243703Y-85262278D01*
X28229000Y-85263000D01*
X26479000Y-85263000D01*
X26464297Y-85262278D01*
X26449736Y-85260118D01*
X26435457Y-85256541D01*
X26421597Y-85251582D01*
X26408290Y-85245288D01*
X26395664Y-85237720D01*
X26383841Y-85228952D01*
X26372934Y-85219066D01*
X26363048Y-85208159D01*
X26354280Y-85196336D01*
X26346712Y-85183710D01*
X26340418Y-85170403D01*
X26335459Y-85156543D01*
X26331882Y-85142264D01*
X26329722Y-85127703D01*
X26329000Y-85113000D01*
X26329000Y-84813000D01*
X26329722Y-84798297D01*
X26331882Y-84783736D01*
X26335459Y-84769457D01*
X26340418Y-84755597D01*
X26346712Y-84742290D01*
X26354280Y-84729664D01*
X26363048Y-84717841D01*
X26372934Y-84706934D01*
X26383841Y-84697048D01*
X26395664Y-84688280D01*
X26408290Y-84680712D01*
X26421597Y-84674418D01*
X26435457Y-84669459D01*
X26449736Y-84665882D01*
X26464297Y-84663722D01*
X26479000Y-84663000D01*
X28229000Y-84663000D01*
X28243703Y-84663722D01*
G37*
G36*
X28243703Y-83393722D02*
G01*
X28258264Y-83395882D01*
X28272543Y-83399459D01*
X28286403Y-83404418D01*
X28299710Y-83410712D01*
X28312336Y-83418280D01*
X28324159Y-83427048D01*
X28335066Y-83436934D01*
X28344952Y-83447841D01*
X28353720Y-83459664D01*
X28361288Y-83472290D01*
X28367582Y-83485597D01*
X28372541Y-83499457D01*
X28376118Y-83513736D01*
X28378278Y-83528297D01*
X28379000Y-83543000D01*
X28379000Y-83843000D01*
X28378278Y-83857703D01*
X28376118Y-83872264D01*
X28372541Y-83886543D01*
X28367582Y-83900403D01*
X28361288Y-83913710D01*
X28353720Y-83926336D01*
X28344952Y-83938159D01*
X28335066Y-83949066D01*
X28324159Y-83958952D01*
X28312336Y-83967720D01*
X28299710Y-83975288D01*
X28286403Y-83981582D01*
X28272543Y-83986541D01*
X28258264Y-83990118D01*
X28243703Y-83992278D01*
X28229000Y-83993000D01*
X26479000Y-83993000D01*
X26464297Y-83992278D01*
X26449736Y-83990118D01*
X26435457Y-83986541D01*
X26421597Y-83981582D01*
X26408290Y-83975288D01*
X26395664Y-83967720D01*
X26383841Y-83958952D01*
X26372934Y-83949066D01*
X26363048Y-83938159D01*
X26354280Y-83926336D01*
X26346712Y-83913710D01*
X26340418Y-83900403D01*
X26335459Y-83886543D01*
X26331882Y-83872264D01*
X26329722Y-83857703D01*
X26329000Y-83843000D01*
X26329000Y-83543000D01*
X26329722Y-83528297D01*
X26331882Y-83513736D01*
X26335459Y-83499457D01*
X26340418Y-83485597D01*
X26346712Y-83472290D01*
X26354280Y-83459664D01*
X26363048Y-83447841D01*
X26372934Y-83436934D01*
X26383841Y-83427048D01*
X26395664Y-83418280D01*
X26408290Y-83410712D01*
X26421597Y-83404418D01*
X26435457Y-83399459D01*
X26449736Y-83395882D01*
X26464297Y-83393722D01*
X26479000Y-83393000D01*
X28229000Y-83393000D01*
X28243703Y-83393722D01*
G37*
G36*
X28243703Y-82123722D02*
G01*
X28258264Y-82125882D01*
X28272543Y-82129459D01*
X28286403Y-82134418D01*
X28299710Y-82140712D01*
X28312336Y-82148280D01*
X28324159Y-82157048D01*
X28335066Y-82166934D01*
X28344952Y-82177841D01*
X28353720Y-82189664D01*
X28361288Y-82202290D01*
X28367582Y-82215597D01*
X28372541Y-82229457D01*
X28376118Y-82243736D01*
X28378278Y-82258297D01*
X28379000Y-82273000D01*
X28379000Y-82573000D01*
X28378278Y-82587703D01*
X28376118Y-82602264D01*
X28372541Y-82616543D01*
X28367582Y-82630403D01*
X28361288Y-82643710D01*
X28353720Y-82656336D01*
X28344952Y-82668159D01*
X28335066Y-82679066D01*
X28324159Y-82688952D01*
X28312336Y-82697720D01*
X28299710Y-82705288D01*
X28286403Y-82711582D01*
X28272543Y-82716541D01*
X28258264Y-82720118D01*
X28243703Y-82722278D01*
X28229000Y-82723000D01*
X26479000Y-82723000D01*
X26464297Y-82722278D01*
X26449736Y-82720118D01*
X26435457Y-82716541D01*
X26421597Y-82711582D01*
X26408290Y-82705288D01*
X26395664Y-82697720D01*
X26383841Y-82688952D01*
X26372934Y-82679066D01*
X26363048Y-82668159D01*
X26354280Y-82656336D01*
X26346712Y-82643710D01*
X26340418Y-82630403D01*
X26335459Y-82616543D01*
X26331882Y-82602264D01*
X26329722Y-82587703D01*
X26329000Y-82573000D01*
X26329000Y-82273000D01*
X26329722Y-82258297D01*
X26331882Y-82243736D01*
X26335459Y-82229457D01*
X26340418Y-82215597D01*
X26346712Y-82202290D01*
X26354280Y-82189664D01*
X26363048Y-82177841D01*
X26372934Y-82166934D01*
X26383841Y-82157048D01*
X26395664Y-82148280D01*
X26408290Y-82140712D01*
X26421597Y-82134418D01*
X26435457Y-82129459D01*
X26449736Y-82125882D01*
X26464297Y-82123722D01*
X26479000Y-82123000D01*
X28229000Y-82123000D01*
X28243703Y-82123722D01*
G37*
G36*
X28243703Y-80853722D02*
G01*
X28258264Y-80855882D01*
X28272543Y-80859459D01*
X28286403Y-80864418D01*
X28299710Y-80870712D01*
X28312336Y-80878280D01*
X28324159Y-80887048D01*
X28335066Y-80896934D01*
X28344952Y-80907841D01*
X28353720Y-80919664D01*
X28361288Y-80932290D01*
X28367582Y-80945597D01*
X28372541Y-80959457D01*
X28376118Y-80973736D01*
X28378278Y-80988297D01*
X28379000Y-81003000D01*
X28379000Y-81303000D01*
X28378278Y-81317703D01*
X28376118Y-81332264D01*
X28372541Y-81346543D01*
X28367582Y-81360403D01*
X28361288Y-81373710D01*
X28353720Y-81386336D01*
X28344952Y-81398159D01*
X28335066Y-81409066D01*
X28324159Y-81418952D01*
X28312336Y-81427720D01*
X28299710Y-81435288D01*
X28286403Y-81441582D01*
X28272543Y-81446541D01*
X28258264Y-81450118D01*
X28243703Y-81452278D01*
X28229000Y-81453000D01*
X26479000Y-81453000D01*
X26464297Y-81452278D01*
X26449736Y-81450118D01*
X26435457Y-81446541D01*
X26421597Y-81441582D01*
X26408290Y-81435288D01*
X26395664Y-81427720D01*
X26383841Y-81418952D01*
X26372934Y-81409066D01*
X26363048Y-81398159D01*
X26354280Y-81386336D01*
X26346712Y-81373710D01*
X26340418Y-81360403D01*
X26335459Y-81346543D01*
X26331882Y-81332264D01*
X26329722Y-81317703D01*
X26329000Y-81303000D01*
X26329000Y-81003000D01*
X26329722Y-80988297D01*
X26331882Y-80973736D01*
X26335459Y-80959457D01*
X26340418Y-80945597D01*
X26346712Y-80932290D01*
X26354280Y-80919664D01*
X26363048Y-80907841D01*
X26372934Y-80896934D01*
X26383841Y-80887048D01*
X26395664Y-80878280D01*
X26408290Y-80870712D01*
X26421597Y-80864418D01*
X26435457Y-80859459D01*
X26449736Y-80855882D01*
X26464297Y-80853722D01*
X26479000Y-80853000D01*
X28229000Y-80853000D01*
X28243703Y-80853722D01*
G37*
G36*
X37543703Y-80853722D02*
G01*
X37558264Y-80855882D01*
X37572543Y-80859459D01*
X37586403Y-80864418D01*
X37599710Y-80870712D01*
X37612336Y-80878280D01*
X37624159Y-80887048D01*
X37635066Y-80896934D01*
X37644952Y-80907841D01*
X37653720Y-80919664D01*
X37661288Y-80932290D01*
X37667582Y-80945597D01*
X37672541Y-80959457D01*
X37676118Y-80973736D01*
X37678278Y-80988297D01*
X37679000Y-81003000D01*
X37679000Y-81303000D01*
X37678278Y-81317703D01*
X37676118Y-81332264D01*
X37672541Y-81346543D01*
X37667582Y-81360403D01*
X37661288Y-81373710D01*
X37653720Y-81386336D01*
X37644952Y-81398159D01*
X37635066Y-81409066D01*
X37624159Y-81418952D01*
X37612336Y-81427720D01*
X37599710Y-81435288D01*
X37586403Y-81441582D01*
X37572543Y-81446541D01*
X37558264Y-81450118D01*
X37543703Y-81452278D01*
X37529000Y-81453000D01*
X35779000Y-81453000D01*
X35764297Y-81452278D01*
X35749736Y-81450118D01*
X35735457Y-81446541D01*
X35721597Y-81441582D01*
X35708290Y-81435288D01*
X35695664Y-81427720D01*
X35683841Y-81418952D01*
X35672934Y-81409066D01*
X35663048Y-81398159D01*
X35654280Y-81386336D01*
X35646712Y-81373710D01*
X35640418Y-81360403D01*
X35635459Y-81346543D01*
X35631882Y-81332264D01*
X35629722Y-81317703D01*
X35629000Y-81303000D01*
X35629000Y-81003000D01*
X35629722Y-80988297D01*
X35631882Y-80973736D01*
X35635459Y-80959457D01*
X35640418Y-80945597D01*
X35646712Y-80932290D01*
X35654280Y-80919664D01*
X35663048Y-80907841D01*
X35672934Y-80896934D01*
X35683841Y-80887048D01*
X35695664Y-80878280D01*
X35708290Y-80870712D01*
X35721597Y-80864418D01*
X35735457Y-80859459D01*
X35749736Y-80855882D01*
X35764297Y-80853722D01*
X35779000Y-80853000D01*
X37529000Y-80853000D01*
X37543703Y-80853722D01*
G37*
G36*
X37543703Y-82123722D02*
G01*
X37558264Y-82125882D01*
X37572543Y-82129459D01*
X37586403Y-82134418D01*
X37599710Y-82140712D01*
X37612336Y-82148280D01*
X37624159Y-82157048D01*
X37635066Y-82166934D01*
X37644952Y-82177841D01*
X37653720Y-82189664D01*
X37661288Y-82202290D01*
X37667582Y-82215597D01*
X37672541Y-82229457D01*
X37676118Y-82243736D01*
X37678278Y-82258297D01*
X37679000Y-82273000D01*
X37679000Y-82573000D01*
X37678278Y-82587703D01*
X37676118Y-82602264D01*
X37672541Y-82616543D01*
X37667582Y-82630403D01*
X37661288Y-82643710D01*
X37653720Y-82656336D01*
X37644952Y-82668159D01*
X37635066Y-82679066D01*
X37624159Y-82688952D01*
X37612336Y-82697720D01*
X37599710Y-82705288D01*
X37586403Y-82711582D01*
X37572543Y-82716541D01*
X37558264Y-82720118D01*
X37543703Y-82722278D01*
X37529000Y-82723000D01*
X35779000Y-82723000D01*
X35764297Y-82722278D01*
X35749736Y-82720118D01*
X35735457Y-82716541D01*
X35721597Y-82711582D01*
X35708290Y-82705288D01*
X35695664Y-82697720D01*
X35683841Y-82688952D01*
X35672934Y-82679066D01*
X35663048Y-82668159D01*
X35654280Y-82656336D01*
X35646712Y-82643710D01*
X35640418Y-82630403D01*
X35635459Y-82616543D01*
X35631882Y-82602264D01*
X35629722Y-82587703D01*
X35629000Y-82573000D01*
X35629000Y-82273000D01*
X35629722Y-82258297D01*
X35631882Y-82243736D01*
X35635459Y-82229457D01*
X35640418Y-82215597D01*
X35646712Y-82202290D01*
X35654280Y-82189664D01*
X35663048Y-82177841D01*
X35672934Y-82166934D01*
X35683841Y-82157048D01*
X35695664Y-82148280D01*
X35708290Y-82140712D01*
X35721597Y-82134418D01*
X35735457Y-82129459D01*
X35749736Y-82125882D01*
X35764297Y-82123722D01*
X35779000Y-82123000D01*
X37529000Y-82123000D01*
X37543703Y-82123722D01*
G37*
G36*
X37543703Y-83393722D02*
G01*
X37558264Y-83395882D01*
X37572543Y-83399459D01*
X37586403Y-83404418D01*
X37599710Y-83410712D01*
X37612336Y-83418280D01*
X37624159Y-83427048D01*
X37635066Y-83436934D01*
X37644952Y-83447841D01*
X37653720Y-83459664D01*
X37661288Y-83472290D01*
X37667582Y-83485597D01*
X37672541Y-83499457D01*
X37676118Y-83513736D01*
X37678278Y-83528297D01*
X37679000Y-83543000D01*
X37679000Y-83843000D01*
X37678278Y-83857703D01*
X37676118Y-83872264D01*
X37672541Y-83886543D01*
X37667582Y-83900403D01*
X37661288Y-83913710D01*
X37653720Y-83926336D01*
X37644952Y-83938159D01*
X37635066Y-83949066D01*
X37624159Y-83958952D01*
X37612336Y-83967720D01*
X37599710Y-83975288D01*
X37586403Y-83981582D01*
X37572543Y-83986541D01*
X37558264Y-83990118D01*
X37543703Y-83992278D01*
X37529000Y-83993000D01*
X35779000Y-83993000D01*
X35764297Y-83992278D01*
X35749736Y-83990118D01*
X35735457Y-83986541D01*
X35721597Y-83981582D01*
X35708290Y-83975288D01*
X35695664Y-83967720D01*
X35683841Y-83958952D01*
X35672934Y-83949066D01*
X35663048Y-83938159D01*
X35654280Y-83926336D01*
X35646712Y-83913710D01*
X35640418Y-83900403D01*
X35635459Y-83886543D01*
X35631882Y-83872264D01*
X35629722Y-83857703D01*
X35629000Y-83843000D01*
X35629000Y-83543000D01*
X35629722Y-83528297D01*
X35631882Y-83513736D01*
X35635459Y-83499457D01*
X35640418Y-83485597D01*
X35646712Y-83472290D01*
X35654280Y-83459664D01*
X35663048Y-83447841D01*
X35672934Y-83436934D01*
X35683841Y-83427048D01*
X35695664Y-83418280D01*
X35708290Y-83410712D01*
X35721597Y-83404418D01*
X35735457Y-83399459D01*
X35749736Y-83395882D01*
X35764297Y-83393722D01*
X35779000Y-83393000D01*
X37529000Y-83393000D01*
X37543703Y-83393722D01*
G37*
G36*
X37543703Y-84663722D02*
G01*
X37558264Y-84665882D01*
X37572543Y-84669459D01*
X37586403Y-84674418D01*
X37599710Y-84680712D01*
X37612336Y-84688280D01*
X37624159Y-84697048D01*
X37635066Y-84706934D01*
X37644952Y-84717841D01*
X37653720Y-84729664D01*
X37661288Y-84742290D01*
X37667582Y-84755597D01*
X37672541Y-84769457D01*
X37676118Y-84783736D01*
X37678278Y-84798297D01*
X37679000Y-84813000D01*
X37679000Y-85113000D01*
X37678278Y-85127703D01*
X37676118Y-85142264D01*
X37672541Y-85156543D01*
X37667582Y-85170403D01*
X37661288Y-85183710D01*
X37653720Y-85196336D01*
X37644952Y-85208159D01*
X37635066Y-85219066D01*
X37624159Y-85228952D01*
X37612336Y-85237720D01*
X37599710Y-85245288D01*
X37586403Y-85251582D01*
X37572543Y-85256541D01*
X37558264Y-85260118D01*
X37543703Y-85262278D01*
X37529000Y-85263000D01*
X35779000Y-85263000D01*
X35764297Y-85262278D01*
X35749736Y-85260118D01*
X35735457Y-85256541D01*
X35721597Y-85251582D01*
X35708290Y-85245288D01*
X35695664Y-85237720D01*
X35683841Y-85228952D01*
X35672934Y-85219066D01*
X35663048Y-85208159D01*
X35654280Y-85196336D01*
X35646712Y-85183710D01*
X35640418Y-85170403D01*
X35635459Y-85156543D01*
X35631882Y-85142264D01*
X35629722Y-85127703D01*
X35629000Y-85113000D01*
X35629000Y-84813000D01*
X35629722Y-84798297D01*
X35631882Y-84783736D01*
X35635459Y-84769457D01*
X35640418Y-84755597D01*
X35646712Y-84742290D01*
X35654280Y-84729664D01*
X35663048Y-84717841D01*
X35672934Y-84706934D01*
X35683841Y-84697048D01*
X35695664Y-84688280D01*
X35708290Y-84680712D01*
X35721597Y-84674418D01*
X35735457Y-84669459D01*
X35749736Y-84665882D01*
X35764297Y-84663722D01*
X35779000Y-84663000D01*
X37529000Y-84663000D01*
X37543703Y-84663722D01*
G37*
G36*
X37543703Y-85933722D02*
G01*
X37558264Y-85935882D01*
X37572543Y-85939459D01*
X37586403Y-85944418D01*
X37599710Y-85950712D01*
X37612336Y-85958280D01*
X37624159Y-85967048D01*
X37635066Y-85976934D01*
X37644952Y-85987841D01*
X37653720Y-85999664D01*
X37661288Y-86012290D01*
X37667582Y-86025597D01*
X37672541Y-86039457D01*
X37676118Y-86053736D01*
X37678278Y-86068297D01*
X37679000Y-86083000D01*
X37679000Y-86383000D01*
X37678278Y-86397703D01*
X37676118Y-86412264D01*
X37672541Y-86426543D01*
X37667582Y-86440403D01*
X37661288Y-86453710D01*
X37653720Y-86466336D01*
X37644952Y-86478159D01*
X37635066Y-86489066D01*
X37624159Y-86498952D01*
X37612336Y-86507720D01*
X37599710Y-86515288D01*
X37586403Y-86521582D01*
X37572543Y-86526541D01*
X37558264Y-86530118D01*
X37543703Y-86532278D01*
X37529000Y-86533000D01*
X35779000Y-86533000D01*
X35764297Y-86532278D01*
X35749736Y-86530118D01*
X35735457Y-86526541D01*
X35721597Y-86521582D01*
X35708290Y-86515288D01*
X35695664Y-86507720D01*
X35683841Y-86498952D01*
X35672934Y-86489066D01*
X35663048Y-86478159D01*
X35654280Y-86466336D01*
X35646712Y-86453710D01*
X35640418Y-86440403D01*
X35635459Y-86426543D01*
X35631882Y-86412264D01*
X35629722Y-86397703D01*
X35629000Y-86383000D01*
X35629000Y-86083000D01*
X35629722Y-86068297D01*
X35631882Y-86053736D01*
X35635459Y-86039457D01*
X35640418Y-86025597D01*
X35646712Y-86012290D01*
X35654280Y-85999664D01*
X35663048Y-85987841D01*
X35672934Y-85976934D01*
X35683841Y-85967048D01*
X35695664Y-85958280D01*
X35708290Y-85950712D01*
X35721597Y-85944418D01*
X35735457Y-85939459D01*
X35749736Y-85935882D01*
X35764297Y-85933722D01*
X35779000Y-85933000D01*
X37529000Y-85933000D01*
X37543703Y-85933722D01*
G37*
G36*
X37543703Y-87203722D02*
G01*
X37558264Y-87205882D01*
X37572543Y-87209459D01*
X37586403Y-87214418D01*
X37599710Y-87220712D01*
X37612336Y-87228280D01*
X37624159Y-87237048D01*
X37635066Y-87246934D01*
X37644952Y-87257841D01*
X37653720Y-87269664D01*
X37661288Y-87282290D01*
X37667582Y-87295597D01*
X37672541Y-87309457D01*
X37676118Y-87323736D01*
X37678278Y-87338297D01*
X37679000Y-87353000D01*
X37679000Y-87653000D01*
X37678278Y-87667703D01*
X37676118Y-87682264D01*
X37672541Y-87696543D01*
X37667582Y-87710403D01*
X37661288Y-87723710D01*
X37653720Y-87736336D01*
X37644952Y-87748159D01*
X37635066Y-87759066D01*
X37624159Y-87768952D01*
X37612336Y-87777720D01*
X37599710Y-87785288D01*
X37586403Y-87791582D01*
X37572543Y-87796541D01*
X37558264Y-87800118D01*
X37543703Y-87802278D01*
X37529000Y-87803000D01*
X35779000Y-87803000D01*
X35764297Y-87802278D01*
X35749736Y-87800118D01*
X35735457Y-87796541D01*
X35721597Y-87791582D01*
X35708290Y-87785288D01*
X35695664Y-87777720D01*
X35683841Y-87768952D01*
X35672934Y-87759066D01*
X35663048Y-87748159D01*
X35654280Y-87736336D01*
X35646712Y-87723710D01*
X35640418Y-87710403D01*
X35635459Y-87696543D01*
X35631882Y-87682264D01*
X35629722Y-87667703D01*
X35629000Y-87653000D01*
X35629000Y-87353000D01*
X35629722Y-87338297D01*
X35631882Y-87323736D01*
X35635459Y-87309457D01*
X35640418Y-87295597D01*
X35646712Y-87282290D01*
X35654280Y-87269664D01*
X35663048Y-87257841D01*
X35672934Y-87246934D01*
X35683841Y-87237048D01*
X35695664Y-87228280D01*
X35708290Y-87220712D01*
X35721597Y-87214418D01*
X35735457Y-87209459D01*
X35749736Y-87205882D01*
X35764297Y-87203722D01*
X35779000Y-87203000D01*
X37529000Y-87203000D01*
X37543703Y-87203722D01*
G37*
G36*
X37543703Y-88473722D02*
G01*
X37558264Y-88475882D01*
X37572543Y-88479459D01*
X37586403Y-88484418D01*
X37599710Y-88490712D01*
X37612336Y-88498280D01*
X37624159Y-88507048D01*
X37635066Y-88516934D01*
X37644952Y-88527841D01*
X37653720Y-88539664D01*
X37661288Y-88552290D01*
X37667582Y-88565597D01*
X37672541Y-88579457D01*
X37676118Y-88593736D01*
X37678278Y-88608297D01*
X37679000Y-88623000D01*
X37679000Y-88923000D01*
X37678278Y-88937703D01*
X37676118Y-88952264D01*
X37672541Y-88966543D01*
X37667582Y-88980403D01*
X37661288Y-88993710D01*
X37653720Y-89006336D01*
X37644952Y-89018159D01*
X37635066Y-89029066D01*
X37624159Y-89038952D01*
X37612336Y-89047720D01*
X37599710Y-89055288D01*
X37586403Y-89061582D01*
X37572543Y-89066541D01*
X37558264Y-89070118D01*
X37543703Y-89072278D01*
X37529000Y-89073000D01*
X35779000Y-89073000D01*
X35764297Y-89072278D01*
X35749736Y-89070118D01*
X35735457Y-89066541D01*
X35721597Y-89061582D01*
X35708290Y-89055288D01*
X35695664Y-89047720D01*
X35683841Y-89038952D01*
X35672934Y-89029066D01*
X35663048Y-89018159D01*
X35654280Y-89006336D01*
X35646712Y-88993710D01*
X35640418Y-88980403D01*
X35635459Y-88966543D01*
X35631882Y-88952264D01*
X35629722Y-88937703D01*
X35629000Y-88923000D01*
X35629000Y-88623000D01*
X35629722Y-88608297D01*
X35631882Y-88593736D01*
X35635459Y-88579457D01*
X35640418Y-88565597D01*
X35646712Y-88552290D01*
X35654280Y-88539664D01*
X35663048Y-88527841D01*
X35672934Y-88516934D01*
X35683841Y-88507048D01*
X35695664Y-88498280D01*
X35708290Y-88490712D01*
X35721597Y-88484418D01*
X35735457Y-88479459D01*
X35749736Y-88475882D01*
X35764297Y-88473722D01*
X35779000Y-88473000D01*
X37529000Y-88473000D01*
X37543703Y-88473722D01*
G37*
G36*
X37543703Y-89743722D02*
G01*
X37558264Y-89745882D01*
X37572543Y-89749459D01*
X37586403Y-89754418D01*
X37599710Y-89760712D01*
X37612336Y-89768280D01*
X37624159Y-89777048D01*
X37635066Y-89786934D01*
X37644952Y-89797841D01*
X37653720Y-89809664D01*
X37661288Y-89822290D01*
X37667582Y-89835597D01*
X37672541Y-89849457D01*
X37676118Y-89863736D01*
X37678278Y-89878297D01*
X37679000Y-89893000D01*
X37679000Y-90193000D01*
X37678278Y-90207703D01*
X37676118Y-90222264D01*
X37672541Y-90236543D01*
X37667582Y-90250403D01*
X37661288Y-90263710D01*
X37653720Y-90276336D01*
X37644952Y-90288159D01*
X37635066Y-90299066D01*
X37624159Y-90308952D01*
X37612336Y-90317720D01*
X37599710Y-90325288D01*
X37586403Y-90331582D01*
X37572543Y-90336541D01*
X37558264Y-90340118D01*
X37543703Y-90342278D01*
X37529000Y-90343000D01*
X35779000Y-90343000D01*
X35764297Y-90342278D01*
X35749736Y-90340118D01*
X35735457Y-90336541D01*
X35721597Y-90331582D01*
X35708290Y-90325288D01*
X35695664Y-90317720D01*
X35683841Y-90308952D01*
X35672934Y-90299066D01*
X35663048Y-90288159D01*
X35654280Y-90276336D01*
X35646712Y-90263710D01*
X35640418Y-90250403D01*
X35635459Y-90236543D01*
X35631882Y-90222264D01*
X35629722Y-90207703D01*
X35629000Y-90193000D01*
X35629000Y-89893000D01*
X35629722Y-89878297D01*
X35631882Y-89863736D01*
X35635459Y-89849457D01*
X35640418Y-89835597D01*
X35646712Y-89822290D01*
X35654280Y-89809664D01*
X35663048Y-89797841D01*
X35672934Y-89786934D01*
X35683841Y-89777048D01*
X35695664Y-89768280D01*
X35708290Y-89760712D01*
X35721597Y-89754418D01*
X35735457Y-89749459D01*
X35749736Y-89745882D01*
X35764297Y-89743722D01*
X35779000Y-89743000D01*
X37529000Y-89743000D01*
X37543703Y-89743722D01*
G37*
G36*
X37543703Y-91013722D02*
G01*
X37558264Y-91015882D01*
X37572543Y-91019459D01*
X37586403Y-91024418D01*
X37599710Y-91030712D01*
X37612336Y-91038280D01*
X37624159Y-91047048D01*
X37635066Y-91056934D01*
X37644952Y-91067841D01*
X37653720Y-91079664D01*
X37661288Y-91092290D01*
X37667582Y-91105597D01*
X37672541Y-91119457D01*
X37676118Y-91133736D01*
X37678278Y-91148297D01*
X37679000Y-91163000D01*
X37679000Y-91463000D01*
X37678278Y-91477703D01*
X37676118Y-91492264D01*
X37672541Y-91506543D01*
X37667582Y-91520403D01*
X37661288Y-91533710D01*
X37653720Y-91546336D01*
X37644952Y-91558159D01*
X37635066Y-91569066D01*
X37624159Y-91578952D01*
X37612336Y-91587720D01*
X37599710Y-91595288D01*
X37586403Y-91601582D01*
X37572543Y-91606541D01*
X37558264Y-91610118D01*
X37543703Y-91612278D01*
X37529000Y-91613000D01*
X35779000Y-91613000D01*
X35764297Y-91612278D01*
X35749736Y-91610118D01*
X35735457Y-91606541D01*
X35721597Y-91601582D01*
X35708290Y-91595288D01*
X35695664Y-91587720D01*
X35683841Y-91578952D01*
X35672934Y-91569066D01*
X35663048Y-91558159D01*
X35654280Y-91546336D01*
X35646712Y-91533710D01*
X35640418Y-91520403D01*
X35635459Y-91506543D01*
X35631882Y-91492264D01*
X35629722Y-91477703D01*
X35629000Y-91463000D01*
X35629000Y-91163000D01*
X35629722Y-91148297D01*
X35631882Y-91133736D01*
X35635459Y-91119457D01*
X35640418Y-91105597D01*
X35646712Y-91092290D01*
X35654280Y-91079664D01*
X35663048Y-91067841D01*
X35672934Y-91056934D01*
X35683841Y-91047048D01*
X35695664Y-91038280D01*
X35708290Y-91030712D01*
X35721597Y-91024418D01*
X35735457Y-91019459D01*
X35749736Y-91015882D01*
X35764297Y-91013722D01*
X35779000Y-91013000D01*
X37529000Y-91013000D01*
X37543703Y-91013722D01*
G37*
G36*
X37543703Y-92283722D02*
G01*
X37558264Y-92285882D01*
X37572543Y-92289459D01*
X37586403Y-92294418D01*
X37599710Y-92300712D01*
X37612336Y-92308280D01*
X37624159Y-92317048D01*
X37635066Y-92326934D01*
X37644952Y-92337841D01*
X37653720Y-92349664D01*
X37661288Y-92362290D01*
X37667582Y-92375597D01*
X37672541Y-92389457D01*
X37676118Y-92403736D01*
X37678278Y-92418297D01*
X37679000Y-92433000D01*
X37679000Y-92733000D01*
X37678278Y-92747703D01*
X37676118Y-92762264D01*
X37672541Y-92776543D01*
X37667582Y-92790403D01*
X37661288Y-92803710D01*
X37653720Y-92816336D01*
X37644952Y-92828159D01*
X37635066Y-92839066D01*
X37624159Y-92848952D01*
X37612336Y-92857720D01*
X37599710Y-92865288D01*
X37586403Y-92871582D01*
X37572543Y-92876541D01*
X37558264Y-92880118D01*
X37543703Y-92882278D01*
X37529000Y-92883000D01*
X35779000Y-92883000D01*
X35764297Y-92882278D01*
X35749736Y-92880118D01*
X35735457Y-92876541D01*
X35721597Y-92871582D01*
X35708290Y-92865288D01*
X35695664Y-92857720D01*
X35683841Y-92848952D01*
X35672934Y-92839066D01*
X35663048Y-92828159D01*
X35654280Y-92816336D01*
X35646712Y-92803710D01*
X35640418Y-92790403D01*
X35635459Y-92776543D01*
X35631882Y-92762264D01*
X35629722Y-92747703D01*
X35629000Y-92733000D01*
X35629000Y-92433000D01*
X35629722Y-92418297D01*
X35631882Y-92403736D01*
X35635459Y-92389457D01*
X35640418Y-92375597D01*
X35646712Y-92362290D01*
X35654280Y-92349664D01*
X35663048Y-92337841D01*
X35672934Y-92326934D01*
X35683841Y-92317048D01*
X35695664Y-92308280D01*
X35708290Y-92300712D01*
X35721597Y-92294418D01*
X35735457Y-92289459D01*
X35749736Y-92285882D01*
X35764297Y-92283722D01*
X35779000Y-92283000D01*
X37529000Y-92283000D01*
X37543703Y-92283722D01*
G37*
D15*
X26670000Y-110363000D03*
D16*
X29920000Y-109363000D03*
X29920000Y-111363000D03*
D11*
G36*
X39977142Y-86811174D02*
G01*
X40000803Y-86814684D01*
X40024007Y-86820496D01*
X40046529Y-86828554D01*
X40068153Y-86838782D01*
X40088670Y-86851079D01*
X40107883Y-86865329D01*
X40125607Y-86881393D01*
X40141671Y-86899117D01*
X40155921Y-86918330D01*
X40168218Y-86938847D01*
X40178446Y-86960471D01*
X40186504Y-86982993D01*
X40192316Y-87006197D01*
X40195826Y-87029858D01*
X40197000Y-87053750D01*
X40197000Y-87541250D01*
X40195826Y-87565142D01*
X40192316Y-87588803D01*
X40186504Y-87612007D01*
X40178446Y-87634529D01*
X40168218Y-87656153D01*
X40155921Y-87676670D01*
X40141671Y-87695883D01*
X40125607Y-87713607D01*
X40107883Y-87729671D01*
X40088670Y-87743921D01*
X40068153Y-87756218D01*
X40046529Y-87766446D01*
X40024007Y-87774504D01*
X40000803Y-87780316D01*
X39977142Y-87783826D01*
X39953250Y-87785000D01*
X39040750Y-87785000D01*
X39016858Y-87783826D01*
X38993197Y-87780316D01*
X38969993Y-87774504D01*
X38947471Y-87766446D01*
X38925847Y-87756218D01*
X38905330Y-87743921D01*
X38886117Y-87729671D01*
X38868393Y-87713607D01*
X38852329Y-87695883D01*
X38838079Y-87676670D01*
X38825782Y-87656153D01*
X38815554Y-87634529D01*
X38807496Y-87612007D01*
X38801684Y-87588803D01*
X38798174Y-87565142D01*
X38797000Y-87541250D01*
X38797000Y-87053750D01*
X38798174Y-87029858D01*
X38801684Y-87006197D01*
X38807496Y-86982993D01*
X38815554Y-86960471D01*
X38825782Y-86938847D01*
X38838079Y-86918330D01*
X38852329Y-86899117D01*
X38868393Y-86881393D01*
X38886117Y-86865329D01*
X38905330Y-86851079D01*
X38925847Y-86838782D01*
X38947471Y-86828554D01*
X38969993Y-86820496D01*
X38993197Y-86814684D01*
X39016858Y-86811174D01*
X39040750Y-86810000D01*
X39953250Y-86810000D01*
X39977142Y-86811174D01*
G37*
G36*
X39977142Y-84936174D02*
G01*
X40000803Y-84939684D01*
X40024007Y-84945496D01*
X40046529Y-84953554D01*
X40068153Y-84963782D01*
X40088670Y-84976079D01*
X40107883Y-84990329D01*
X40125607Y-85006393D01*
X40141671Y-85024117D01*
X40155921Y-85043330D01*
X40168218Y-85063847D01*
X40178446Y-85085471D01*
X40186504Y-85107993D01*
X40192316Y-85131197D01*
X40195826Y-85154858D01*
X40197000Y-85178750D01*
X40197000Y-85666250D01*
X40195826Y-85690142D01*
X40192316Y-85713803D01*
X40186504Y-85737007D01*
X40178446Y-85759529D01*
X40168218Y-85781153D01*
X40155921Y-85801670D01*
X40141671Y-85820883D01*
X40125607Y-85838607D01*
X40107883Y-85854671D01*
X40088670Y-85868921D01*
X40068153Y-85881218D01*
X40046529Y-85891446D01*
X40024007Y-85899504D01*
X40000803Y-85905316D01*
X39977142Y-85908826D01*
X39953250Y-85910000D01*
X39040750Y-85910000D01*
X39016858Y-85908826D01*
X38993197Y-85905316D01*
X38969993Y-85899504D01*
X38947471Y-85891446D01*
X38925847Y-85881218D01*
X38905330Y-85868921D01*
X38886117Y-85854671D01*
X38868393Y-85838607D01*
X38852329Y-85820883D01*
X38838079Y-85801670D01*
X38825782Y-85781153D01*
X38815554Y-85759529D01*
X38807496Y-85737007D01*
X38801684Y-85713803D01*
X38798174Y-85690142D01*
X38797000Y-85666250D01*
X38797000Y-85178750D01*
X38798174Y-85154858D01*
X38801684Y-85131197D01*
X38807496Y-85107993D01*
X38815554Y-85085471D01*
X38825782Y-85063847D01*
X38838079Y-85043330D01*
X38852329Y-85024117D01*
X38868393Y-85006393D01*
X38886117Y-84990329D01*
X38905330Y-84976079D01*
X38925847Y-84963782D01*
X38947471Y-84953554D01*
X38969993Y-84945496D01*
X38993197Y-84939684D01*
X39016858Y-84936174D01*
X39040750Y-84935000D01*
X39953250Y-84935000D01*
X39977142Y-84936174D01*
G37*
D17*
X37719000Y-109743000D03*
X37719000Y-114793000D03*
X35179000Y-109743000D03*
X35179000Y-114793000D03*
X32639000Y-109743000D03*
X32639000Y-114793000D03*
D18*
X27813000Y-104708200D03*
X27813000Y-102708200D03*
D19*
X30513000Y-105008200D03*
X30513000Y-104358200D03*
X30513000Y-103708200D03*
X30513000Y-103058200D03*
X30513000Y-102408200D03*
D20*
X33909000Y-78105000D03*
D12*
X146495600Y-110274300D03*
X146495600Y-113474300D03*
X151395600Y-110274300D03*
X151395600Y-113474300D03*
X136843600Y-110274300D03*
X136843600Y-113474300D03*
X141743600Y-110274300D03*
X141743600Y-113474300D03*
X127191600Y-110274300D03*
X127191600Y-113474300D03*
X132091600Y-110274300D03*
X132091600Y-113474300D03*
X117539600Y-110274300D03*
X117539600Y-113474300D03*
X122439600Y-110274300D03*
X122439600Y-113474300D03*
X107887600Y-110274300D03*
X107887600Y-113474300D03*
X112787600Y-110274300D03*
X112787600Y-113474300D03*
X98235600Y-110274300D03*
X98235600Y-113474300D03*
X103135600Y-110274300D03*
X103135600Y-113474300D03*
X88583600Y-110274300D03*
X88583600Y-113474300D03*
X93483600Y-110274300D03*
X93483600Y-113474300D03*
X78931600Y-110274300D03*
X78931600Y-113474300D03*
X83831600Y-110274300D03*
X83831600Y-113474300D03*
X69279600Y-110274300D03*
X69279600Y-113474300D03*
X74179600Y-110274300D03*
X74179600Y-113474300D03*
X59627600Y-110274300D03*
X59627600Y-113474300D03*
X64527600Y-110274300D03*
X64527600Y-113474300D03*
X49975600Y-110274300D03*
X49975600Y-113474300D03*
X54875600Y-110274300D03*
X54875600Y-113474300D03*
X45223600Y-113474300D03*
X45223600Y-110274300D03*
X40323600Y-113474300D03*
X40323600Y-110274300D03*
X156147600Y-110274300D03*
X156147600Y-113474300D03*
X161047600Y-110274300D03*
X161047600Y-113474300D03*
X165799600Y-110274300D03*
X165799600Y-113474300D03*
X170699600Y-110274300D03*
X170699600Y-113474300D03*
X175451600Y-110274300D03*
X175451600Y-113474300D03*
X180351600Y-110274300D03*
X180351600Y-113474300D03*
X185103600Y-110274300D03*
X185103600Y-113474300D03*
X190003600Y-110274300D03*
X190003600Y-113474300D03*
X194755600Y-110274300D03*
X194755600Y-113474300D03*
X199655600Y-110274300D03*
X199655600Y-113474300D03*
X204407600Y-110274300D03*
X204407600Y-113474300D03*
X209307600Y-110274300D03*
X209307600Y-113474300D03*
X214059600Y-110274300D03*
X214059600Y-113474300D03*
X218959600Y-110274300D03*
X218959600Y-113474300D03*
X223711600Y-110274300D03*
X223711600Y-113474300D03*
X228611600Y-110274300D03*
X228611600Y-113474300D03*
X233363600Y-110274300D03*
X233363600Y-113474300D03*
X238263600Y-110274300D03*
X238263600Y-113474300D03*
X243015600Y-110274300D03*
X243015600Y-113474300D03*
X247915600Y-110274300D03*
X247915600Y-113474300D03*
X262319600Y-110274300D03*
X262319600Y-113474300D03*
X267219600Y-110274300D03*
X267219600Y-113474300D03*
X271971600Y-110274300D03*
X271971600Y-113474300D03*
X276871600Y-110274300D03*
X276871600Y-113474300D03*
X161047600Y-103238100D03*
X161047600Y-100038100D03*
X156147600Y-103238100D03*
X156147600Y-100038100D03*
X170699600Y-103238100D03*
X170699600Y-100038100D03*
X165799600Y-103238100D03*
X165799600Y-100038100D03*
X180351600Y-103238100D03*
X180351600Y-100038100D03*
X175451600Y-103238100D03*
X175451600Y-100038100D03*
X190003600Y-103238100D03*
X190003600Y-100038100D03*
X185103600Y-103238100D03*
X185103600Y-100038100D03*
X199655600Y-103238100D03*
X199655600Y-100038100D03*
X194755600Y-103238100D03*
X194755600Y-100038100D03*
X209307600Y-103238100D03*
X209307600Y-100038100D03*
X204407600Y-103238100D03*
X204407600Y-100038100D03*
X218959600Y-103238100D03*
X218959600Y-100038100D03*
X214059600Y-103238100D03*
X214059600Y-100038100D03*
X228611600Y-103238100D03*
X228611600Y-100038100D03*
X223711600Y-103238100D03*
X223711600Y-100038100D03*
X238263600Y-103238100D03*
X238263600Y-100038100D03*
X233363600Y-103238100D03*
X233363600Y-100038100D03*
X247915600Y-103238100D03*
X247915600Y-100038100D03*
X243015600Y-103238100D03*
X243015600Y-100038100D03*
X267219600Y-103238100D03*
X267219600Y-100038100D03*
X262319600Y-103238100D03*
X262319600Y-100038100D03*
X276871600Y-103238100D03*
X276871600Y-100038100D03*
X271971600Y-103238100D03*
X271971600Y-100038100D03*
X141743600Y-103238100D03*
X141743600Y-100038100D03*
X136843600Y-103238100D03*
X136843600Y-100038100D03*
X132091600Y-103238100D03*
X132091600Y-100038100D03*
X127191600Y-103238100D03*
X127191600Y-100038100D03*
X122439600Y-103238100D03*
X122439600Y-100038100D03*
X117539600Y-103238100D03*
X117539600Y-100038100D03*
X112787600Y-103238100D03*
X112787600Y-100038100D03*
X107887600Y-103238100D03*
X107887600Y-100038100D03*
X103135600Y-103238100D03*
X103135600Y-100038100D03*
X98235600Y-103238100D03*
X98235600Y-100038100D03*
X93483600Y-103238100D03*
X93483600Y-100038100D03*
X88583600Y-103238100D03*
X88583600Y-100038100D03*
X83831600Y-103238100D03*
X83831600Y-100038100D03*
X78931600Y-103238100D03*
X78931600Y-100038100D03*
X74179600Y-103238100D03*
X74179600Y-100038100D03*
X69279600Y-103238100D03*
X69279600Y-100038100D03*
X64527600Y-103238100D03*
X64527600Y-100038100D03*
X59627600Y-103238100D03*
X59627600Y-100038100D03*
X54875600Y-103238100D03*
X54875600Y-100038100D03*
X49975600Y-103238100D03*
X49975600Y-100038100D03*
X45223600Y-103238100D03*
X45223600Y-100038100D03*
X40323600Y-103238100D03*
X40323600Y-100038100D03*
X146495600Y-89801900D03*
X146495600Y-93001900D03*
X151395600Y-89801900D03*
X151395600Y-93001900D03*
X136843600Y-89801900D03*
X136843600Y-93001900D03*
X141743600Y-89801900D03*
X141743600Y-93001900D03*
X127191600Y-89801900D03*
X127191600Y-93001900D03*
X132091600Y-89801900D03*
X132091600Y-93001900D03*
X117539600Y-89801900D03*
X117539600Y-93001900D03*
X122439600Y-89801900D03*
X122439600Y-93001900D03*
X107887600Y-89801900D03*
X107887600Y-93001900D03*
X112787600Y-89801900D03*
X112787600Y-93001900D03*
X98235600Y-89801900D03*
X98235600Y-93001900D03*
X103135600Y-89801900D03*
X103135600Y-93001900D03*
X88583600Y-89801900D03*
X88583600Y-93001900D03*
X93483600Y-89801900D03*
X93483600Y-93001900D03*
X78931600Y-89801900D03*
X78931600Y-93001900D03*
X83831600Y-89801900D03*
X83831600Y-93001900D03*
X69279600Y-89801900D03*
X69279600Y-93001900D03*
X74179600Y-89801900D03*
X74179600Y-93001900D03*
X59627600Y-89801900D03*
X59627600Y-93001900D03*
X64527600Y-89801900D03*
X64527600Y-93001900D03*
X49975600Y-89801900D03*
X49975600Y-93001900D03*
X54875600Y-89801900D03*
X54875600Y-93001900D03*
X40323600Y-89801900D03*
X40323600Y-93001900D03*
X45223600Y-89801900D03*
X45223600Y-93001900D03*
X156147600Y-89801900D03*
X156147600Y-93001900D03*
X161047600Y-89801900D03*
X161047600Y-93001900D03*
X165799600Y-89801900D03*
X165799600Y-93001900D03*
X170699600Y-89801900D03*
X170699600Y-93001900D03*
X175451600Y-89801900D03*
X175451600Y-93001900D03*
X180351600Y-89801900D03*
X180351600Y-93001900D03*
X185103600Y-89801900D03*
X185103600Y-93001900D03*
X190003600Y-89801900D03*
X190003600Y-93001900D03*
X194755600Y-89801900D03*
X194755600Y-93001900D03*
X199655600Y-89801900D03*
X199655600Y-93001900D03*
X204407600Y-89801900D03*
X204407600Y-93001900D03*
X209307600Y-89801900D03*
X209307600Y-93001900D03*
X214059600Y-89801900D03*
X214059600Y-93001900D03*
X218959600Y-89801900D03*
X218959600Y-93001900D03*
X223711600Y-89801900D03*
X223711600Y-93001900D03*
X228611600Y-89801900D03*
X228611600Y-93001900D03*
X233363600Y-89801900D03*
X233363600Y-93001900D03*
X238263600Y-89801900D03*
X238263600Y-93001900D03*
X243015600Y-89801900D03*
X243015600Y-93001900D03*
X247915600Y-89801900D03*
X247915600Y-93001900D03*
X262319600Y-89801900D03*
X262319600Y-93001900D03*
X267219600Y-89801900D03*
X267219600Y-93001900D03*
X271971600Y-89801900D03*
X271971600Y-93001900D03*
X276871600Y-89801900D03*
X276871600Y-93001900D03*
X156147600Y-79565700D03*
X156147600Y-82765700D03*
X161047600Y-79565700D03*
X161047600Y-82765700D03*
X165799600Y-79565700D03*
X165799600Y-82765700D03*
X170699600Y-79565700D03*
X170699600Y-82765700D03*
X175451600Y-79565700D03*
X175451600Y-82765700D03*
X180351600Y-79565700D03*
X180351600Y-82765700D03*
X185103600Y-79565700D03*
X185103600Y-82765700D03*
X190003600Y-79565700D03*
X190003600Y-82765700D03*
X194755600Y-79565700D03*
X194755600Y-82765700D03*
X199655600Y-79565700D03*
X199655600Y-82765700D03*
X204407600Y-79565700D03*
X204407600Y-82765700D03*
X209307600Y-79565700D03*
X209307600Y-82765700D03*
X214059600Y-79565700D03*
X214059600Y-82765700D03*
X218959600Y-79565700D03*
X218959600Y-82765700D03*
X223711600Y-79565700D03*
X223711600Y-82765700D03*
X228611600Y-79565700D03*
X228611600Y-82765700D03*
X233363600Y-79565700D03*
X233363600Y-82765700D03*
X238263600Y-79565700D03*
X238263600Y-82765700D03*
X243015600Y-79565700D03*
X243015600Y-82765700D03*
X247915600Y-79565700D03*
X247915600Y-82765700D03*
X262319600Y-79565700D03*
X262319600Y-82765700D03*
X267219600Y-79565700D03*
X267219600Y-82765700D03*
X252667600Y-79565700D03*
X252667600Y-82765700D03*
X257567600Y-79565700D03*
X257567600Y-82765700D03*
X146495600Y-79565700D03*
X146495600Y-82765700D03*
X151395600Y-79565700D03*
X151395600Y-82765700D03*
X136843600Y-79565700D03*
X136843600Y-82765700D03*
X141743600Y-79565700D03*
X141743600Y-82765700D03*
X127191600Y-79565700D03*
X127191600Y-82765700D03*
X132091600Y-79565700D03*
X132091600Y-82765700D03*
X117539600Y-79565700D03*
X117539600Y-82765700D03*
X122439600Y-79565700D03*
X122439600Y-82765700D03*
X107887600Y-79565700D03*
X107887600Y-82765700D03*
X112787600Y-79565700D03*
X112787600Y-82765700D03*
X98235600Y-79565700D03*
X98235600Y-82765700D03*
X103135600Y-79565700D03*
X103135600Y-82765700D03*
X88583600Y-79565700D03*
X88583600Y-82765700D03*
X93483600Y-79565700D03*
X93483600Y-82765700D03*
X78931600Y-79565700D03*
X78931600Y-82765700D03*
X83831600Y-79565700D03*
X83831600Y-82765700D03*
X69279600Y-79565700D03*
X69279600Y-82765700D03*
X74179600Y-79565700D03*
X74179600Y-82765700D03*
X59627600Y-79565700D03*
X59627600Y-82765700D03*
X64527600Y-79565700D03*
X64527600Y-82765700D03*
X49975600Y-79565700D03*
X49975600Y-82765700D03*
X54875600Y-79565700D03*
X54875600Y-82765700D03*
D11*
G36*
X37437142Y-95828174D02*
G01*
X37460803Y-95831684D01*
X37484007Y-95837496D01*
X37506529Y-95845554D01*
X37528153Y-95855782D01*
X37548670Y-95868079D01*
X37567883Y-95882329D01*
X37585607Y-95898393D01*
X37601671Y-95916117D01*
X37615921Y-95935330D01*
X37628218Y-95955847D01*
X37638446Y-95977471D01*
X37646504Y-95999993D01*
X37652316Y-96023197D01*
X37655826Y-96046858D01*
X37657000Y-96070750D01*
X37657000Y-96558250D01*
X37655826Y-96582142D01*
X37652316Y-96605803D01*
X37646504Y-96629007D01*
X37638446Y-96651529D01*
X37628218Y-96673153D01*
X37615921Y-96693670D01*
X37601671Y-96712883D01*
X37585607Y-96730607D01*
X37567883Y-96746671D01*
X37548670Y-96760921D01*
X37528153Y-96773218D01*
X37506529Y-96783446D01*
X37484007Y-96791504D01*
X37460803Y-96797316D01*
X37437142Y-96800826D01*
X37413250Y-96802000D01*
X36500750Y-96802000D01*
X36476858Y-96800826D01*
X36453197Y-96797316D01*
X36429993Y-96791504D01*
X36407471Y-96783446D01*
X36385847Y-96773218D01*
X36365330Y-96760921D01*
X36346117Y-96746671D01*
X36328393Y-96730607D01*
X36312329Y-96712883D01*
X36298079Y-96693670D01*
X36285782Y-96673153D01*
X36275554Y-96651529D01*
X36267496Y-96629007D01*
X36261684Y-96605803D01*
X36258174Y-96582142D01*
X36257000Y-96558250D01*
X36257000Y-96070750D01*
X36258174Y-96046858D01*
X36261684Y-96023197D01*
X36267496Y-95999993D01*
X36275554Y-95977471D01*
X36285782Y-95955847D01*
X36298079Y-95935330D01*
X36312329Y-95916117D01*
X36328393Y-95898393D01*
X36346117Y-95882329D01*
X36365330Y-95868079D01*
X36385847Y-95855782D01*
X36407471Y-95845554D01*
X36429993Y-95837496D01*
X36453197Y-95831684D01*
X36476858Y-95828174D01*
X36500750Y-95827000D01*
X37413250Y-95827000D01*
X37437142Y-95828174D01*
G37*
G36*
X37437142Y-93953174D02*
G01*
X37460803Y-93956684D01*
X37484007Y-93962496D01*
X37506529Y-93970554D01*
X37528153Y-93980782D01*
X37548670Y-93993079D01*
X37567883Y-94007329D01*
X37585607Y-94023393D01*
X37601671Y-94041117D01*
X37615921Y-94060330D01*
X37628218Y-94080847D01*
X37638446Y-94102471D01*
X37646504Y-94124993D01*
X37652316Y-94148197D01*
X37655826Y-94171858D01*
X37657000Y-94195750D01*
X37657000Y-94683250D01*
X37655826Y-94707142D01*
X37652316Y-94730803D01*
X37646504Y-94754007D01*
X37638446Y-94776529D01*
X37628218Y-94798153D01*
X37615921Y-94818670D01*
X37601671Y-94837883D01*
X37585607Y-94855607D01*
X37567883Y-94871671D01*
X37548670Y-94885921D01*
X37528153Y-94898218D01*
X37506529Y-94908446D01*
X37484007Y-94916504D01*
X37460803Y-94922316D01*
X37437142Y-94925826D01*
X37413250Y-94927000D01*
X36500750Y-94927000D01*
X36476858Y-94925826D01*
X36453197Y-94922316D01*
X36429993Y-94916504D01*
X36407471Y-94908446D01*
X36385847Y-94898218D01*
X36365330Y-94885921D01*
X36346117Y-94871671D01*
X36328393Y-94855607D01*
X36312329Y-94837883D01*
X36298079Y-94818670D01*
X36285782Y-94798153D01*
X36275554Y-94776529D01*
X36267496Y-94754007D01*
X36261684Y-94730803D01*
X36258174Y-94707142D01*
X36257000Y-94683250D01*
X36257000Y-94195750D01*
X36258174Y-94171858D01*
X36261684Y-94148197D01*
X36267496Y-94124993D01*
X36275554Y-94102471D01*
X36285782Y-94080847D01*
X36298079Y-94060330D01*
X36312329Y-94041117D01*
X36328393Y-94023393D01*
X36346117Y-94007329D01*
X36365330Y-93993079D01*
X36385847Y-93980782D01*
X36407471Y-93970554D01*
X36429993Y-93962496D01*
X36453197Y-93956684D01*
X36476858Y-93953174D01*
X36500750Y-93952000D01*
X37413250Y-93952000D01*
X37437142Y-93953174D01*
G37*
M02*
